{"glyphs":{"0":{"ha":889,"x_min":78,"x_max":869,"o":"m 353 -121 q 198 -70 258 -121 q 108 64 138 -19 q 78 247 78 147 q 101 444 78 340 q 169 646 125 547 q 276 824 214 744 q 416 952 338 904 q 586 1000 494 1000 q 736 957 672 1000 q 835 834 800 914 q 869 643 869 754 q 844 425 869 535 q 773 217 819 315 q 663 43 726 119 q 520 -77 599 -33 q 353 -121 442 -121 m 372 -67 q 492 -19 435 -67 q 598 108 550 28 q 682 288 646 189 q 738 488 718 386 q 757 681 757 590 q 740 822 757 760 q 686 919 724 883 q 588 956 649 956 q 472 919 525 956 q 376 822 418 883 q 301 683 333 760 q 247 522 268 606 q 214 361 225 439 q 203 219 203 283 q 248 12 203 90 q 372 -67 293 -67 z "},"1":{"ha":519,"x_min":-58,"x_max":457,"o":"m 61 -121 q -4 -104 28 -121 q -58 -57 -36 -87 q -31 -59 -43 -58 q -4 -60 -18 -60 q 68 -56 29 -60 q 143 -46 107 -51 q 191 97 168 13 q 234 278 214 181 q 272 472 254 375 q 307 656 290 569 q 338 801 324 742 q 228 731 261 749 q 179 714 194 714 q 153 723 163 714 q 143 760 143 732 q 220 810 169 774 q 331 896 271 846 q 442 1000 390 946 q 453 979 450 993 q 457 953 457 965 q 444 881 457 919 q 425 799 432 843 q 392 594 411 704 q 347 372 372 485 q 289 153 321 258 q 218 -35 257 49 q 245 -31 232 -32 q 271 -31 258 -31 q 362 -47 324 -31 q 411 -115 400 -62 q 351 -110 381 -112 q 294 -108 322 -108 q 211 -111 253 -108 q 131 -117 169 -114 q 61 -121 93 -121 z "},"2":{"ha":794,"x_min":-21,"x_max":718,"o":"m 571 -121 q 475 -105 529 -121 q 360 -65 421 -89 q 240 -17 300 -40 q 156 -59 196 -43 q 79 -75 115 -75 q 8 -53 36 -75 q -21 3 -21 -32 q 5 54 -21 36 q 88 72 31 72 q 156 67 119 72 q 236 53 193 61 q 365 192 300 110 q 484 372 429 275 q 573 570 539 469 q 607 761 607 671 q 565 909 607 863 q 458 956 522 956 q 355 919 397 956 q 291 820 313 882 q 269 686 269 758 q 274 634 269 657 q 289 583 278 611 q 283 583 286 583 q 276 585 281 583 q 203 622 231 594 q 175 711 175 650 q 214 852 175 786 q 321 959 253 918 q 478 1000 389 1000 q 604 965 553 1000 q 683 872 656 931 q 711 740 711 814 q 694 609 711 675 q 649 479 676 543 q 559 316 613 397 q 442 163 506 235 q 311 36 378 92 q 483 1 410 15 q 606 -12 557 -12 q 658 -4 635 -12 q 718 25 682 4 q 665 -86 700 -51 q 571 -121 629 -121 m 78 -31 q 123 -20 99 -31 q 175 7 147 -10 q 119 24 144 18 q 75 29 93 29 q 39 19 49 29 q 29 0 29 8 q 44 -22 29 -14 q 78 -31 60 -31 z "},"3":{"ha":724,"x_min":14,"x_max":667,"o":"m 250 -121 q 112 -89 164 -121 q 37 -10 60 -57 q 14 79 14 36 q 27 150 14 115 q 66 208 40 185 q 131 231 92 231 q 145 231 138 231 q 164 228 153 231 q 128 172 142 210 q 114 97 114 133 q 133 17 114 56 q 185 -45 151 -21 q 263 -69 218 -69 q 369 -32 318 -69 q 453 74 419 6 q 486 232 486 143 q 471 338 486 285 q 419 431 456 390 q 321 486 383 471 q 444 576 392 518 q 525 701 496 633 q 554 825 554 768 q 515 926 554 897 q 429 956 476 956 q 354 939 390 956 q 295 890 318 922 q 272 813 272 858 q 278 766 272 790 q 296 718 283 742 q 271 690 289 703 q 236 676 253 676 q 206 694 218 676 q 187 738 193 711 q 181 790 181 765 q 219 904 181 857 q 319 976 258 951 q 446 1000 381 1000 q 553 980 503 1000 q 635 919 603 960 q 667 815 667 878 q 649 722 667 771 q 599 629 631 674 q 524 551 567 585 q 431 501 481 517 q 553 435 508 481 q 616 335 597 389 q 635 233 635 282 q 606 106 635 169 q 526 -8 578 43 q 404 -90 474 -60 q 250 -121 335 -121 z "},"4":{"ha":678,"x_min":-6,"x_max":656,"o":"m 433 -121 q 349 -100 381 -117 q 318 -53 318 -83 q 321 -28 318 -50 q 331 42 324 -7 q 356 178 339 92 q 366 233 358 193 q 385 325 374 274 q 325 327 356 326 q 275 328 294 328 q 215 327 247 328 q 151 324 183 326 q 88 319 118 322 q 34 312 58 315 q -6 304 10 308 q 6 347 -6 329 q 33 381 17 365 q 164 513 88 440 q 325 667 240 586 q 485 833 410 749 q 610 1000 560 918 q 624 988 617 997 q 632 960 632 978 q 604 883 632 928 q 582 781 597 851 q 548 615 567 711 q 507 404 529 518 q 530 404 518 404 q 553 404 542 404 q 611 406 589 404 q 656 414 633 408 q 588 350 626 375 q 517 324 549 325 q 505 324 511 324 q 493 324 499 324 q 485 289 489 308 q 479 246 482 269 q 465 161 474 213 q 449 55 457 110 q 438 -48 442 0 q 433 -121 433 -96 m 129 404 q 192 410 158 408 q 264 411 226 411 q 338 410 303 411 q 403 408 372 410 q 443 585 422 496 q 486 744 464 674 q 382 647 438 697 q 273 547 326 597 q 175 453 219 497 q 151 427 163 439 q 129 404 140 415 z "},"5":{"ha":685,"x_min":1,"x_max":678,"o":"m 244 -121 q 99 -89 151 -121 q 24 -11 46 -57 q 1 78 1 35 q 14 149 1 114 q 53 208 26 185 q 117 231 79 231 q 131 231 124 231 q 150 228 139 231 q 115 172 129 210 q 101 92 101 135 q 115 15 101 51 q 161 -46 129 -22 q 243 -69 193 -69 q 342 -42 299 -69 q 415 31 385 -14 q 460 131 444 76 q 475 240 475 186 q 456 346 475 297 q 397 425 438 394 q 289 456 357 456 q 228 451 264 456 q 154 439 193 446 q 175 540 161 481 q 207 665 189 599 q 244 794 225 731 q 277 910 263 858 q 300 992 292 961 q 381 976 343 981 q 451 972 418 972 q 561 981 508 972 q 671 1000 614 989 q 676 977 675 988 q 678 958 678 967 q 651 894 678 918 q 583 862 624 871 q 503 853 543 853 q 413 862 451 853 q 349 871 375 871 q 333 866 339 871 q 321 847 328 861 q 296 783 310 824 q 269 695 282 742 q 246 604 257 649 q 226 528 235 560 q 215 488 218 497 q 274 497 244 494 q 335 500 304 500 q 493 466 431 500 q 587 372 556 432 q 618 235 618 311 q 570 55 618 136 q 438 -74 522 -26 q 244 -121 354 -121 z "},"6":{"ha":793,"x_min":72,"x_max":749,"o":"m 365 -121 q 195 -75 260 -121 q 101 50 131 -29 q 72 226 72 129 q 97 425 72 319 q 167 633 121 531 q 280 818 214 735 q 429 951 346 901 q 613 1000 513 1000 q 710 980 671 1000 q 749 917 749 960 q 735 877 749 896 q 678 846 721 858 q 680 866 679 857 q 681 888 681 875 q 667 940 681 918 q 606 961 653 961 q 482 915 540 961 q 376 792 424 869 q 293 623 329 715 q 235 438 257 531 q 343 500 282 478 q 468 522 404 522 q 599 494 539 522 q 694 406 658 465 q 731 250 731 346 q 684 62 731 146 q 556 -72 638 -22 q 365 -121 474 -121 m 372 -69 q 467 -41 425 -69 q 540 35 510 -12 q 585 141 569 83 q 601 258 601 199 q 578 378 601 332 q 513 447 554 425 q 424 469 472 469 q 294 431 343 469 q 225 330 246 392 q 204 197 204 268 q 211 113 204 158 q 235 25 218 67 q 287 -43 253 -17 q 372 -69 321 -69 z "},"7":{"ha":576,"x_min":86,"x_max":704,"o":"m 146 -121 q 110 -104 126 -121 q 94 -56 94 -87 q 119 55 94 -15 q 185 217 143 125 q 278 413 226 308 q 217 410 253 413 q 147 406 182 408 q 86 399 113 403 q 117 460 88 440 q 192 488 146 481 q 288 494 239 494 q 304 494 296 494 q 322 494 313 494 q 431 682 371 583 q 547 876 492 781 q 481 874 519 876 q 401 870 442 872 q 329 868 361 868 q 211 888 243 868 q 179 936 179 907 q 199 997 179 963 q 276 985 239 992 q 358 974 314 978 q 458 969 401 969 q 590 977 525 969 q 704 1000 656 985 q 668 949 690 979 q 625 893 646 918 q 514 713 569 813 q 401 490 458 613 q 467 486 436 489 q 529 483 497 483 q 563 485 550 483 q 589 490 576 488 q 534 432 563 453 q 471 411 506 411 q 424 411 450 411 q 365 413 397 411 q 313 286 342 356 q 263 147 283 217 q 243 21 243 78 q 247 -11 243 3 q 261 -33 250 -25 q 201 -102 238 -83 q 146 -121 165 -121 z "},"8":{"ha":747,"x_min":47,"x_max":668,"o":"m 299 -121 q 177 -99 225 -121 q 101 -42 129 -78 q 60 35 72 -6 q 47 110 47 75 q 74 219 47 171 q 144 309 100 267 q 242 390 189 351 q 347 467 294 428 q 271 556 307 510 q 212 653 235 601 q 189 768 189 706 q 228 902 189 851 q 328 976 268 953 q 451 999 389 999 q 608 947 547 999 q 668 796 668 896 q 641 674 668 729 q 569 573 614 619 q 471 485 525 526 q 556 390 515 438 q 623 288 597 342 q 649 171 649 235 q 598 16 649 82 q 467 -85 547 -50 q 299 -121 386 -121 m 311 -60 q 412 -32 363 -60 q 494 47 461 -4 q 526 165 526 97 q 485 303 526 242 q 389 422 443 364 q 268 331 325 378 q 175 232 211 285 q 139 114 139 179 q 164 21 139 60 q 228 -39 189 -18 q 311 -60 268 -60 m 429 531 q 538 649 494 585 q 581 796 581 713 q 542 915 581 876 q 453 954 504 954 q 388 938 422 954 q 328 885 353 922 q 304 786 304 849 q 341 649 304 710 q 429 531 378 588 z "},"9":{"ha":801,"x_min":124,"x_max":782,"o":"m 269 -121 q 169 -100 210 -121 q 129 -35 129 -79 q 143 4 129 -14 q 197 35 157 22 q 197 16 197 25 q 197 -4 196 7 q 214 -58 199 -33 q 274 -82 229 -82 q 396 -36 340 -82 q 497 87 451 10 q 574 256 542 164 q 625 442 607 349 q 519 379 581 401 q 394 357 458 357 q 259 388 321 357 q 160 481 197 418 q 124 640 124 544 q 168 824 124 743 q 292 953 213 906 q 476 1000 371 1000 q 656 949 589 1000 q 752 814 722 899 q 782 628 782 729 q 759 431 782 535 q 692 230 736 328 q 587 53 649 132 q 445 -74 525 -26 q 269 -121 365 -121 m 439 411 q 597 478 547 411 q 647 653 647 544 q 639 752 647 700 q 612 849 631 804 q 558 921 593 893 q 471 949 524 949 q 379 922 419 949 q 310 849 339 894 q 267 747 282 803 q 253 633 253 692 q 278 508 253 557 q 346 435 303 458 q 439 411 389 411 z "}," ":{"ha":361,"x_min":0,"x_max":0,"o":""},"A":{"ha":840,"x_min":-15,"x_max":819,"o":"m 38 -121 q -6 -80 3 -101 q -15 -44 -15 -58 q 13 60 -15 -6 q 88 210 40 125 q 193 385 135 294 q 108 390 144 389 q 32 392 71 392 l -7 392 q 49 452 10 435 q 143 469 89 469 q 192 467 167 469 q 243 460 217 464 q 386 662 314 565 q 522 835 458 758 q 629 953 585 911 q 706 1001 678 1001 q 743 988 722 1001 q 786 953 764 975 q 751 894 772 942 q 705 776 729 847 q 657 619 681 704 q 613 446 633 535 q 581 277 593 357 q 569 138 569 197 q 581 55 569 83 q 619 26 593 26 q 701 76 654 26 q 803 232 747 125 l 819 214 q 712 31 778 103 q 574 -42 646 -42 q 488 12 514 -42 q 461 154 461 65 q 467 243 461 194 q 483 350 472 292 q 372 366 422 360 q 279 378 322 372 q 152 130 214 257 q 38 -121 90 3 m 494 406 q 540 584 514 493 q 597 757 567 675 q 654 901 626 839 q 557 808 611 874 q 442 649 503 742 q 318 446 382 557 q 409 426 364 438 q 494 406 454 415 z "},"B":{"ha":864,"x_min":36,"x_max":807,"o":"m 197 -121 q 78 -94 118 -121 q 36 -7 38 -68 q 46 0 36 0 q 82 -6 57 0 q 179 -12 107 -12 q 401 14 299 -12 q 578 86 503 40 q 694 190 653 132 q 735 310 735 247 q 703 399 735 365 q 618 451 671 433 q 503 475 565 469 q 382 481 442 481 q 328 480 356 481 q 278 479 301 479 q 216 256 246 369 q 154 35 186 143 q 91 56 117 35 q 65 106 65 76 q 72 142 65 121 q 85 185 78 164 q 114 276 93 213 q 164 426 135 340 q 228 607 193 513 q 301 792 264 701 q 375 954 339 883 q 279 926 318 943 q 219 894 240 908 q 188 881 197 881 q 168 888 179 881 q 148 905 157 894 q 139 924 139 915 q 288 976 210 953 q 475 1000 365 1000 q 579 992 522 1000 q 688 962 636 985 q 772 894 739 939 q 806 778 806 850 q 777 666 806 713 q 703 588 749 619 q 603 538 657 557 q 496 510 549 519 q 655 478 593 501 q 749 422 717 454 q 794 353 782 389 q 807 286 807 318 q 765 139 807 204 q 653 25 722 74 q 503 -56 585 -24 q 342 -105 422 -89 q 197 -121 261 -121 m 288 518 q 440 536 365 521 q 577 583 515 551 q 676 664 639 614 q 714 789 714 714 q 679 897 714 858 q 590 949 644 935 q 472 964 535 964 q 463 964 468 964 q 453 964 458 964 q 364 753 404 868 q 288 518 324 639 z "},"C":{"ha":758,"x_min":35,"x_max":757,"o":"m 318 -121 q 155 -72 218 -121 q 63 56 92 -22 q 35 219 35 135 q 68 440 35 329 q 160 651 101 551 q 292 830 218 751 q 449 953 367 908 q 613 999 532 999 q 708 971 671 999 q 746 876 746 943 q 732 785 746 836 q 694 688 718 735 q 640 610 669 640 q 582 579 611 579 q 556 587 569 579 q 533 615 543 594 q 580 674 554 639 q 630 747 606 708 q 669 824 654 786 q 683 890 683 863 q 668 934 683 918 q 617 950 653 950 q 492 903 557 950 q 367 776 428 856 q 259 597 307 696 q 183 396 211 499 q 154 200 154 293 q 174 71 154 132 q 238 -28 193 10 q 351 -67 282 -67 q 499 -25 425 -67 q 634 85 572 17 q 732 231 696 153 l 757 214 q 644 47 710 122 q 496 -75 578 -29 q 318 -121 414 -121 z "},"D":{"ha":922,"x_min":85,"x_max":913,"o":"m 239 -121 q 154 -108 194 -121 q 85 -56 114 -96 q 113 72 94 0 q 156 226 132 144 q 204 388 179 307 q 253 541 229 469 q 295 667 276 613 q 324 747 314 721 q 338 780 328 758 q 362 824 347 801 q 395 863 376 847 q 435 879 414 879 q 479 863 456 879 q 392 644 436 764 q 308 396 349 524 q 235 147 268 268 q 181 -74 201 26 q 213 -78 197 -76 q 243 -79 228 -79 q 415 -37 332 -79 q 568 76 497 4 q 692 240 639 149 q 774 433 744 332 q 803 632 803 533 q 766 816 803 744 q 665 922 729 888 q 515 956 600 956 q 353 921 425 956 q 239 826 281 886 q 197 692 197 767 q 199 662 197 676 q 206 636 201 647 q 135 660 156 636 q 114 717 114 683 q 148 815 114 765 q 244 907 182 865 q 386 974 306 949 q 558 1000 467 1000 q 764 949 686 1000 q 877 810 842 897 q 913 617 913 724 q 875 386 913 496 q 771 184 838 276 q 619 24 704 92 q 435 -83 533 -44 q 239 -121 338 -121 z "},"E":{"ha":708,"x_min":-15,"x_max":706,"o":"m 264 -121 q 115 -86 178 -121 q 19 7 53 -51 q -15 135 -15 65 q 12 258 -15 197 q 88 369 39 319 q 201 453 136 419 q 342 494 267 486 q 264 596 289 539 q 239 710 239 653 q 276 850 239 783 q 378 958 313 917 q 529 999 444 999 q 652 959 610 999 q 694 846 694 919 q 676 744 694 793 q 631 665 657 696 q 581 635 604 635 q 549 649 564 635 q 524 683 533 664 q 608 773 574 725 q 642 874 642 821 q 616 940 642 917 q 543 963 590 963 q 435 924 479 963 q 369 824 392 886 q 347 690 347 763 q 365 578 347 638 q 435 475 382 519 q 269 405 340 460 q 160 276 199 350 q 121 131 121 203 q 138 40 121 86 q 195 -37 156 -6 q 300 -68 235 -68 q 448 -26 375 -68 q 582 84 521 15 q 681 231 643 153 l 706 214 q 589 44 656 119 q 440 -76 522 -32 q 264 -121 358 -121 z "},"F":{"ha":688,"x_min":94,"x_max":878,"o":"m 228 -121 q 143 -85 161 -115 q 125 -10 125 -56 q 145 113 125 40 q 196 271 165 186 q 258 439 226 356 q 219 435 243 438 q 166 430 196 433 q 100 421 136 426 q 128 480 103 458 q 196 512 154 501 q 289 524 238 522 q 367 728 326 628 q 447 911 407 828 q 422 913 435 913 q 394 914 410 914 q 259 896 307 914 q 193 842 211 878 q 175 750 175 806 q 180 692 175 718 q 196 635 185 665 q 119 674 143 644 q 94 747 94 703 q 147 875 94 819 q 287 962 199 931 q 483 993 375 993 q 628 983 557 993 q 763 972 699 972 q 821 976 794 972 q 878 989 847 981 q 785 904 822 925 q 710 883 747 883 q 626 892 678 883 q 511 906 575 901 q 472 799 493 861 q 427 665 450 736 q 381 522 404 594 q 512 510 451 518 q 629 500 572 501 q 601 472 617 482 q 559 456 586 461 q 484 449 532 451 q 358 446 436 447 q 336 371 349 413 q 315 295 324 329 q 300 247 306 261 q 248 42 267 132 q 228 -121 229 -49 z "},"G":{"ha":783,"x_min":35,"x_max":763,"o":"m 304 -121 q 168 -80 229 -121 q 71 39 107 -39 q 35 225 35 117 q 68 442 35 332 q 160 651 101 551 q 292 829 218 751 q 448 953 365 907 q 611 999 531 999 q 700 976 667 999 q 748 918 733 954 q 763 839 763 882 q 746 743 763 790 q 701 665 729 696 q 638 635 672 635 q 613 642 625 635 q 589 671 600 650 q 635 720 610 685 q 680 799 661 756 q 699 879 699 843 q 681 930 699 910 q 618 950 663 950 q 492 902 557 950 q 367 774 428 854 q 258 597 307 694 q 182 396 210 499 q 154 201 154 293 q 208 4 154 75 q 340 -67 261 -67 q 443 -28 394 -67 q 529 72 492 10 q 589 206 567 133 q 617 346 611 278 q 538 359 571 356 q 472 363 504 363 q 432 362 453 363 q 385 360 411 361 q 421 422 396 403 q 485 440 446 440 q 567 427 525 440 q 651 399 610 414 q 726 374 693 383 l 715 331 q 674 207 690 258 q 648 117 657 156 q 636 49 639 79 q 633 -8 633 19 q 635 -63 633 -36 q 638 -124 636 -90 q 591 -100 610 -115 q 565 -64 572 -85 q 557 -18 557 -43 q 558 7 557 -6 q 564 33 560 19 q 449 -76 514 -32 q 304 -121 385 -121 z "},"H":{"ha":878,"x_min":85,"x_max":899,"o":"m 85 -121 q 103 -21 93 -72 q 131 93 114 31 q 173 238 149 156 q 235 432 197 321 q 189 428 213 431 q 143 424 165 425 q 176 483 144 461 q 260 514 208 504 q 276 565 268 540 q 294 617 285 589 q 316 679 304 646 q 343 757 328 713 q 378 858 358 801 q 389 893 382 871 q 396 935 396 915 q 392 950 396 946 q 376 954 389 954 q 315 928 346 954 q 260 861 285 901 q 222 778 236 821 q 208 700 208 735 q 211 676 208 689 q 218 649 214 663 q 147 672 168 649 q 126 732 126 696 q 154 826 126 779 q 226 913 182 874 q 319 976 271 953 q 408 1000 368 1000 q 463 978 449 1000 q 476 931 476 957 q 473 900 476 915 q 465 871 469 885 l 360 524 q 397 526 378 525 q 436 526 417 526 q 562 523 503 526 q 675 514 621 519 q 731 695 706 613 q 778 837 757 778 q 814 926 800 896 q 829 955 819 938 q 856 986 839 972 q 899 1000 874 1000 q 854 870 879 950 q 803 696 829 790 q 753 508 776 601 q 806 505 778 507 q 861 503 835 503 q 797 460 828 468 q 739 453 767 453 q 713 346 725 397 q 693 249 701 294 q 662 63 671 140 q 653 -62 653 -15 q 653 -95 653 -82 q 657 -121 654 -108 q 574 -90 597 -115 q 551 -6 551 -64 q 559 78 551 29 q 582 189 567 128 q 613 301 593 233 q 657 451 632 369 q 515 450 572 451 q 417 447 458 449 q 333 442 375 446 q 298 327 317 386 q 260 208 279 268 q 224 89 242 149 q 188 -31 206 29 q 140 -100 172 -79 q 85 -121 108 -121 z "},"I":{"ha":658,"x_min":-43,"x_max":785,"o":"m -43 -122 q -6 -44 -37 -68 q 77 -12 26 -19 q 188 -4 128 -4 q 237 126 213 49 q 283 292 261 203 q 327 472 306 381 q 367 649 349 564 q 403 802 386 733 q 435 913 421 871 q 312 908 364 911 q 214 899 260 904 q 117 883 168 893 q 197 969 129 942 q 408 997 265 997 q 553 992 479 997 q 690 980 628 986 q 785 968 751 974 q 709 922 747 931 q 642 914 671 914 q 561 914 599 914 q 492 913 524 914 q 473 814 485 878 q 447 671 461 750 q 416 508 432 592 q 385 351 400 425 q 357 226 369 278 q 309 82 336 143 q 244 -7 282 21 q 398 -21 318 -11 q 550 -32 478 -31 q 460 -87 506 -76 q 383 -99 414 -99 q 259 -99 315 -99 q 153 -101 203 -100 q 55 -108 103 -103 q -43 -122 7 -112 z "},"J":{"ha":585,"x_min":-37,"x_max":728,"o":"m 119 -119 q 49 -107 86 -119 q -12 -55 13 -94 q -37 64 -37 -15 q -24 172 -37 118 q 13 263 -11 226 q 71 299 38 299 q 115 286 89 299 q 77 166 90 222 q 64 64 64 110 q 87 -31 64 3 q 151 -64 110 -64 q 215 -34 186 -64 q 274 78 243 -4 q 319 225 294 139 q 367 408 343 311 q 413 603 392 506 q 452 783 435 700 q 479 921 469 865 q 365 917 413 919 q 277 908 317 914 q 193 892 238 901 q 257 971 201 944 q 428 997 313 997 q 543 992 485 997 q 651 980 601 986 q 728 968 701 974 q 674 930 710 938 q 614 922 638 922 q 565 922 589 922 q 522 921 540 921 q 541 891 535 908 q 547 858 547 874 q 538 779 547 840 q 510 631 528 718 q 467 445 492 543 q 414 253 443 347 q 351 86 385 160 q 278 -41 315 3 q 201 -102 240 -85 q 119 -119 161 -119 z "},"K":{"ha":842,"x_min":47,"x_max":858,"o":"m 710 -121 q 637 -85 678 -121 q 550 8 596 -50 q 460 135 504 67 q 377 273 415 204 q 313 397 339 342 l 181 -31 q 148 -76 171 -62 q 99 -93 125 -90 q 47 -96 72 -96 q 85 -6 67 -56 q 129 115 104 44 q 189 285 154 185 q 272 526 224 386 q 386 858 319 667 q 397 888 390 869 q 404 924 404 907 q 397 946 404 938 q 372 954 390 954 q 308 928 339 954 q 253 861 278 901 q 216 778 229 821 q 203 701 203 735 q 211 649 203 672 q 140 672 161 649 q 119 731 119 696 q 147 826 119 778 q 219 913 175 874 q 313 976 264 953 q 401 1000 361 1000 q 456 978 443 1000 q 469 929 469 956 q 467 899 469 914 q 460 871 464 883 l 347 507 q 393 550 365 529 q 458 601 421 571 q 598 722 526 656 q 733 861 669 789 q 842 1001 797 933 q 855 969 851 990 q 858 936 858 947 q 823 842 858 893 q 731 735 788 790 q 606 628 674 681 q 471 528 538 575 q 351 446 404 481 q 433 313 393 376 q 522 190 474 250 q 633 66 569 129 q 788 -71 697 3 q 755 -106 776 -90 q 710 -121 733 -121 z "},"L":{"ha":810,"x_min":-99,"x_max":806,"o":"m 569 -121 q 458 -100 519 -121 q 331 -49 396 -79 q 203 7 267 -19 q 130 -52 168 -31 q 47 -74 92 -74 q -31 -53 1 -74 q -81 -3 -64 -32 q -99 50 -99 26 q -75 95 -99 76 q 7 114 -51 114 q 88 106 44 114 q 179 85 132 97 q 240 219 213 143 q 296 382 268 296 q 350 553 324 468 q 248 616 285 575 q 211 703 211 657 q 222 753 211 728 q 256 797 233 779 q 307 815 278 815 q 290 772 294 799 q 286 726 286 744 q 308 642 286 676 q 363 589 329 607 q 420 744 390 671 q 486 876 450 818 q 566 967 522 933 q 664 1000 610 1000 q 726 988 693 1000 q 782 944 758 975 q 806 856 806 913 q 785 753 806 808 q 724 649 765 699 q 619 569 683 600 q 467 535 556 538 q 460 535 465 535 q 444 535 456 535 q 388 366 418 451 q 322 203 357 281 q 249 65 288 126 q 374 28 308 47 q 503 -5 440 8 q 617 -18 565 -18 q 672 -12 647 -18 q 722 7 697 -6 q 660 -92 699 -62 q 569 -121 622 -121 m 39 -29 q 97 -13 71 -29 q 144 32 122 3 q 61 60 101 49 q -10 71 21 71 q -47 63 -36 71 q -57 43 -57 56 q -30 -5 -57 19 q 39 -29 -3 -29 m 456 568 q 567 605 518 569 q 651 692 617 640 q 704 797 686 743 q 722 892 722 851 q 708 944 722 931 q 674 958 693 958 q 595 904 632 958 q 524 762 558 850 q 456 568 490 674 z "},"M":{"ha":1079,"x_min":-18,"x_max":1054,"o":"m -18 -121 q 26 -22 -10 -101 q 122 188 63 58 q 258 488 182 318 q 424 854 335 657 q 433 880 429 865 q 438 908 438 894 q 428 932 438 922 q 393 942 419 942 q 297 903 335 942 q 240 810 258 865 q 222 699 222 754 q 223 674 222 686 q 226 649 224 661 q 179 667 197 649 q 153 715 161 686 q 144 767 144 743 q 169 853 144 811 q 235 928 194 894 q 324 981 275 963 q 419 1000 372 1000 q 501 974 468 1000 q 551 878 533 947 q 568 678 568 808 q 562 494 568 590 q 549 309 556 399 q 539 149 542 219 q 605 327 564 232 q 694 516 646 422 q 790 692 743 610 q 876 835 838 774 q 933 924 914 896 q 967 967 953 953 q 1004 982 981 982 q 1054 971 1024 982 q 1027 894 1044 946 q 992 768 1010 842 q 948 580 969 685 q 908 367 926 475 q 878 163 889 258 q 868 0 868 68 q 871 -50 868 -32 q 879 -83 874 -68 q 890 -121 885 -97 q 813 -105 840 -121 q 777 -53 786 -89 q 768 43 768 -17 q 808 388 768 204 q 900 767 847 571 q 817 636 860 714 q 731 469 774 558 q 650 292 689 381 q 582 129 611 204 q 536 4 553 54 q 523 0 526 1 q 513 -1 519 -1 q 459 48 471 -1 q 447 185 447 97 q 450 313 447 240 q 456 463 453 386 q 463 613 460 540 q 465 743 465 686 q 465 787 465 768 q 463 822 464 806 q 280 388 354 568 q 154 96 206 208 q 63 -69 103 -17 q -18 -121 22 -121 z "},"N":{"ha":904,"x_min":68,"x_max":942,"o":"m 68 -121 q 112 29 86 -53 q 173 224 138 111 q 255 492 208 336 q 363 858 301 647 q 369 881 365 864 q 372 914 372 899 q 368 935 372 928 q 353 942 364 942 q 292 917 321 942 q 241 854 263 892 q 208 776 219 817 q 196 703 196 735 q 204 649 196 672 q 133 672 154 649 q 113 731 113 696 q 140 826 113 778 q 212 913 168 874 q 304 976 256 953 q 393 1000 353 1000 q 466 965 438 1000 q 512 867 494 929 q 542 728 529 806 q 564 567 554 650 q 584 415 575 483 q 601 293 593 347 q 615 196 608 239 q 626 119 621 153 q 657 265 639 185 q 697 430 675 344 q 740 597 718 515 q 783 747 763 678 q 819 864 803 815 q 846 931 836 913 q 880 975 854 950 q 942 1000 906 1000 q 888 845 918 938 q 828 645 858 753 q 768 426 797 538 q 716 209 739 314 q 680 19 693 104 q 667 -121 667 -67 q 592 -96 621 -121 q 550 -6 563 -71 q 533 87 543 26 q 510 224 522 147 q 483 385 497 301 q 457 549 469 469 q 435 695 444 629 q 418 803 425 761 q 306 403 353 567 q 227 137 260 240 q 169 -22 194 33 q 119 -99 143 -78 q 68 -121 96 -121 z "},"O":{"ha":881,"x_min":35,"x_max":856,"o":"m 310 -121 q 167 -78 229 -121 q 70 42 106 -36 q 35 225 35 119 q 68 442 35 332 q 160 651 101 551 q 293 828 218 750 q 452 953 368 907 q 621 999 536 999 q 666 994 643 999 q 707 975 689 989 q 692 975 697 975 q 683 975 688 975 q 538 928 611 975 q 397 802 464 882 q 278 623 331 722 q 194 417 225 524 q 164 210 164 310 q 183 73 164 136 q 244 -28 201 10 q 353 -67 286 -67 q 498 -19 431 -67 q 620 108 565 28 q 715 287 675 188 q 775 491 754 386 q 796 693 796 596 q 790 777 796 732 q 772 855 785 822 q 733 888 758 888 q 681 856 710 888 q 625 778 651 825 q 578 681 599 732 q 549 592 557 631 q 492 619 510 600 q 475 664 475 639 q 501 747 475 701 q 567 834 526 792 q 652 903 608 876 q 733 931 696 931 q 794 903 771 931 q 832 833 818 876 q 851 741 846 790 q 856 650 856 692 q 822 380 856 501 q 729 165 788 258 q 599 8 671 72 q 453 -88 528 -56 q 310 -121 378 -121 z "},"P":{"ha":747,"x_min":32,"x_max":833,"o":"m 135 -121 q 65 -101 97 -121 q 32 -49 32 -81 q 39 -10 32 -32 q 51 29 46 11 q 134 281 96 164 q 211 507 172 397 q 293 726 250 617 q 390 956 336 836 q 297 926 338 944 q 233 894 257 908 q 199 881 208 881 q 182 888 193 881 q 162 905 171 894 q 153 924 153 915 q 240 957 190 939 q 349 988 290 975 q 467 1000 407 1000 q 594 983 529 1000 q 713 933 658 967 q 800 848 767 899 q 833 731 833 797 q 801 606 833 658 q 715 517 768 553 q 599 460 661 482 q 476 427 538 439 q 367 412 415 415 q 296 408 318 408 l 283 408 q 205 128 243 267 q 135 -121 167 -10 m 292 438 q 447 463 368 442 q 590 522 525 483 q 694 619 654 561 q 733 754 733 676 q 697 872 733 826 q 603 941 661 918 q 481 964 546 964 q 383 726 431 864 q 292 438 335 588 z "},"Q":{"ha":979,"x_min":53,"x_max":900,"o":"m 736 -165 q 617 -131 672 -165 q 510 -53 561 -96 q 441 -78 476 -69 q 368 -87 406 -87 q 287 -73 318 -87 q 240 -37 256 -58 q 217 3 224 -17 q 211 35 211 24 q 235 86 211 60 q 317 113 258 113 q 428 85 374 113 q 540 24 483 58 q 649 164 601 79 q 729 345 697 249 q 778 535 761 442 q 796 701 796 628 q 752 885 796 814 q 610 956 708 956 q 460 909 529 956 q 335 783 390 863 q 239 606 279 704 q 178 405 199 508 q 157 206 157 301 q 160 147 157 178 q 169 82 163 115 q 98 110 124 82 q 63 182 72 138 q 53 278 53 226 q 81 484 53 381 q 159 681 108 588 q 279 845 210 774 q 433 958 349 917 q 610 1000 517 1000 q 823 909 746 1000 q 900 660 900 818 q 877 480 900 574 q 812 296 854 386 q 713 128 769 206 q 589 -3 656 50 q 685 -46 635 -28 q 792 -64 736 -64 q 839 -58 824 -64 q 878 -46 854 -51 q 838 -123 863 -97 q 786 -157 813 -149 q 736 -165 760 -165 m 360 -51 q 420 -42 392 -51 q 474 -21 449 -33 q 389 43 431 15 q 303 71 347 71 q 260 58 272 71 q 249 31 249 44 q 258 -1 249 18 q 292 -36 268 -21 q 360 -51 315 -51 z "},"R":{"ha":819,"x_min":29,"x_max":826,"o":"m 664 -168 q 590 -131 632 -168 q 503 -33 549 -93 q 414 101 458 28 q 332 246 369 174 q 268 376 294 318 q 194 114 229 243 q 128 -121 158 -15 q 60 -101 90 -121 q 29 -49 29 -81 q 36 -12 29 -33 q 49 28 43 10 q 118 238 85 142 q 182 422 151 335 q 245 594 213 508 q 315 768 278 679 q 396 958 351 857 q 297 929 339 947 q 228 896 254 911 q 193 881 203 881 q 175 888 186 881 q 155 905 164 894 q 146 924 146 915 q 232 957 182 939 q 342 988 282 975 q 465 1000 401 1000 q 590 985 526 1000 q 706 940 653 971 q 793 858 760 908 q 826 738 826 808 q 796 622 826 671 q 715 539 765 572 q 606 485 665 506 q 488 454 546 465 q 381 440 429 443 q 306 436 332 436 q 389 294 349 363 q 476 158 429 226 q 587 22 524 90 q 739 -117 650 -46 q 707 -153 731 -139 q 664 -168 683 -168 m 293 464 q 446 489 369 469 q 585 544 522 508 q 687 635 649 581 q 725 767 725 690 q 689 884 725 842 q 596 945 653 926 q 476 964 539 964 q 383 738 429 869 q 293 464 338 607 z "},"S":{"ha":758,"x_min":-4,"x_max":700,"o":"m 296 -121 q 151 -94 219 -121 q 39 -10 82 -67 q -4 129 -4 46 q 26 244 -4 203 q 101 301 57 285 q 186 318 146 318 q 126 226 146 275 q 106 129 106 178 q 128 36 106 79 q 199 -33 151 -7 q 319 -60 247 -60 q 442 -37 382 -60 q 540 28 501 -15 q 578 138 578 72 q 547 238 578 196 q 466 314 515 281 q 362 378 417 347 q 258 442 307 408 q 177 522 208 476 q 146 629 146 567 q 174 751 146 688 q 254 872 201 815 q 381 965 307 929 q 544 1000 454 1000 q 665 960 631 1000 q 700 858 700 921 q 682 751 700 808 q 639 640 664 693 q 592 551 614 588 q 552 574 564 557 q 540 615 540 590 q 553 681 540 644 q 581 758 565 718 q 608 835 596 797 q 621 903 621 874 q 605 944 621 929 q 544 960 589 960 q 424 930 479 960 q 326 853 368 900 q 263 755 285 807 q 240 661 240 703 q 271 574 240 610 q 349 508 301 538 q 452 449 397 478 q 555 383 507 419 q 633 297 603 346 q 664 176 664 247 q 632 49 664 104 q 546 -44 600 -6 q 426 -101 492 -82 q 296 -121 361 -121 z "},"T":{"ha":704,"x_min":99,"x_max":839,"o":"m 281 -121 q 188 -92 214 -121 q 163 -19 163 -64 q 179 76 163 21 q 213 183 196 132 q 274 356 240 263 q 346 544 308 449 q 422 732 383 640 q 494 900 460 824 q 333 895 399 899 q 213 886 267 892 q 99 869 160 881 q 150 949 104 921 q 272 988 196 976 q 447 1000 349 1000 q 596 994 529 1000 q 722 983 663 989 q 839 974 781 976 q 813 935 836 943 q 751 926 789 926 q 694 908 726 913 q 628 901 663 903 q 563 900 594 900 q 454 599 511 771 q 343 228 397 428 q 309 103 324 157 q 287 3 294 49 q 279 -87 279 -42 q 279 -103 279 -94 q 281 -121 279 -111 z "},"U":{"ha":1001,"x_min":39,"x_max":1011,"o":"m 774 -137 q 690 -93 722 -137 q 657 13 657 -49 q 659 58 657 29 q 665 121 661 86 q 542 -53 615 14 q 367 -121 468 -121 q 228 -67 276 -121 q 181 75 181 -12 q 198 205 181 132 q 241 360 215 278 q 292 527 267 443 q 335 690 318 611 q 353 832 353 768 q 275 954 353 954 q 210 931 238 954 q 165 870 183 907 q 139 793 147 833 q 131 722 131 753 q 134 683 131 703 q 143 647 138 663 q 63 676 86 647 q 39 747 39 706 q 60 835 39 790 q 117 917 81 879 q 203 977 154 954 q 308 1000 253 1000 q 423 953 388 1000 q 458 828 458 906 q 446 715 458 776 q 414 585 433 653 q 372 451 394 518 q 315 256 340 347 q 290 94 290 165 q 317 -15 290 31 q 406 -60 343 -60 q 510 -23 463 -60 q 593 72 557 14 q 654 193 629 129 q 693 313 679 257 q 736 489 713 396 q 785 673 760 582 q 837 838 811 764 q 888 956 863 911 q 936 1000 913 1000 q 969 987 949 1000 q 1011 951 990 974 q 976 893 1000 943 q 924 765 953 843 q 865 592 894 686 q 811 401 836 499 q 771 215 786 304 q 756 60 756 126 q 783 -65 756 -33 q 874 -96 810 -96 q 823 -127 850 -117 q 774 -137 796 -137 z "},"V":{"ha":894,"x_min":39,"x_max":919,"o":"m 308 -121 q 258 -112 288 -121 q 206 -78 229 -103 q 183 -6 183 -53 q 201 100 183 36 q 244 243 218 164 q 296 410 269 322 q 339 590 322 499 q 356 769 356 682 q 351 863 356 821 q 329 929 347 904 q 272 954 311 954 q 208 932 235 954 q 165 875 182 910 q 140 801 147 840 q 132 728 132 763 q 136 685 132 706 q 147 649 140 665 q 64 679 89 649 q 39 751 39 710 q 59 838 39 794 q 115 919 79 882 q 199 978 151 956 q 299 1000 246 1000 q 432 932 388 1000 q 476 750 476 864 q 458 584 476 671 q 415 411 440 497 q 362 244 389 325 q 317 97 335 164 q 300 -19 300 29 q 307 -57 300 -43 q 336 -71 314 -71 q 427 -32 376 -71 q 533 74 478 7 q 640 226 588 142 q 733 403 692 311 q 799 584 775 494 q 824 749 824 674 q 801 854 824 819 q 742 900 779 889 q 785 953 761 936 q 829 969 810 969 q 890 928 861 969 q 919 807 919 888 q 891 633 919 731 q 814 432 863 536 q 702 229 765 328 q 570 52 639 131 q 434 -74 501 -26 q 308 -121 367 -121 z "},"W":{"ha":1281,"x_min":39,"x_max":1304,"o":"m 308 -121 q 272 -116 293 -121 q 231 -99 251 -111 q 197 -65 211 -87 q 183 -6 183 -43 q 204 110 183 39 q 256 283 225 182 q 303 441 281 361 q 341 603 326 521 q 356 768 356 686 q 351 863 356 821 q 329 931 347 906 q 272 956 311 956 q 208 934 235 956 q 165 878 182 913 q 140 806 149 844 q 132 732 132 767 q 147 649 132 681 q 64 679 89 649 q 39 751 39 710 q 59 838 39 794 q 115 919 79 882 q 198 978 151 956 q 297 1000 244 1000 q 431 932 386 1000 q 476 746 476 864 q 449 537 476 647 q 385 315 421 426 q 346 194 365 254 q 313 80 326 133 q 300 -19 300 26 q 308 -58 300 -46 q 338 -71 315 -71 q 416 -39 374 -71 q 501 49 458 -7 q 585 171 544 104 q 660 308 626 238 q 716 443 693 379 q 744 553 739 507 q 815 527 793 553 q 838 479 838 501 q 822 418 838 460 q 779 317 806 376 q 736 208 758 265 q 699 93 714 150 q 683 -15 683 36 q 690 -56 683 -42 q 722 -71 697 -71 q 812 -32 761 -71 q 917 75 863 7 q 1024 228 972 143 q 1118 405 1076 313 q 1184 586 1160 497 q 1208 749 1208 675 q 1185 853 1208 821 q 1126 897 1163 886 q 1172 949 1147 932 q 1215 965 1196 965 q 1274 926 1244 965 q 1304 806 1304 888 q 1276 634 1304 731 q 1199 433 1247 538 q 1087 230 1150 328 q 955 53 1024 132 q 817 -74 886 -26 q 689 -121 749 -121 q 632 -108 660 -121 q 586 -72 604 -96 q 568 -11 568 -47 q 574 36 568 8 q 592 96 581 64 q 449 -60 521 0 q 308 -121 376 -121 z "},"X":{"ha":940,"x_min":44,"x_max":932,"o":"m 44 -156 q 56 -100 49 -121 q 78 -61 64 -79 q 114 -21 93 -43 q 198 72 158 28 q 276 160 238 117 q 351 250 314 204 q 431 347 389 296 q 424 429 426 393 q 419 499 421 465 q 415 571 417 533 q 413 657 414 608 q 406 827 411 761 q 385 925 401 893 q 331 957 369 957 q 269 935 296 957 q 226 877 243 913 q 199 802 208 842 q 190 726 190 763 q 203 651 190 683 q 122 681 146 651 q 99 751 99 710 q 119 839 99 794 q 178 919 140 883 q 263 978 215 956 q 363 1001 310 1001 q 456 972 421 1001 q 508 891 490 942 q 531 774 525 840 q 537 635 536 708 q 539 490 538 563 q 726 772 649 640 q 847 1006 803 903 q 870 978 858 999 q 882 936 882 957 q 855 855 882 908 q 781 728 828 801 q 672 573 733 656 q 542 404 610 490 q 553 233 544 315 q 576 84 561 150 q 615 -21 592 18 q 672 -60 639 -60 q 775 19 715 -60 q 911 235 835 99 l 932 217 q 832 33 878 108 q 740 -80 786 -42 q 636 -118 693 -118 q 540 -81 578 -118 q 482 14 503 -44 q 451 141 461 72 q 436 272 440 210 q 276 85 354 172 q 138 -66 199 -3 q 44 -156 76 -129 z "},"Y":{"ha":943,"x_min":36,"x_max":1008,"o":"m 368 -260 q 231 -226 288 -260 q 174 -126 174 -192 q 197 -59 174 -89 q 265 -17 219 -29 q 256 -62 258 -43 q 253 -97 253 -82 q 283 -187 253 -154 q 375 -221 314 -221 q 469 -197 428 -221 q 542 -133 511 -172 q 594 -45 572 -93 q 632 51 617 3 q 657 142 647 100 q 685 281 671 201 q 717 435 699 360 q 589 271 661 335 q 419 207 517 207 q 297 255 333 207 q 261 376 261 303 q 275 492 261 429 q 307 619 289 556 q 340 743 325 683 q 354 849 354 803 q 337 924 354 893 q 276 954 319 954 q 210 931 238 954 q 164 872 182 908 q 137 794 146 835 q 128 719 128 754 q 131 681 128 699 q 142 647 135 664 q 60 677 83 647 q 36 747 36 707 q 57 835 36 790 q 115 917 78 879 q 201 977 153 954 q 307 1000 250 1000 q 393 978 360 1000 q 442 924 426 957 q 457 856 457 892 q 444 767 457 819 q 413 647 431 714 q 380 519 394 582 q 365 401 365 457 q 388 306 365 342 q 463 269 411 269 q 554 299 511 269 q 635 378 597 328 q 703 488 672 428 q 756 611 733 549 q 794 747 774 678 q 835 873 814 815 q 878 965 856 931 q 925 1000 901 1000 q 964 988 940 1000 q 1008 953 988 975 q 958 866 979 907 q 919 776 938 825 q 881 662 900 728 q 837 501 861 596 q 779 269 813 406 q 740 123 761 197 q 688 -19 718 49 q 614 -142 657 -87 q 510 -228 571 -196 q 368 -260 450 -260 z "},"Z":{"ha":899,"x_min":-26,"x_max":943,"o":"m 640 -121 q 528 -101 589 -121 q 406 -52 468 -81 q 286 1 344 -24 q 194 -54 239 -33 q 107 -75 149 -75 q 35 -57 64 -75 q -10 -12 6 -39 q -26 39 -26 14 q -2 92 -26 69 q 83 114 22 114 q 174 103 125 114 q 275 78 222 93 q 410 243 342 146 q 543 443 479 340 q 456 438 494 442 q 360 426 417 433 l 314 419 q 346 484 317 461 q 422 515 375 507 q 525 524 469 524 q 558 523 543 524 q 589 521 574 522 q 684 699 642 615 q 749 843 726 783 q 697 858 724 849 q 639 881 671 868 q 487 933 558 911 q 361 954 415 954 q 281 937 317 954 q 226 875 246 919 q 206 753 206 831 q 206 740 206 749 q 209 723 207 732 q 213 707 211 714 q 149 742 168 715 q 129 810 129 768 q 201 952 129 904 q 403 1000 274 1000 q 541 987 476 1000 q 665 956 606 974 q 779 924 724 938 q 890 911 835 911 q 918 913 904 911 q 943 915 932 914 q 901 881 919 894 q 868 860 883 868 q 792 699 838 789 q 690 513 746 608 q 770 504 735 508 q 840 500 806 500 q 803 464 822 475 q 749 450 783 453 q 650 446 714 447 q 505 233 582 335 q 350 57 428 131 q 530 6 440 29 q 688 -18 619 -18 q 744 -12 719 -18 q 794 7 769 -6 q 732 -92 769 -64 q 640 -121 694 -121 m 99 -35 q 156 -17 125 -35 q 222 29 188 0 q 136 60 176 47 q 65 72 96 72 q 24 63 35 72 q 13 39 13 53 q 36 -9 13 17 q 99 -35 60 -35 z "},"a":{"ha":610,"x_min":-36,"x_max":657,"o":"m 71 -65 q -5 -36 26 -65 q -36 53 -36 -7 q -14 159 -36 101 q 47 273 8 217 q 135 375 86 329 q 240 449 185 421 q 351 476 296 476 q 445 447 407 476 q 483 369 483 418 q 462 321 483 335 q 408 308 440 307 q 413 333 411 321 q 415 358 415 346 q 401 412 415 389 q 350 435 388 435 q 271 408 311 435 q 194 336 231 381 q 128 240 157 292 q 82 138 99 188 q 65 47 65 88 q 100 -4 65 -4 q 170 26 132 -4 q 248 103 208 57 q 324 200 288 150 q 388 289 360 250 q 396 297 392 297 q 417 292 403 296 q 442 279 431 288 q 453 258 453 271 q 441 224 453 246 q 413 176 429 203 q 385 121 397 149 q 374 69 374 93 q 384 30 374 49 q 418 11 394 11 q 515 65 454 11 q 639 231 576 118 l 657 213 q 581 80 626 138 q 483 -10 535 22 q 379 -42 431 -42 q 301 -9 326 -42 q 275 61 275 24 q 276 75 275 68 q 278 90 276 82 q 171 -26 219 14 q 71 -65 122 -65 z "},"b":{"ha":554,"x_min":-14,"x_max":604,"o":"m 135 -101 q 23 -53 60 -101 q -14 76 -14 -6 q 10 240 -14 146 q 72 437 33 333 q 159 638 111 540 q 256 816 207 736 q 348 944 304 896 q 421 992 392 992 q 458 962 446 992 q 469 901 469 932 q 453 807 469 863 q 406 688 436 751 q 335 564 375 625 q 247 453 294 503 q 151 374 200 403 q 126 310 142 357 q 99 203 111 264 q 86 85 86 143 q 103 -9 86 29 q 161 -47 119 -47 q 242 -14 200 -47 q 311 69 285 19 q 234 147 260 96 q 208 250 208 197 q 244 358 208 317 q 329 399 279 399 q 396 365 371 399 q 421 267 421 332 q 409 175 421 222 q 375 82 397 128 q 391 81 383 82 q 407 79 399 79 q 491 104 457 79 q 548 165 525 129 q 586 232 571 200 l 604 210 q 514 83 567 118 q 399 49 461 49 q 379 49 389 49 q 360 51 369 50 q 265 -57 321 -12 q 135 -101 210 -101 m 328 103 q 351 167 343 133 q 358 236 358 200 q 345 311 358 285 q 314 338 332 338 q 279 310 294 338 q 264 243 264 283 q 278 167 264 208 q 328 103 293 126 m 169 439 q 242 515 207 469 q 309 612 278 561 q 364 712 340 663 q 401 801 388 761 q 417 863 415 842 q 415 870 417 868 q 413 874 414 872 q 371 833 401 872 q 303 731 340 794 q 229 592 265 668 q 169 439 193 515 z "},"c":{"ha":453,"x_min":-7,"x_max":503,"o":"m 151 -78 q 38 -33 83 -78 q -7 101 -7 11 q 19 237 -7 171 q 90 355 46 303 q 190 438 135 407 q 299 469 244 469 q 378 438 356 469 q 400 368 400 406 q 381 297 400 329 q 331 264 363 264 q 290 286 307 264 q 324 328 308 297 q 339 394 339 360 q 333 417 339 408 q 310 425 326 425 q 234 392 274 425 q 161 308 194 360 q 107 199 128 257 q 86 93 86 142 q 106 16 86 51 q 186 -19 126 -19 q 297 11 240 -19 q 403 98 354 42 q 482 231 451 154 l 503 214 q 414 63 471 129 q 289 -40 357 -3 q 151 -78 221 -78 z "},"d":{"ha":665,"x_min":-22,"x_max":768,"o":"m 86 -42 q 37 -29 63 -42 q -6 10 11 -17 q -22 78 -22 36 q 0 181 -22 124 q 60 294 22 238 q 147 398 97 350 q 250 474 196 446 q 358 503 304 503 q 406 492 389 503 q 422 460 422 482 q 421 448 422 454 q 414 436 419 442 q 394 451 408 446 q 363 456 381 456 q 276 428 318 456 q 199 359 233 401 q 138 267 164 317 q 97 173 111 218 q 82 96 82 128 q 95 49 82 67 q 131 32 108 32 q 221 78 168 32 q 329 208 274 124 q 429 408 385 293 q 492 572 460 489 q 558 732 525 656 q 624 869 592 808 q 685 965 656 929 q 736 1000 714 1000 q 758 990 749 1000 q 768 965 768 981 q 745 889 768 942 q 686 763 722 836 q 609 603 650 689 q 532 427 568 517 q 473 253 496 338 q 450 97 450 168 q 455 43 450 60 q 481 26 460 26 q 549 51 510 26 q 626 121 588 75 q 694 232 665 167 l 715 215 q 641 86 688 143 q 542 -3 594 29 q 440 -36 489 -36 q 365 -1 386 -36 q 344 74 344 33 q 351 131 344 97 q 367 203 357 164 q 273 77 322 133 q 176 -10 224 21 q 86 -42 129 -42 z "},"e":{"ha":467,"x_min":-21,"x_max":517,"o":"m 154 -61 q 24 -14 68 -61 q -21 103 -21 33 q 10 233 -21 164 q 94 364 42 303 q 209 463 146 425 q 335 500 272 500 q 397 483 368 500 q 425 413 425 465 q 394 314 425 360 q 313 232 364 268 q 201 173 261 196 q 79 143 140 150 q 76 122 76 132 q 75 100 75 111 q 78 64 75 83 q 94 26 82 44 q 127 -3 106 8 q 183 -14 149 -14 q 301 19 243 -14 q 410 108 360 53 q 496 229 461 163 l 517 214 q 421 69 479 131 q 294 -27 363 7 q 154 -61 225 -61 m 89 178 q 172 211 126 188 q 261 267 218 235 q 332 340 304 300 q 360 422 360 379 q 354 444 360 438 q 332 451 349 451 q 263 427 300 451 q 192 363 226 403 q 131 274 158 322 q 89 178 103 226 z "},"f":{"ha":442,"x_min":-93,"x_max":556,"o":"m -12 -389 q -46 -380 -26 -389 q -79 -344 -65 -371 q -93 -262 -93 -317 q -73 -105 -93 -203 q -17 110 -53 -7 q 67 352 19 228 q 169 592 114 476 q 282 799 224 707 q 397 946 340 892 q 504 1000 453 1000 q 546 981 536 1000 q 556 936 556 961 q 523 806 556 876 q 436 663 490 735 q 316 527 382 592 q 182 417 250 463 q 169 385 175 401 q 157 351 164 368 q 181 335 172 349 q 192 306 190 321 q 213 196 201 244 q 247 120 224 147 q 313 93 269 93 q 396 128 361 93 q 469 229 431 164 l 494 213 q 401 89 456 128 q 306 50 347 50 q 255 62 282 50 q 204 93 228 74 q 185 -78 204 7 q 135 -234 167 -164 q 66 -347 104 -304 q -12 -389 28 -389 m 25 -315 q 59 -288 40 -315 q 96 -217 78 -261 q 128 -119 114 -172 q 152 -12 143 -65 q 161 83 161 40 q 151 159 161 125 q 117 239 140 193 q 56 43 83 138 q 15 -128 29 -51 q 0 -251 0 -204 q 25 -315 0 -315 m 210 488 q 363 650 299 569 q 461 794 426 731 q 496 883 496 857 q 479 900 496 900 q 399 844 443 900 q 306 694 354 788 q 210 488 257 601 z "},"g":{"ha":547,"x_min":-26,"x_max":596,"o":"m 58 -389 q 0 -369 26 -389 q -26 -306 -26 -350 q -1 -227 -26 -262 q 66 -162 25 -192 q 155 -107 107 -132 q 247 -60 203 -82 q 281 37 265 -15 q 313 150 297 89 q 205 32 261 79 q 92 -15 149 -15 q 10 23 39 -15 q -18 122 -18 61 q 17 260 -18 194 q 110 375 53 325 q 233 453 168 425 q 356 482 297 482 q 416 468 397 482 q 435 435 435 454 q 427 413 435 421 q 417 404 419 406 q 393 422 407 417 q 358 426 379 426 q 253 394 304 426 q 165 313 203 363 q 103 211 126 264 q 81 115 81 158 q 94 67 81 83 q 128 51 107 51 q 223 103 167 51 q 332 231 279 156 q 338 260 335 247 q 346 293 342 274 q 370 350 353 324 q 422 376 388 376 q 437 375 429 376 q 454 371 444 374 q 441 290 454 349 q 403 154 428 232 q 349 -6 379 76 q 438 49 393 15 q 518 129 482 83 q 575 229 554 175 l 596 211 q 528 97 574 149 q 429 7 482 44 q 332 -51 376 -31 q 251 -221 294 -144 q 160 -343 207 -297 q 58 -389 113 -389 m 54 -337 q 127 -285 81 -337 q 228 -107 174 -233 q 127 -162 174 -133 q 51 -224 81 -192 q 22 -293 22 -256 q 31 -326 22 -314 q 54 -337 40 -337 z "},"h":{"ha":669,"x_min":8,"x_max":719,"o":"m 65 -53 q 23 -8 38 -53 q 8 96 8 38 q 30 253 8 161 q 88 445 51 344 q 170 642 125 546 q 263 818 215 739 q 352 944 310 897 q 426 992 394 992 q 465 961 453 992 q 476 900 476 931 q 459 807 476 863 q 411 688 442 751 q 340 565 381 625 q 252 453 300 504 q 156 374 204 403 q 126 283 138 331 q 110 192 115 236 q 106 113 106 149 q 106 90 106 100 q 107 71 107 79 q 142 158 122 111 q 186 251 161 206 q 242 335 211 297 q 308 395 272 372 q 389 418 344 418 q 454 398 431 418 q 489 349 478 378 q 500 289 500 319 q 485 205 500 244 q 456 129 471 165 q 440 60 440 93 q 452 21 440 32 q 481 10 464 10 q 552 40 513 10 q 631 122 592 71 q 700 232 671 172 l 719 213 q 647 88 689 144 q 554 -1 604 32 q 447 -33 504 -33 q 373 -8 399 -33 q 347 57 347 18 q 358 122 347 86 q 380 195 369 158 q 390 264 390 232 q 375 314 390 300 q 338 328 360 328 q 275 301 303 328 q 225 230 247 274 q 183 138 203 186 q 144 46 163 89 q 106 -25 125 3 q 65 -53 88 -53 m 176 439 q 251 516 215 469 q 317 614 286 563 q 372 715 347 665 q 409 804 396 764 q 422 864 422 844 q 422 871 422 869 q 419 874 421 872 q 381 837 410 874 q 314 738 351 800 q 240 599 276 676 q 176 439 203 521 z "},"i":{"ha":336,"x_min":-8,"x_max":381,"o":"m 104 -37 q 19 -3 47 -37 q -8 81 -8 32 q 3 161 -8 113 q 35 263 15 210 q 80 364 54 317 q 135 441 106 411 q 194 471 165 471 q 218 463 208 471 q 228 438 228 454 q 206 383 228 421 q 156 298 185 346 q 106 197 128 250 q 85 97 85 144 q 101 33 85 49 q 150 17 117 17 q 251 64 197 17 q 365 229 306 111 l 381 213 q 263 28 338 93 q 104 -37 188 -37 m 269 594 q 227 606 246 594 q 208 643 208 618 q 243 696 208 674 q 313 718 278 718 q 349 708 335 718 q 364 672 364 699 q 334 620 364 646 q 269 594 304 594 z "},"j":{"ha":307,"x_min":-269,"x_max":356,"o":"m -192 -389 q -249 -368 -228 -389 q -269 -314 -269 -347 q -219 -203 -269 -262 q -93 -99 -169 -143 q -50 -76 -72 -86 q -1 -53 -28 -65 q 47 90 25 10 q 86 268 69 171 q 53 213 69 238 q 26 169 38 188 l 11 196 q 53 290 35 240 q 90 383 72 339 q 126 456 108 428 q 168 483 144 483 q 194 471 185 483 q 204 439 204 458 q 197 381 204 424 q 175 276 189 338 q 141 142 161 214 q 97 -4 121 69 q 177 44 138 18 q 256 111 217 69 q 335 222 296 153 l 356 210 q 270 78 318 126 q 173 2 222 29 q 81 -51 124 -25 q 8 -214 50 -136 q -83 -340 -33 -292 q -192 -389 -133 -389 m -206 -335 q -128 -278 -178 -335 q -25 -107 -78 -221 q -176 -210 -126 -157 q -226 -306 -226 -262 q -220 -328 -226 -322 q -206 -335 -214 -335 m 189 601 q 147 613 165 601 q 129 649 129 625 q 146 687 129 669 q 187 715 163 704 q 235 725 211 725 q 270 715 256 725 q 285 683 285 704 q 256 626 285 651 q 189 601 226 601 z "},"k":{"ha":626,"x_min":4,"x_max":672,"o":"m 422 -53 q 353 -26 382 -53 q 306 42 324 1 q 281 125 289 82 q 272 200 272 168 q 318 209 289 201 q 378 233 347 217 q 429 273 408 249 q 450 331 450 297 q 431 374 450 358 q 383 390 413 390 q 306 362 342 390 q 240 288 269 333 q 185 190 210 242 q 144 90 161 138 q 115 10 126 42 q 90 -32 104 -21 q 56 -43 75 -43 q 25 -28 36 -43 q 9 14 14 -14 q 4 79 4 42 q 28 252 4 156 q 91 451 51 349 q 178 650 131 554 q 273 824 225 746 q 362 947 321 901 q 429 992 403 992 q 463 965 450 992 q 476 897 476 938 q 456 792 476 850 q 397 674 435 733 q 306 561 358 614 q 192 471 253 508 q 125 266 147 367 q 101 94 103 165 q 156 215 125 151 q 227 338 188 279 q 313 433 267 396 q 411 469 360 469 q 502 432 464 469 q 540 342 540 394 q 517 267 540 297 q 462 217 494 236 q 397 188 429 197 q 342 178 364 179 q 351 136 344 165 q 372 77 358 107 q 404 26 385 47 q 451 4 424 4 q 526 35 489 4 q 596 118 563 67 q 657 233 629 169 l 672 217 q 611 86 651 147 q 522 -14 571 25 q 422 -53 472 -53 m 221 540 q 321 645 275 585 q 394 765 367 706 q 422 864 422 824 q 422 870 422 868 q 419 874 422 872 q 373 824 406 871 q 300 703 340 778 q 221 540 260 628 z "},"l":{"ha":332,"x_min":4,"x_max":489,"o":"m 117 -42 q 30 0 56 -42 q 4 103 4 42 q 29 261 4 169 q 95 454 54 353 q 185 652 136 556 q 283 827 233 749 q 373 953 332 906 q 439 1000 414 1000 q 466 982 456 1000 q 483 940 476 964 q 489 894 489 915 q 470 797 489 857 q 417 663 451 736 q 337 513 383 589 q 235 369 290 438 q 118 250 179 300 q 105 178 110 213 q 100 113 100 143 q 116 35 100 60 q 161 10 132 10 q 234 42 197 10 q 304 126 271 75 q 361 231 338 176 l 386 218 q 261 28 329 97 q 117 -42 193 -42 m 135 310 q 227 422 182 360 q 310 550 272 483 q 378 678 349 617 q 423 790 407 740 q 439 867 439 839 q 437 879 439 876 q 432 883 435 882 q 395 849 421 883 q 334 757 369 815 q 262 625 299 699 q 192 470 225 551 q 135 310 158 389 z "},"m":{"ha":904,"x_min":-49,"x_max":951,"o":"m 708 -43 q 635 -12 658 -43 q 611 61 611 18 q 622 128 611 94 q 642 195 632 163 q 651 253 651 228 q 640 290 651 279 q 614 300 629 300 q 539 248 581 300 q 433 99 497 196 q 394 31 411 65 q 364 -31 378 -4 q 334 -28 351 -31 q 303 -18 317 -25 q 289 0 289 -11 q 302 47 289 10 q 333 132 315 83 q 364 230 350 181 q 378 314 378 279 q 370 350 378 336 q 344 364 363 364 q 272 328 314 364 q 184 233 229 292 q 98 103 139 174 q 32 -37 57 33 q 0 -33 19 -37 q -34 -20 -19 -28 q -49 -6 -49 -12 q -35 40 -49 0 q -6 138 -22 81 q 26 256 11 196 q 44 360 42 315 q 72 383 51 372 q 113 393 93 393 q 143 382 132 393 q 154 353 154 371 q 145 299 154 336 q 124 214 136 261 q 186 301 151 257 q 258 381 221 344 q 334 439 296 417 q 408 461 372 461 q 471 428 454 461 q 488 351 488 394 q 482 291 488 322 q 468 232 476 260 q 451 183 460 204 q 513 276 479 232 q 588 347 547 319 q 672 375 628 375 q 738 347 719 375 q 757 281 757 318 q 744 203 757 244 q 719 122 732 161 q 707 56 707 83 q 715 25 707 39 q 746 11 724 11 q 819 47 785 11 q 883 133 853 82 q 933 231 913 183 l 951 207 q 894 92 929 150 q 813 -5 860 33 q 708 -43 767 -43 z "},"n":{"ha":650,"x_min":-53,"x_max":699,"o":"m 456 -28 q 378 -2 404 -28 q 353 64 353 24 q 363 124 353 92 q 383 189 374 156 q 393 253 393 222 q 378 303 393 289 q 340 317 363 317 q 253 282 297 317 q 167 193 208 247 q 90 82 126 139 q 26 -21 54 25 q -19 -12 3 -21 q -53 13 -40 -4 q -38 56 -53 19 q -4 143 -24 92 q 30 250 15 194 q 44 350 44 306 q 72 371 53 361 q 111 381 90 381 q 153 343 153 381 q 142 277 153 322 q 115 179 132 232 q 197 285 151 233 q 294 372 243 338 q 394 406 344 406 q 477 366 451 406 q 503 279 503 326 q 489 200 503 236 q 460 131 475 164 q 446 64 446 97 q 458 26 446 36 q 485 15 469 15 q 555 47 519 15 q 623 129 590 79 q 681 231 656 179 l 699 211 q 633 90 669 143 q 552 4 596 36 q 456 -28 508 -28 z "},"o":{"ha":510,"x_min":-15,"x_max":558,"o":"m 94 -44 q 9 -6 33 -44 q -15 83 -15 32 q -1 173 -15 126 q 36 260 13 219 q 89 324 60 300 q 147 349 118 349 q 165 347 156 349 q 181 340 174 344 q 149 295 167 325 q 117 228 132 265 q 92 155 101 192 q 82 92 82 118 q 95 35 82 54 q 132 17 108 17 q 199 48 160 17 q 275 124 238 79 q 214 209 235 158 q 193 319 193 260 q 208 399 193 360 q 255 463 224 438 q 333 489 286 489 q 413 458 392 489 q 433 381 433 426 q 407 261 433 326 q 340 136 381 196 q 389 125 363 125 q 439 134 411 125 q 494 165 467 143 q 539 226 522 188 l 558 211 q 478 115 529 143 q 381 86 428 86 q 346 90 363 86 q 314 99 329 93 q 208 -3 267 39 q 94 -44 150 -44 m 304 163 q 361 269 338 214 q 385 375 385 325 q 374 430 385 413 q 343 447 363 447 q 288 408 317 447 q 258 308 258 368 q 270 231 258 272 q 304 163 282 189 z "},"p":{"ha":553,"x_min":-132,"x_max":511,"o":"m -85 -389 q -107 -379 -96 -389 q -124 -358 -118 -369 q -132 -342 -131 -346 q -86 -202 -107 -262 q -47 -83 -65 -142 q -13 51 -29 -24 q 20 231 3 125 q 57 492 38 338 q 63 512 58 506 q 85 518 67 518 q 140 497 124 518 q 157 451 157 476 q 150 388 157 433 q 129 282 143 343 q 189 370 154 326 q 268 442 224 414 q 365 471 313 471 q 469 426 428 471 q 511 310 511 382 q 487 195 511 256 q 418 81 463 135 q 313 -6 374 28 q 179 -39 253 -39 q 117 -30 140 -39 q 93 -10 93 -21 q 103 -2 93 -3 q 128 -1 114 -1 q 238 26 186 0 q 330 97 290 53 q 392 193 369 140 q 414 296 414 246 q 395 371 414 340 q 335 401 376 401 q 265 379 300 401 q 198 322 229 357 q 142 249 167 286 q 106 182 118 211 q 57 -13 81 82 q 11 -186 33 -108 q -30 -315 -11 -264 q -65 -381 -49 -367 q -85 -389 -74 -389 z "},"q":{"ha":564,"x_min":-21,"x_max":613,"o":"m 279 -389 q 244 -367 260 -389 q 228 -285 228 -346 q 237 -168 228 -237 q 263 -21 246 -99 q 303 126 281 57 q 192 3 247 51 q 88 -44 138 -44 q 39 -32 64 -44 q -3 7 14 -19 q -21 78 -21 33 q 2 183 -21 126 q 64 294 25 239 q 153 395 103 350 q 260 468 204 440 q 374 496 317 496 q 456 476 422 496 q 489 425 489 456 q 483 399 489 413 q 464 378 476 385 q 439 375 456 372 q 420 426 439 406 q 361 447 401 447 q 272 421 314 447 q 197 353 231 394 q 137 263 163 311 q 97 169 111 214 q 83 93 83 125 q 96 46 83 64 q 131 28 108 28 q 190 54 158 28 q 255 124 221 81 q 323 218 289 167 q 389 319 357 269 q 409 344 400 336 q 428 360 418 353 q 456 364 440 367 q 476 356 471 361 q 485 335 485 347 q 463 273 485 310 q 412 180 440 236 q 364 40 383 124 q 482 87 422 46 q 593 228 542 128 l 613 210 q 497 59 565 106 q 361 4 428 13 q 378 -69 372 -31 q 385 -149 385 -108 q 372 -269 385 -215 q 334 -356 358 -324 q 279 -389 310 -389 m 314 -308 q 331 -283 325 -308 q 341 -217 338 -257 q 344 -137 344 -176 q 343 -90 344 -111 q 338 -47 342 -68 q 313 -173 321 -114 q 306 -272 306 -232 q 308 -299 306 -290 q 314 -308 310 -308 z "},"r":{"ha":490,"x_min":1,"x_max":543,"o":"m 246 -36 q 169 -10 197 -36 q 140 57 140 15 q 160 144 140 99 q 198 233 179 189 q 217 313 217 278 q 193 374 217 353 q 142 413 169 396 q 75 260 111 333 q 17 149 39 188 l 1 178 q 52 283 21 214 q 114 438 83 351 q 100 472 100 451 q 123 540 100 513 q 160 568 146 568 q 180 553 176 568 q 183 532 183 539 q 176 506 183 525 q 168 481 169 486 q 191 447 169 463 q 241 411 213 431 q 291 363 269 392 q 313 289 313 333 q 295 206 313 249 q 260 125 278 163 q 243 58 243 88 q 255 28 243 36 q 282 21 267 21 q 351 41 315 21 q 420 93 386 61 q 481 160 454 125 q 519 226 507 196 l 543 208 q 469 93 517 150 q 365 0 422 36 q 246 -36 307 -36 z "},"s":{"ha":482,"x_min":-28,"x_max":526,"o":"m 151 -71 q 45 -42 85 -71 q -11 28 6 -14 q -28 114 -28 71 q -17 178 -28 156 q 10 210 -6 200 q 41 226 26 221 q 63 239 56 232 q 137 330 101 281 q 199 436 172 379 l 199 451 q 217 526 199 504 q 256 549 235 549 q 274 542 268 549 q 282 528 281 536 q 278 506 282 519 q 274 469 274 492 q 292 372 274 425 q 330 259 311 318 q 349 136 349 200 q 347 103 349 119 q 342 72 344 86 q 431 117 388 82 q 513 229 474 153 l 526 215 q 448 97 500 139 q 332 43 396 54 q 261 -43 310 -15 q 151 -71 213 -71 m 150 -18 q 197 -6 171 -18 q 238 46 224 6 q 135 91 181 57 q 67 158 89 125 q 39 114 39 157 q 68 24 39 65 q 150 -18 97 -18 m 246 74 q 250 101 249 86 q 251 132 251 115 q 235 260 251 196 q 207 382 219 324 q 143 285 178 333 q 76 204 108 236 q 142 125 99 163 q 246 74 185 88 z "},"t":{"ha":397,"x_min":-7,"x_max":447,"o":"m 121 -64 q 27 -28 61 -64 q -7 76 -7 7 q 15 224 -7 136 q 72 406 38 313 q 47 410 60 408 q 22 417 35 413 l 22 447 q 53 444 38 446 q 86 442 68 443 q 149 586 115 517 q 215 710 182 656 q 278 797 249 765 q 331 829 308 829 q 352 821 342 829 q 363 796 363 813 q 333 718 363 771 q 262 593 304 665 q 179 438 219 521 q 204 438 192 438 q 228 438 217 438 q 329 439 279 438 q 431 446 379 440 l 431 414 q 293 403 354 407 q 181 397 232 399 q 171 397 175 397 q 161 397 167 397 q 108 251 131 326 q 86 103 86 175 q 104 19 86 44 q 163 -6 122 -6 q 305 58 235 -6 q 429 231 375 121 l 447 217 q 361 74 413 138 q 248 -27 310 10 q 121 -64 186 -64 z "},"u":{"ha":610,"x_min":0,"x_max":658,"o":"m 104 -42 q 28 1 57 -42 q 0 100 0 44 q 13 193 0 140 q 45 297 25 246 q 86 381 65 347 q 124 414 107 414 q 149 406 131 414 q 179 383 167 397 q 142 313 164 360 q 103 210 119 265 q 86 110 86 156 q 89 78 86 100 q 102 38 92 56 q 133 19 113 19 q 187 47 160 19 q 242 116 214 74 q 298 207 271 158 q 347 301 325 256 q 385 378 369 347 q 412 372 394 376 q 443 359 429 367 q 457 338 457 351 q 443 301 457 332 q 411 227 429 271 q 379 138 393 183 q 365 58 365 93 q 375 20 365 35 q 408 6 385 6 q 478 32 438 6 q 563 108 519 58 q 639 229 606 158 l 658 215 q 581 82 629 140 q 480 -9 533 24 q 375 -42 426 -42 q 317 -26 338 -42 q 288 15 296 -11 q 278 69 279 40 q 280 97 278 83 q 285 125 282 111 q 231 44 260 82 q 171 -18 203 6 q 104 -42 139 -42 z "},"v":{"ha":567,"x_min":13,"x_max":614,"o":"m 94 -54 q 31 -10 49 -54 q 13 103 13 33 q 14 151 13 110 q 21 279 15 192 q 28 333 22 318 q 68 347 35 347 q 101 337 94 347 q 107 296 107 326 q 101 194 107 251 q 96 86 96 138 q 102 26 96 44 q 126 7 108 7 q 181 35 151 7 q 242 108 211 63 q 301 204 274 153 q 351 304 329 256 q 372 430 354 399 q 418 461 390 461 q 459 441 447 461 q 471 406 471 421 q 460 368 471 386 q 436 318 449 350 q 424 224 424 286 q 428 178 424 203 q 446 138 432 154 q 488 121 460 121 q 543 144 517 121 q 597 224 569 167 l 614 211 q 545 113 583 139 q 474 88 507 88 q 398 122 428 88 q 356 219 368 156 q 278 92 322 154 q 187 -12 235 29 q 94 -54 139 -54 z "},"w":{"ha":864,"x_min":0,"x_max":913,"o":"m 396 -54 q 335 -14 351 -54 q 318 82 319 26 q 322 138 319 107 q 326 197 324 169 q 261 84 296 139 q 188 -6 226 29 q 106 -42 149 -42 q 29 0 58 -42 q 0 100 0 42 q 13 193 0 140 q 46 297 26 246 q 86 381 65 347 q 124 414 107 414 q 153 406 131 414 q 179 382 176 397 q 142 312 164 360 q 103 209 119 264 q 86 110 86 154 q 89 77 86 99 q 102 38 92 56 q 133 19 113 19 q 201 59 165 19 q 272 158 236 99 q 339 279 307 218 q 358 364 350 338 q 374 398 365 390 q 396 406 383 406 q 428 397 417 406 q 440 371 440 388 q 439 363 440 369 q 436 353 438 357 q 419 274 428 321 q 406 174 411 226 q 400 75 400 122 q 406 25 400 43 q 429 7 413 7 q 477 32 450 7 q 533 98 504 57 q 590 188 563 139 q 640 285 618 236 q 651 395 640 357 q 678 447 661 433 q 713 461 694 461 q 754 441 742 461 q 767 406 767 421 q 761 384 767 394 q 750 361 756 374 q 728 309 739 340 q 718 225 718 278 q 723 178 718 203 q 741 137 728 153 q 782 121 754 121 q 837 143 810 121 q 892 224 864 165 l 913 208 q 844 113 882 138 q 772 88 807 88 q 697 118 728 88 q 651 204 667 149 q 574 82 617 142 q 486 -16 532 22 q 396 -54 440 -54 z "},"x":{"ha":586,"x_min":13,"x_max":633,"o":"m 67 -82 q 53 -75 58 -82 q 49 -58 49 -68 q 78 1 49 -42 q 153 101 107 43 q 254 218 200 158 q 236 328 247 283 q 193 372 225 372 q 135 342 161 372 q 83 267 108 313 q 29 174 58 222 l 13 201 q 49 278 32 238 q 88 353 67 318 q 140 410 110 388 q 217 432 171 432 q 297 396 271 432 q 336 304 324 360 q 452 416 400 371 q 524 461 504 461 q 545 456 531 461 q 561 439 560 450 q 512 413 546 439 q 435 342 478 386 q 344 244 392 299 q 352 172 349 211 q 362 97 356 132 q 382 41 368 63 q 421 19 396 19 q 474 40 446 19 q 530 94 503 61 q 580 163 557 126 q 617 228 603 199 l 633 213 q 572 94 613 151 q 483 1 532 38 q 383 -36 433 -36 q 319 -10 343 -36 q 282 59 294 17 q 263 147 269 101 q 158 20 206 81 q 85 -71 110 -40 q 67 -82 76 -82 z "},"y":{"ha":546,"x_min":-28,"x_max":593,"o":"m 63 -389 q 0 -369 28 -389 q -28 -310 -28 -350 q -4 -231 -28 -265 q 58 -166 19 -196 q 146 -110 97 -136 q 244 -61 194 -85 q 282 50 263 -12 q 318 181 301 113 q 224 63 274 113 q 117 13 174 13 q 64 24 90 13 q 20 61 38 36 q 3 126 3 86 q 16 215 3 164 q 49 316 29 267 q 90 397 68 365 q 126 429 111 429 q 149 424 133 429 q 178 411 164 419 q 193 393 192 403 q 165 342 181 375 q 135 269 150 310 q 111 192 121 229 q 101 126 101 154 q 112 88 101 103 q 149 72 122 72 q 209 98 176 72 q 274 163 242 124 q 333 247 306 203 q 340 278 336 260 q 347 314 343 296 q 369 358 353 335 q 419 382 385 382 q 435 381 428 382 q 453 378 443 381 q 440 295 453 356 q 402 155 426 235 q 346 -8 378 75 q 472 73 408 17 q 574 228 535 129 l 593 211 q 530 94 572 144 q 435 8 488 44 q 329 -51 382 -28 q 250 -217 293 -140 q 160 -342 207 -294 q 63 -389 113 -389 m 53 -342 q 124 -287 75 -342 q 226 -103 172 -232 q 126 -160 174 -131 q 49 -225 78 -190 q 19 -301 19 -260 q 27 -328 19 -314 q 53 -342 35 -342 z "},"z":{"ha":447,"x_min":-97,"x_max":490,"o":"m -1 -389 q -72 -372 -46 -389 q -97 -315 -97 -356 q -67 -231 -97 -269 q 13 -159 -37 -193 q 124 -90 63 -125 q 246 -14 185 -54 q 222 76 244 35 q 143 161 200 117 q 228 209 193 175 q 282 285 264 243 q 300 361 300 326 q 287 412 300 392 q 244 432 274 432 q 164 397 200 432 q 97 306 128 363 q 33 181 65 249 l 14 197 q 78 347 44 281 q 156 451 111 413 q 264 490 201 490 q 351 459 315 490 q 388 372 388 428 q 365 283 388 325 q 305 207 342 240 q 225 153 268 174 q 283 95 260 126 q 321 32 307 64 q 413 119 372 71 q 475 226 454 167 l 490 208 q 428 94 471 146 q 331 1 386 43 q 335 -20 333 -8 q 336 -44 336 -32 q 308 -167 336 -106 q 233 -279 281 -229 q 125 -359 185 -329 q -1 -389 65 -389 m -14 -344 q 51 -325 11 -344 q 133 -268 92 -306 q 205 -177 174 -231 q 243 -54 236 -124 q 136 -118 189 -87 q 40 -178 83 -149 q -29 -238 -3 -208 q -56 -301 -56 -268 q -43 -334 -56 -324 q -14 -344 -31 -344 z "},"!":{"ha":378,"x_min":-19,"x_max":481,"o":"m 139 407 q 196 551 165 472 q 260 710 226 631 q 326 855 293 789 q 391 960 360 921 q 449 1000 422 1000 q 471 990 461 1000 q 481 965 481 981 q 459 892 481 946 q 403 762 438 838 q 324 600 368 686 q 235 428 281 514 q 147 267 189 342 q 71 143 104 193 q 67 145 68 144 q 63 147 65 146 q 86 251 72 201 q 115 340 100 300 q 139 407 129 381 m 29 -14 q -5 -4 10 -14 q -19 26 -19 6 q 8 69 -19 51 q 64 86 36 86 q 93 78 82 86 q 104 50 104 71 q 81 7 104 28 q 29 -14 58 -14 z "},"":{"ha":382,"x_min":-101,"x_max":399,"o":"m -69 -347 q -92 -337 -82 -347 q -101 -312 -101 -328 q -80 -240 -101 -293 q -24 -110 -58 -186 q 55 53 11 -33 q 144 225 99 139 q 233 385 190 311 q 308 510 275 460 q 313 508 311 508 q 317 506 314 507 q 294 402 308 451 q 265 313 279 353 q 240 246 250 272 q 184 101 215 181 q 119 -57 153 22 q 53 -202 86 -136 q -12 -308 19 -268 q -69 -347 -43 -347 m 315 567 q 286 574 297 567 q 275 603 275 582 q 299 645 275 624 q 350 667 322 667 q 384 657 369 667 q 399 625 399 647 q 372 584 399 601 q 315 567 344 567 z "},"?":{"ha":618,"x_min":154,"x_max":646,"o":"m 339 169 q 300 198 310 185 q 290 239 290 211 q 317 360 290 306 q 384 463 344 414 q 463 561 424 511 q 528 669 501 611 q 556 800 556 728 q 524 916 556 876 q 446 956 493 956 q 350 917 399 956 q 270 813 301 878 q 239 667 239 747 q 242 624 239 643 q 250 583 244 606 q 173 621 192 592 q 154 693 154 650 q 192 842 154 772 q 296 956 229 913 q 451 1000 363 1000 q 593 952 540 1000 q 646 813 646 904 q 624 704 646 751 q 569 616 603 657 q 497 533 535 575 q 426 442 458 492 q 374 329 393 393 q 357 245 360 282 q 339 169 354 208 m 281 -14 q 247 -4 261 -14 q 232 25 232 6 q 260 69 232 51 q 317 86 289 86 q 346 78 335 86 q 357 53 357 69 q 333 7 357 28 q 281 -14 310 -14 z "},"":{"ha":586,"x_min":-65,"x_max":426,"o":"m 129 -389 q -12 -344 40 -389 q -65 -215 -65 -300 q -44 -118 -65 -160 q 13 -40 -22 -76 q 85 33 47 -4 q 156 113 124 69 q 207 214 189 157 q 224 292 221 258 q 242 363 228 326 q 281 336 272 349 q 290 297 290 324 q 263 191 290 239 q 197 99 236 143 q 119 11 158 56 q 52 -85 79 -33 q 25 -201 25 -136 q 56 -310 25 -274 q 135 -347 88 -347 q 231 -311 183 -347 q 310 -214 279 -275 q 342 -78 342 -153 q 339 -39 342 -57 q 331 0 336 -21 q 408 -35 389 -7 q 426 -103 426 -62 q 389 -242 426 -176 q 285 -348 351 -307 q 129 -389 218 -389 m 261 446 q 232 454 243 446 q 221 479 221 463 q 245 525 221 504 q 297 546 269 546 q 331 536 317 546 q 346 507 346 526 q 318 463 346 481 q 261 446 290 446 z "},",":{"ha":282,"x_min":-7,"x_max":117,"o":"m 21 -122 q 0 -99 7 -114 q -7 -68 -7 -85 q 6 -6 -7 -40 q 38 54 18 29 q 79 79 57 79 q 106 67 94 79 q 117 38 117 54 q 61 -40 79 -1 q 21 -122 43 -78 z "},".":{"ha":310,"x_min":21,"x_max":143,"o":"m 71 -14 q 34 -2 47 -14 q 21 29 21 10 q 33 59 21 44 q 65 83 46 74 q 103 92 85 92 q 131 84 119 92 q 143 54 143 76 q 133 26 143 42 q 107 -2 124 10 q 71 -14 90 -14 z "},":":{"ha":317,"x_min":24,"x_max":229,"o":"m 154 328 q 120 338 135 328 q 106 368 106 347 q 133 410 106 393 q 189 428 161 428 q 218 420 207 428 q 229 392 229 413 q 206 349 229 369 q 154 328 182 328 m 72 -14 q 39 -4 54 -14 q 24 26 24 6 q 51 69 24 51 q 108 86 79 86 q 137 78 126 86 q 147 50 147 71 q 124 7 147 28 q 72 -14 101 -14 z "},";":{"ha":313,"x_min":11,"x_max":229,"o":"m 40 -122 q 18 -99 25 -114 q 11 -67 11 -85 q 24 -3 11 -39 q 58 58 38 32 q 99 83 78 83 q 126 71 114 83 q 139 42 138 58 q 81 -37 101 1 q 40 -122 61 -76 m 154 328 q 120 338 135 328 q 106 369 106 347 q 133 411 106 393 q 189 429 161 429 q 218 421 207 429 q 229 392 229 413 q 206 349 229 371 q 154 328 183 328 z "},"":{"ha":742,"x_min":21,"x_max":574,"o":"m 501 -14 q 465 -2 478 -14 q 451 29 451 10 q 465 59 451 44 q 497 83 478 74 q 535 92 517 92 q 562 84 550 92 q 574 54 574 76 q 564 26 574 42 q 538 -2 554 10 q 501 -14 521 -14 m 71 -14 q 34 -2 47 -14 q 21 29 21 10 q 33 59 21 44 q 65 83 46 74 q 103 92 85 92 q 131 84 119 92 q 143 54 143 76 q 133 26 143 42 q 107 -2 124 10 q 71 -14 90 -14 m 283 -14 q 247 -2 261 -14 q 233 29 233 10 q 247 59 233 44 q 279 83 260 74 q 317 92 299 92 q 344 84 333 92 q 356 54 356 76 q 346 26 356 42 q 320 -2 336 10 q 283 -14 304 -14 z "},"":{"ha":306,"x_min":63,"x_max":185,"o":"m 111 168 q 75 180 88 168 q 63 210 63 192 q 76 240 63 225 q 108 263 89 254 q 146 271 128 271 q 173 264 161 271 q 185 235 185 257 q 174 207 185 222 q 147 180 164 192 q 111 168 131 168 z "},"-":{"ha":683,"x_min":58,"x_max":563,"o":"m 58 199 q 93 238 68 224 q 153 260 118 253 q 228 271 188 268 q 307 274 268 274 q 376 272 339 274 q 449 269 413 271 q 517 265 486 267 q 563 263 547 264 q 474 219 522 228 q 374 210 425 210 q 299 211 339 210 q 222 213 260 213 q 167 210 196 213 q 110 206 138 208 q 58 199 83 203 z "},"'":{"ha":188,"x_min":192,"x_max":315,"o":"m 219 800 q 198 823 204 808 q 192 854 192 838 q 204 917 192 883 q 236 976 217 951 q 276 1001 256 1001 q 303 989 292 1001 q 315 958 315 976 q 256 878 279 921 q 219 800 233 836 z "},"\"":{"ha":351,"x_min":192,"x_max":479,"o":"m 383 800 q 362 823 368 808 q 356 854 356 838 q 368 917 356 883 q 400 976 381 951 q 440 1001 419 1001 q 467 989 456 1001 q 479 958 479 976 q 422 880 443 921 q 383 800 400 839 m 219 800 q 198 823 204 808 q 192 854 192 838 q 204 917 192 883 q 236 976 217 951 q 276 1001 256 1001 q 303 989 292 1001 q 315 958 315 976 q 258 880 279 921 q 219 800 236 839 z "},"":{"ha":218,"x_min":185,"x_max":317,"o":"m 283 799 q 243 855 267 825 q 202 913 219 885 q 185 960 185 942 q 197 989 185 976 q 225 1001 210 1001 q 255 947 233 976 q 297 890 276 917 q 317 843 317 863 q 306 818 317 829 q 283 799 296 807 z "},"":{"ha":192,"x_min":181,"x_max":313,"o":"m 214 797 q 192 817 203 806 q 181 843 181 829 q 201 890 181 863 q 242 947 221 917 q 272 1001 264 976 q 300 988 288 1001 q 313 958 313 975 q 295 913 313 940 q 255 854 278 885 q 214 797 232 824 z "},"":{"ha":282,"x_min":-7,"x_max":117,"o":"m 21 -122 q 0 -99 7 -114 q -7 -68 -7 -85 q 6 -6 -7 -40 q 38 54 18 29 q 79 79 57 79 q 106 67 94 79 q 117 38 117 54 q 61 -40 79 -1 q 21 -122 43 -78 z "},"":{"ha":376,"x_min":185,"x_max":475,"o":"m 442 799 q 402 855 425 825 q 362 913 379 885 q 344 960 344 942 q 357 989 344 976 q 385 1001 369 1001 q 413 947 392 976 q 455 890 435 917 q 475 843 475 863 q 465 818 475 829 q 442 799 456 807 m 283 799 q 243 855 267 825 q 202 913 219 885 q 185 960 185 942 q 197 989 185 976 q 225 1001 210 1001 q 255 947 233 976 q 297 890 276 917 q 317 843 317 863 q 306 818 317 829 q 283 799 296 807 z "},"":{"ha":351,"x_min":182,"x_max":472,"o":"m 374 799 q 351 818 363 807 q 340 843 340 829 q 360 890 340 863 q 402 947 381 917 q 432 1001 424 976 q 460 989 447 1001 q 472 960 472 976 q 455 913 472 942 q 415 855 438 885 q 374 799 392 825 m 215 799 q 192 818 203 807 q 182 843 182 829 q 201 890 182 863 q 243 947 221 917 q 272 1001 265 976 q 300 989 288 1001 q 313 960 313 976 q 295 913 313 942 q 255 855 278 885 q 215 799 232 825 z "},"":{"ha":435,"x_min":-7,"x_max":269,"o":"m 174 -122 q 153 -99 160 -114 q 146 -68 146 -85 q 158 -6 146 -40 q 190 54 171 29 q 232 79 210 79 q 258 67 247 79 q 269 38 269 54 q 214 -40 232 -1 q 174 -122 196 -78 m 21 -122 q 0 -99 7 -114 q -7 -68 -7 -85 q 6 -6 -7 -40 q 38 54 18 29 q 79 79 57 79 q 106 67 94 79 q 117 38 117 54 q 61 -40 79 -1 q 21 -122 43 -78 z "},"(":{"ha":375,"x_min":89,"x_max":519,"o":"m 214 -121 q 150 -44 179 -100 q 105 93 121 13 q 89 264 89 174 q 121 510 89 397 q 203 714 153 624 q 313 868 254 804 q 426 966 371 932 q 519 1000 481 1000 q 363 844 428 933 q 256 653 297 756 q 196 443 215 550 q 176 233 176 336 q 195 45 176 128 q 246 -87 214 -37 q 231 -109 239 -101 q 214 -121 224 -117 z "},")":{"ha":394,"x_min":-72,"x_max":365,"o":"m -36 -121 q -57 -107 -47 -119 q -72 -83 -67 -94 q 108 91 26 -15 q 238 338 189 197 q 288 650 288 479 q 267 825 288 738 q 181 1003 247 913 q 264 942 221 992 q 336 806 307 892 q 365 603 365 721 q 334 368 365 478 q 253 169 303 258 q 149 14 204 79 q 44 -86 93 -51 q -36 -121 -6 -121 z "},"[":{"ha":567,"x_min":49,"x_max":633,"o":"m 289 -121 q 198 -116 246 -121 q 110 -103 150 -111 q 49 -92 71 -96 q 56 -77 53 -86 q 65 -44 60 -68 q 81 28 71 -21 q 106 162 90 78 q 146 375 122 246 q 204 690 169 504 q 257 871 225 810 q 324 954 289 932 q 388 976 358 976 q 433 974 406 976 q 489 972 460 972 q 564 978 526 972 q 633 1003 601 985 q 609 923 631 949 q 555 890 588 897 q 483 883 522 883 q 409 892 447 883 q 333 906 371 900 q 294 767 314 849 q 257 592 275 686 q 222 404 239 499 q 190 223 206 310 q 162 69 175 136 q 138 -37 149 1 q 262 -36 213 -37 q 347 -32 311 -35 q 411 -24 382 -29 q 474 -8 440 -18 q 426 -93 469 -65 q 289 -121 383 -121 z "},"]":{"ha":592,"x_min":-7,"x_max":576,"o":"m -7 -122 q 19 -58 -3 -81 q 74 -27 40 -36 q 146 -18 108 -18 q 228 -22 182 -18 q 317 -29 275 -26 q 364 137 340 38 q 410 350 388 236 q 453 576 433 464 q 492 781 474 688 q 524 931 510 874 l 433 931 q 290 925 358 931 q 156 901 222 919 q 203 983 156 965 q 335 1001 251 1001 q 453 994 392 1001 q 576 972 514 986 q 566 898 574 950 q 547 774 558 846 q 524 622 536 703 q 497 459 511 540 q 471 307 483 378 q 449 185 458 236 q 431 106 443 153 q 399 12 419 58 q 347 -66 379 -35 q 267 -97 315 -97 q 121 -101 193 -97 q -7 -122 49 -104 z "},"{":{"ha":382,"x_min":63,"x_max":449,"o":"m 160 -121 q 83 -92 104 -121 q 63 -26 63 -62 q 78 53 63 10 q 114 144 93 97 q 150 237 135 190 q 165 325 165 283 q 155 399 165 364 q 108 463 144 435 q 185 506 160 468 q 220 601 210 544 q 235 721 231 658 q 244 823 239 774 q 263 913 250 872 q 301 976 276 953 q 371 1000 326 1000 q 407 993 389 1000 q 437 969 425 986 q 447 919 449 951 q 419 934 431 929 q 399 939 408 939 q 353 903 369 939 q 328 812 338 868 q 313 694 319 756 q 295 581 306 635 q 267 492 285 528 q 215 450 249 457 q 242 409 233 431 q 250 354 250 388 q 234 238 250 292 q 197 136 218 183 q 161 46 176 89 q 146 -39 146 3 q 156 -69 146 -57 q 190 -81 167 -81 q 228 -68 211 -81 q 205 -110 226 -100 q 160 -121 183 -121 z "},"}":{"ha":376,"x_min":-17,"x_max":382,"o":"m 65 -121 q 28 -114 47 -121 q -3 -88 10 -107 q -17 -37 -15 -69 q 35 -57 13 -57 q 79 -22 63 -57 q 106 68 96 14 q 122 182 115 122 q 140 304 129 243 q 170 414 150 365 q 228 483 190 463 q 201 530 208 504 q 194 581 194 556 q 209 674 194 625 q 243 772 224 724 q 277 861 263 821 q 292 928 292 901 q 287 945 292 939 q 271 951 282 951 q 251 947 264 951 q 222 931 239 942 q 248 981 222 958 q 317 1004 274 1004 q 365 990 347 1004 q 382 951 382 975 q 367 886 382 925 q 331 800 351 847 q 296 701 311 753 q 281 603 281 650 q 290 530 281 567 q 335 469 300 493 q 256 414 283 457 q 219 310 229 371 q 203 185 208 250 q 192 74 199 128 q 174 -25 186 19 q 137 -95 163 -69 q 65 -121 111 -121 z "},"&":{"ha":882,"x_min":6,"x_max":911,"o":"m 285 -121 q 137 -86 200 -121 q 40 7 74 -51 q 6 133 6 65 q 33 258 6 197 q 108 369 60 318 q 222 453 157 419 q 363 494 288 486 q 285 596 311 539 q 260 710 260 653 q 297 850 260 783 q 401 958 335 917 q 551 999 467 999 q 669 960 629 999 q 710 849 710 922 q 692 747 710 797 q 650 666 675 697 q 601 635 625 635 q 569 649 585 635 q 544 683 554 664 q 627 772 594 725 q 660 871 660 818 q 638 938 660 913 q 567 964 615 964 q 458 926 501 964 q 391 825 414 888 q 368 690 368 763 q 374 619 368 657 q 400 544 381 582 q 456 475 419 507 q 290 405 361 460 q 181 276 219 350 q 142 131 142 203 q 159 40 142 86 q 216 -36 176 -6 q 321 -67 256 -67 q 463 -31 394 -67 q 588 67 532 6 q 681 206 644 129 q 726 364 717 282 q 674 360 699 363 q 620 352 650 357 q 542 338 590 347 q 588 421 544 400 q 690 442 631 442 q 771 436 733 442 q 843 424 808 431 q 911 418 878 418 q 878 374 893 381 q 849 367 863 367 q 804 366 824 367 q 768 365 785 365 q 716 183 758 269 q 607 27 674 96 q 458 -81 540 -42 q 285 -121 375 -121 z "},"":{"ha":840,"x_min":-15,"x_max":925,"o":"m 38 -121 q -6 -80 3 -101 q -15 -44 -15 -58 q 13 60 -15 -6 q 88 210 40 125 q 193 385 135 294 q 108 390 144 389 q 32 392 71 392 l -7 392 q 49 452 10 435 q 143 469 89 469 q 192 467 167 469 q 243 460 217 464 q 386 662 314 565 q 522 835 458 758 q 629 953 585 911 q 706 1001 678 1001 q 743 988 722 1001 q 786 953 764 975 q 751 894 772 942 q 705 776 729 847 q 657 619 681 704 q 613 446 633 535 q 581 277 593 357 q 569 138 569 197 q 581 55 569 83 q 619 26 593 26 q 701 76 654 26 q 803 232 747 125 l 819 214 q 712 31 778 103 q 574 -42 646 -42 q 488 12 514 -42 q 461 154 461 65 q 467 243 461 194 q 483 350 472 292 q 372 366 422 360 q 279 378 322 372 q 152 130 214 257 q 38 -121 90 3 m 494 406 q 540 584 514 493 q 597 757 567 675 q 654 901 626 839 q 557 808 611 874 q 442 649 503 742 q 318 446 382 557 q 409 426 364 438 q 494 406 454 415 m 771 1039 q 753 1058 758 1044 q 747 1078 747 1072 q 762 1117 747 1090 q 799 1173 776 1143 q 845 1223 821 1203 q 892 1243 869 1243 q 914 1234 904 1243 q 925 1199 924 1225 q 839 1117 876 1154 q 771 1039 801 1079 z "},"":{"ha":840,"x_min":-15,"x_max":960,"o":"m 38 -121 q -6 -80 3 -101 q -15 -44 -15 -58 q 13 60 -15 -6 q 88 210 40 125 q 193 385 135 294 q 108 390 144 389 q 32 392 71 392 l -7 392 q 49 452 10 435 q 143 469 89 469 q 192 467 167 469 q 243 460 217 464 q 386 662 314 565 q 522 835 458 758 q 629 953 585 911 q 706 1001 678 1001 q 743 988 722 1001 q 786 953 764 975 q 751 894 772 942 q 705 776 729 847 q 657 619 681 704 q 613 446 633 535 q 581 277 593 357 q 569 138 569 197 q 581 55 569 83 q 619 26 593 26 q 701 76 654 26 q 803 232 747 125 l 819 214 q 712 31 778 103 q 574 -42 646 -42 q 488 12 514 -42 q 461 154 461 65 q 467 243 461 194 q 483 350 472 292 q 372 366 422 360 q 279 378 322 372 q 152 130 214 257 q 38 -121 90 3 m 494 406 q 540 584 514 493 q 597 757 567 675 q 654 901 626 839 q 557 808 611 874 q 442 649 503 742 q 318 446 382 557 q 409 426 364 438 q 494 406 454 415 m 810 1053 q 723 1074 756 1053 q 676 1126 690 1096 q 663 1182 663 1157 q 672 1224 663 1207 q 697 1250 682 1240 q 729 1167 703 1206 q 813 1129 756 1129 q 896 1154 864 1129 q 943 1207 928 1179 q 956 1186 953 1199 q 960 1164 960 1174 q 915 1085 960 1117 q 810 1053 869 1053 z "},"":{"ha":840,"x_min":-15,"x_max":960,"o":"m 38 -121 q -6 -80 3 -101 q -15 -44 -15 -58 q 13 60 -15 -6 q 88 210 40 125 q 193 385 135 294 q 108 390 144 389 q 32 392 71 392 l -7 392 q 49 452 10 435 q 143 469 89 469 q 192 467 167 469 q 243 460 217 464 q 386 662 314 565 q 522 835 458 758 q 629 953 585 911 q 706 1001 678 1001 q 743 988 722 1001 q 786 953 764 975 q 751 894 772 942 q 705 776 729 847 q 657 619 681 704 q 613 446 633 535 q 581 277 593 357 q 569 138 569 197 q 581 55 569 83 q 619 26 593 26 q 701 76 654 26 q 803 232 747 125 l 819 214 q 712 31 778 103 q 574 -42 646 -42 q 488 12 514 -42 q 461 154 461 65 q 467 243 461 194 q 483 350 472 292 q 372 366 422 360 q 279 378 322 372 q 152 130 214 257 q 38 -121 90 3 m 494 406 q 540 584 514 493 q 597 757 567 675 q 654 901 626 839 q 557 808 611 874 q 442 649 503 742 q 318 446 382 557 q 409 426 364 438 q 494 406 454 415 m 810 1053 q 723 1074 756 1053 q 676 1126 690 1096 q 663 1182 663 1157 q 672 1224 663 1207 q 697 1250 682 1240 q 729 1167 703 1206 q 813 1129 756 1129 q 896 1154 864 1129 q 943 1207 928 1179 q 956 1186 953 1199 q 960 1164 960 1174 q 915 1085 960 1117 q 810 1053 869 1053 m 822 1199 q 800 1217 807 1206 q 793 1242 793 1229 q 806 1277 793 1254 q 838 1324 818 1300 q 878 1363 857 1347 q 919 1378 900 1378 q 942 1369 932 1378 q 953 1333 951 1360 q 907 1291 931 1314 q 862 1244 883 1268 q 822 1199 840 1221 z "},"":{"ha":840,"x_min":-15,"x_max":960,"o":"m 38 -121 q -6 -80 3 -101 q -15 -44 -15 -58 q 13 60 -15 -6 q 88 210 40 125 q 193 385 135 294 q 108 390 144 389 q 32 392 71 392 l -7 392 q 49 452 10 435 q 143 469 89 469 q 192 467 167 469 q 243 460 217 464 q 386 662 314 565 q 522 835 458 758 q 629 953 585 911 q 706 1001 678 1001 q 743 988 722 1001 q 786 953 764 975 q 751 894 772 942 q 705 776 729 847 q 657 619 681 704 q 613 446 633 535 q 581 277 593 357 q 569 138 569 197 q 581 55 569 83 q 619 26 593 26 q 701 76 654 26 q 803 232 747 125 l 819 214 q 712 31 778 103 q 574 -42 646 -42 q 488 12 514 -42 q 461 154 461 65 q 467 243 461 194 q 483 350 472 292 q 372 366 422 360 q 279 378 322 372 q 152 130 214 257 q 38 -121 90 3 m 494 406 q 540 584 514 493 q 597 757 567 675 q 654 901 626 839 q 557 808 611 874 q 442 649 503 742 q 318 446 382 557 q 409 426 364 438 q 494 406 454 415 m 810 1053 q 723 1074 756 1053 q 676 1126 690 1096 q 663 1182 663 1157 q 672 1224 663 1207 q 697 1250 682 1240 q 729 1167 703 1206 q 813 1129 756 1129 q 896 1154 864 1129 q 943 1207 928 1179 q 956 1186 953 1199 q 960 1164 960 1174 q 915 1085 960 1117 q 810 1053 869 1053 m 254 -264 q 213 -251 229 -264 q 196 -214 196 -237 q 226 -165 196 -183 q 289 -146 257 -146 q 326 -158 314 -146 q 339 -193 339 -171 q 313 -242 339 -221 q 254 -264 286 -264 z "},"":{"ha":840,"x_min":-15,"x_max":960,"o":"m 38 -121 q -6 -80 3 -101 q -15 -44 -15 -58 q 13 60 -15 -6 q 88 210 40 125 q 193 385 135 294 q 108 390 144 389 q 32 392 71 392 l -7 392 q 49 452 10 435 q 143 469 89 469 q 192 467 167 469 q 243 460 217 464 q 386 662 314 565 q 522 835 458 758 q 629 953 585 911 q 706 1001 678 1001 q 743 988 722 1001 q 786 953 764 975 q 751 894 772 942 q 705 776 729 847 q 657 619 681 704 q 613 446 633 535 q 581 277 593 357 q 569 138 569 197 q 581 55 569 83 q 619 26 593 26 q 701 76 654 26 q 803 232 747 125 l 819 214 q 712 31 778 103 q 574 -42 646 -42 q 488 12 514 -42 q 461 154 461 65 q 467 243 461 194 q 483 350 472 292 q 372 366 422 360 q 279 378 322 372 q 152 130 214 257 q 38 -121 90 3 m 494 406 q 540 584 514 493 q 597 757 567 675 q 654 901 626 839 q 557 808 611 874 q 442 649 503 742 q 318 446 382 557 q 409 426 364 438 q 494 406 454 415 m 810 1053 q 723 1074 756 1053 q 676 1126 690 1096 q 663 1182 663 1157 q 672 1224 663 1207 q 697 1250 682 1240 q 729 1167 703 1206 q 813 1129 756 1129 q 896 1154 864 1129 q 943 1207 928 1179 q 956 1186 953 1199 q 960 1164 960 1174 q 915 1085 960 1117 q 810 1053 869 1053 m 838 1197 q 799 1242 821 1219 q 754 1288 778 1265 q 707 1332 731 1311 q 719 1367 710 1357 q 742 1376 729 1376 q 781 1360 760 1376 q 822 1322 803 1344 q 854 1276 842 1299 q 867 1239 867 1253 q 860 1216 867 1228 q 838 1197 854 1204 z "},"":{"ha":840,"x_min":-15,"x_max":960,"o":"m 38 -121 q -6 -80 3 -101 q -15 -44 -15 -58 q 13 60 -15 -6 q 88 210 40 125 q 193 385 135 294 q 108 390 144 389 q 32 392 71 392 l -7 392 q 49 452 10 435 q 143 469 89 469 q 192 467 167 469 q 243 460 217 464 q 386 662 314 565 q 522 835 458 758 q 629 953 585 911 q 706 1001 678 1001 q 743 988 722 1001 q 786 953 764 975 q 751 894 772 942 q 705 776 729 847 q 657 619 681 704 q 613 446 633 535 q 581 277 593 357 q 569 138 569 197 q 581 55 569 83 q 619 26 593 26 q 701 76 654 26 q 803 232 747 125 l 819 214 q 712 31 778 103 q 574 -42 646 -42 q 488 12 514 -42 q 461 154 461 65 q 467 243 461 194 q 483 350 472 292 q 372 366 422 360 q 279 378 322 372 q 152 130 214 257 q 38 -121 90 3 m 494 406 q 540 584 514 493 q 597 757 567 675 q 654 901 626 839 q 557 808 611 874 q 442 649 503 742 q 318 446 382 557 q 409 426 364 438 q 494 406 454 415 m 810 1053 q 723 1074 756 1053 q 676 1126 690 1096 q 663 1182 663 1157 q 672 1224 663 1207 q 697 1250 682 1240 q 729 1167 703 1206 q 813 1129 756 1129 q 896 1154 864 1129 q 943 1207 928 1179 q 956 1186 953 1199 q 960 1164 960 1174 q 915 1085 960 1117 q 810 1053 869 1053 m 832 1188 q 803 1192 815 1188 q 785 1203 792 1197 q 850 1222 821 1207 q 879 1269 879 1236 q 847 1313 879 1300 q 750 1326 815 1326 q 769 1374 750 1354 q 821 1393 788 1393 q 899 1362 868 1393 q 929 1286 929 1331 q 902 1215 929 1243 q 832 1188 875 1188 z "},"":{"ha":840,"x_min":-15,"x_max":1067,"o":"m 38 -121 q -6 -80 3 -101 q -15 -44 -15 -58 q 13 60 -15 -6 q 88 210 40 125 q 193 385 135 294 q 108 390 144 389 q 32 392 71 392 l -7 392 q 49 452 10 435 q 143 469 89 469 q 192 467 167 469 q 243 460 217 464 q 386 662 314 565 q 522 835 458 758 q 629 953 585 911 q 706 1001 678 1001 q 743 988 722 1001 q 786 953 764 975 q 751 894 772 942 q 705 776 729 847 q 657 619 681 704 q 613 446 633 535 q 581 277 593 357 q 569 138 569 197 q 581 55 569 83 q 619 26 593 26 q 701 76 654 26 q 803 232 747 125 l 819 214 q 712 31 778 103 q 574 -42 646 -42 q 488 12 514 -42 q 461 154 461 65 q 467 243 461 194 q 483 350 472 292 q 372 366 422 360 q 279 378 322 372 q 152 130 214 257 q 38 -121 90 3 m 494 406 q 540 584 514 493 q 597 757 567 675 q 654 901 626 839 q 557 808 611 874 q 442 649 503 742 q 318 446 382 557 q 409 426 364 438 q 494 406 454 415 m 810 1053 q 723 1074 756 1053 q 676 1126 690 1096 q 663 1182 663 1157 q 672 1224 663 1207 q 697 1250 682 1240 q 729 1167 703 1206 q 813 1129 756 1129 q 896 1154 864 1129 q 943 1207 928 1179 q 956 1186 953 1199 q 960 1164 960 1174 q 915 1085 960 1117 q 810 1053 869 1053 m 953 1236 q 874 1252 915 1236 q 792 1285 833 1268 q 711 1301 751 1301 q 670 1297 690 1301 q 631 1281 650 1292 q 685 1338 654 1321 q 753 1354 717 1354 q 833 1338 792 1354 q 919 1304 875 1321 q 1008 1288 963 1288 q 1068 1300 1038 1288 q 1015 1251 1043 1267 q 953 1236 988 1236 z "},"":{"ha":840,"x_min":-15,"x_max":924,"o":"m 38 -121 q -6 -80 3 -101 q -15 -44 -15 -58 q 13 60 -15 -6 q 88 210 40 125 q 193 385 135 294 q 108 390 144 389 q 32 392 71 392 l -7 392 q 49 452 10 435 q 143 469 89 469 q 192 467 167 469 q 243 460 217 464 q 386 662 314 565 q 522 835 458 758 q 629 953 585 911 q 706 1001 678 1001 q 743 988 722 1001 q 786 953 764 975 q 751 894 772 942 q 705 776 729 847 q 657 619 681 704 q 613 446 633 535 q 581 277 593 357 q 569 138 569 197 q 581 55 569 83 q 619 26 593 26 q 701 76 654 26 q 803 232 747 125 l 819 214 q 712 31 778 103 q 574 -42 646 -42 q 488 12 514 -42 q 461 154 461 65 q 467 243 461 194 q 483 350 472 292 q 372 366 422 360 q 279 378 322 372 q 152 130 214 257 q 38 -121 90 3 m 494 406 q 540 584 514 493 q 597 757 567 675 q 654 901 626 839 q 557 808 611 874 q 442 649 503 742 q 318 446 382 557 q 409 426 364 438 q 494 406 454 415 m 897 1033 q 851 1100 876 1072 q 794 1157 826 1128 q 720 1125 754 1143 q 653 1081 686 1107 q 640 1095 643 1086 q 638 1111 638 1104 q 656 1153 638 1132 q 702 1192 675 1174 q 756 1221 729 1210 q 796 1232 782 1232 q 835 1217 813 1232 q 877 1178 857 1201 q 910 1128 897 1154 q 924 1081 924 1101 q 917 1054 924 1067 q 897 1033 911 1042 z "},"":{"ha":840,"x_min":-15,"x_max":1082,"o":"m 38 -121 q -6 -80 3 -101 q -15 -44 -15 -58 q 13 60 -15 -6 q 88 210 40 125 q 193 385 135 294 q 108 390 144 389 q 32 392 71 392 l -7 392 q 49 452 10 435 q 143 469 89 469 q 192 467 167 469 q 243 460 217 464 q 386 662 314 565 q 522 835 458 758 q 629 953 585 911 q 706 1001 678 1001 q 743 988 722 1001 q 786 953 764 975 q 751 894 772 942 q 705 776 729 847 q 657 619 681 704 q 613 446 633 535 q 581 277 593 357 q 569 138 569 197 q 581 55 569 83 q 619 26 593 26 q 701 76 654 26 q 803 232 747 125 l 819 214 q 712 31 778 103 q 574 -42 646 -42 q 488 12 514 -42 q 461 154 461 65 q 467 243 461 194 q 483 350 472 292 q 372 366 422 360 q 279 378 322 372 q 152 130 214 257 q 38 -121 90 3 m 494 406 q 540 584 514 493 q 597 757 567 675 q 654 901 626 839 q 557 808 611 874 q 442 649 503 742 q 318 446 382 557 q 409 426 364 438 q 494 406 454 415 m 951 1167 q 928 1185 936 1174 q 921 1208 921 1197 q 933 1245 921 1222 q 965 1291 946 1268 q 1007 1330 985 1314 q 1047 1346 1029 1346 q 1069 1336 1060 1346 q 1082 1301 1079 1326 q 1035 1258 1058 1281 q 990 1212 1011 1235 q 951 1167 968 1189 m 897 1033 q 851 1100 876 1072 q 794 1157 826 1128 q 720 1125 754 1143 q 653 1081 686 1107 q 640 1095 643 1086 q 638 1111 638 1104 q 656 1153 638 1132 q 702 1192 675 1174 q 756 1221 729 1210 q 796 1232 782 1232 q 835 1217 813 1232 q 877 1178 857 1201 q 910 1128 897 1154 q 924 1081 924 1101 q 917 1054 924 1067 q 897 1033 911 1042 z "},"":{"ha":840,"x_min":-15,"x_max":924,"o":"m 38 -121 q -6 -80 3 -101 q -15 -44 -15 -58 q 13 60 -15 -6 q 88 210 40 125 q 193 385 135 294 q 108 390 144 389 q 32 392 71 392 l -7 392 q 49 452 10 435 q 143 469 89 469 q 192 467 167 469 q 243 460 217 464 q 386 662 314 565 q 522 835 458 758 q 629 953 585 911 q 706 1001 678 1001 q 743 988 722 1001 q 786 953 764 975 q 751 894 772 942 q 705 776 729 847 q 657 619 681 704 q 613 446 633 535 q 581 277 593 357 q 569 138 569 197 q 581 55 569 83 q 619 26 593 26 q 701 76 654 26 q 803 232 747 125 l 819 214 q 712 31 778 103 q 574 -42 646 -42 q 488 12 514 -42 q 461 154 461 65 q 467 243 461 194 q 483 350 472 292 q 372 366 422 360 q 279 378 322 372 q 152 130 214 257 q 38 -121 90 3 m 494 406 q 540 584 514 493 q 597 757 567 675 q 654 901 626 839 q 557 808 611 874 q 442 649 503 742 q 318 446 382 557 q 409 426 364 438 q 494 406 454 415 m 897 1033 q 851 1100 876 1072 q 794 1157 826 1128 q 720 1125 754 1143 q 653 1081 686 1107 q 640 1095 643 1086 q 638 1111 638 1104 q 656 1153 638 1132 q 702 1192 675 1174 q 756 1221 729 1210 q 796 1232 782 1232 q 835 1217 813 1232 q 877 1178 857 1201 q 910 1128 897 1154 q 924 1081 924 1101 q 917 1054 924 1067 q 897 1033 911 1042 m 254 -264 q 213 -251 229 -264 q 196 -214 196 -237 q 226 -165 196 -183 q 289 -146 257 -146 q 326 -158 314 -146 q 339 -193 339 -171 q 313 -242 339 -221 q 254 -264 286 -264 z "},"":{"ha":840,"x_min":-15,"x_max":1000,"o":"m 38 -121 q -6 -80 3 -101 q -15 -44 -15 -58 q 13 60 -15 -6 q 88 210 40 125 q 193 385 135 294 q 108 390 144 389 q 32 392 71 392 l -7 392 q 49 452 10 435 q 143 469 89 469 q 192 467 167 469 q 243 460 217 464 q 386 662 314 565 q 522 835 458 758 q 629 953 585 911 q 706 1001 678 1001 q 743 988 722 1001 q 786 953 764 975 q 751 894 772 942 q 705 776 729 847 q 657 619 681 704 q 613 446 633 535 q 581 277 593 357 q 569 138 569 197 q 581 55 569 83 q 619 26 593 26 q 701 76 654 26 q 803 232 747 125 l 819 214 q 712 31 778 103 q 574 -42 646 -42 q 488 12 514 -42 q 461 154 461 65 q 467 243 461 194 q 483 350 472 292 q 372 366 422 360 q 279 378 322 372 q 152 130 214 257 q 38 -121 90 3 m 494 406 q 540 584 514 493 q 597 757 567 675 q 654 901 626 839 q 557 808 611 874 q 442 649 503 742 q 318 446 382 557 q 409 426 364 438 q 494 406 454 415 m 971 1164 q 938 1213 957 1188 q 899 1263 919 1238 q 857 1313 878 1289 q 871 1343 861 1335 q 894 1351 881 1351 q 931 1334 913 1351 q 965 1292 950 1317 q 990 1243 981 1267 q 1000 1204 1000 1219 q 971 1164 1000 1175 m 897 1033 q 851 1100 876 1072 q 794 1157 826 1128 q 720 1125 754 1143 q 653 1081 686 1107 q 640 1095 643 1086 q 638 1111 638 1104 q 656 1153 638 1132 q 702 1192 675 1174 q 756 1221 729 1210 q 796 1232 782 1232 q 835 1217 813 1232 q 877 1178 857 1201 q 910 1128 897 1154 q 924 1081 924 1101 q 917 1054 924 1067 q 897 1033 911 1042 z "},"":{"ha":840,"x_min":-15,"x_max":1067,"o":"m 38 -121 q -6 -80 3 -101 q -15 -44 -15 -58 q 13 60 -15 -6 q 88 210 40 125 q 193 385 135 294 q 108 390 144 389 q 32 392 71 392 l -7 392 q 49 452 10 435 q 143 469 89 469 q 192 467 167 469 q 243 460 217 464 q 386 662 314 565 q 522 835 458 758 q 629 953 585 911 q 706 1001 678 1001 q 743 988 722 1001 q 786 953 764 975 q 751 894 772 942 q 705 776 729 847 q 657 619 681 704 q 613 446 633 535 q 581 277 593 357 q 569 138 569 197 q 581 55 569 83 q 619 26 593 26 q 701 76 654 26 q 803 232 747 125 l 819 214 q 712 31 778 103 q 574 -42 646 -42 q 488 12 514 -42 q 461 154 461 65 q 467 243 461 194 q 483 350 472 292 q 372 366 422 360 q 279 378 322 372 q 152 130 214 257 q 38 -121 90 3 m 494 406 q 540 584 514 493 q 597 757 567 675 q 654 901 626 839 q 557 808 611 874 q 442 649 503 742 q 318 446 382 557 q 409 426 364 438 q 494 406 454 415 m 986 1154 q 960 1158 972 1154 q 942 1168 949 1163 q 994 1186 972 1172 q 1017 1228 1017 1200 q 985 1274 1017 1258 q 888 1289 954 1289 q 906 1336 888 1317 q 958 1356 925 1356 q 1036 1322 1006 1356 q 1067 1240 1067 1289 q 1044 1178 1067 1201 q 986 1154 1022 1154 m 897 1033 q 851 1100 876 1072 q 794 1157 826 1128 q 720 1125 754 1143 q 653 1081 686 1107 q 640 1095 643 1086 q 638 1111 638 1104 q 656 1153 638 1132 q 702 1192 675 1174 q 756 1221 729 1210 q 796 1232 782 1232 q 835 1217 813 1232 q 877 1178 857 1201 q 910 1128 897 1154 q 924 1081 924 1101 q 917 1054 924 1067 q 897 1033 911 1042 z "},"":{"ha":840,"x_min":-15,"x_max":1067,"o":"m 38 -121 q -6 -80 3 -101 q -15 -44 -15 -58 q 13 60 -15 -6 q 88 210 40 125 q 193 385 135 294 q 108 390 144 389 q 32 392 71 392 l -7 392 q 49 452 10 435 q 143 469 89 469 q 192 467 167 469 q 243 460 217 464 q 386 662 314 565 q 522 835 458 758 q 629 953 585 911 q 706 1001 678 1001 q 743 988 722 1001 q 786 953 764 975 q 751 894 772 942 q 705 776 729 847 q 657 619 681 704 q 613 446 633 535 q 581 277 593 357 q 569 138 569 197 q 581 55 569 83 q 619 26 593 26 q 701 76 654 26 q 803 232 747 125 l 819 214 q 712 31 778 103 q 574 -42 646 -42 q 488 12 514 -42 q 461 154 461 65 q 467 243 461 194 q 483 350 472 292 q 372 366 422 360 q 279 378 322 372 q 152 130 214 257 q 38 -121 90 3 m 494 406 q 540 584 514 493 q 597 757 567 675 q 654 901 626 839 q 557 808 611 874 q 442 649 503 742 q 318 446 382 557 q 409 426 364 438 q 494 406 454 415 m 810 1053 q 723 1074 756 1053 q 676 1126 690 1096 q 663 1182 663 1157 q 672 1224 663 1207 q 697 1250 682 1240 q 729 1167 703 1206 q 813 1129 756 1129 q 896 1154 864 1129 q 943 1207 928 1179 q 956 1186 953 1199 q 960 1164 960 1174 q 915 1085 960 1117 q 810 1053 869 1053 m 953 1236 q 874 1252 915 1236 q 792 1285 833 1268 q 711 1301 751 1301 q 670 1297 690 1301 q 631 1281 650 1292 q 685 1338 654 1321 q 753 1354 717 1354 q 833 1338 792 1354 q 919 1304 875 1321 q 1008 1288 963 1288 q 1068 1300 1038 1288 q 1015 1251 1043 1267 q 953 1236 988 1236 z "},"":{"ha":840,"x_min":-15,"x_max":853,"o":"m 38 -121 q -6 -80 3 -101 q -15 -44 -15 -58 q 13 60 -15 -6 q 88 210 40 125 q 193 385 135 294 q 108 390 144 389 q 32 392 71 392 l -7 392 q 49 452 10 435 q 143 469 89 469 q 192 467 167 469 q 243 460 217 464 q 386 662 314 565 q 522 835 458 758 q 629 953 585 911 q 706 1001 678 1001 q 743 988 722 1001 q 786 953 764 975 q 751 894 772 942 q 705 776 729 847 q 657 619 681 704 q 613 446 633 535 q 581 277 593 357 q 569 138 569 197 q 581 55 569 83 q 619 26 593 26 q 701 76 654 26 q 803 232 747 125 l 819 214 q 712 31 778 103 q 574 -42 646 -42 q 488 12 514 -42 q 461 154 461 65 q 467 243 461 194 q 483 350 472 292 q 372 366 422 360 q 279 378 322 372 q 152 130 214 257 q 38 -121 90 3 m 494 406 q 540 584 514 493 q 597 757 567 675 q 654 901 626 839 q 557 808 611 874 q 442 649 503 742 q 318 446 382 557 q 409 426 364 438 q 494 406 454 415 m 729 1040 q 666 1124 700 1081 q 592 1213 632 1167 q 612 1231 601 1224 q 636 1238 622 1238 q 674 1218 654 1238 q 710 1170 693 1199 q 737 1116 726 1142 q 747 1075 747 1090 q 729 1040 747 1051 m 824 1046 q 778 1123 804 1082 q 722 1203 753 1164 q 740 1230 731 1222 q 763 1238 750 1238 q 797 1221 781 1238 q 826 1179 814 1204 q 846 1129 839 1154 q 853 1089 853 1104 q 844 1058 853 1067 q 824 1046 835 1049 z "},"":{"ha":840,"x_min":-15,"x_max":956,"o":"m 38 -121 q -6 -80 3 -101 q -15 -44 -15 -58 q 13 60 -15 -6 q 88 210 40 125 q 193 385 135 294 q 108 390 144 389 q 32 392 71 392 l -7 392 q 49 452 10 435 q 143 469 89 469 q 192 467 167 469 q 243 460 217 464 q 386 662 314 565 q 522 835 458 758 q 629 953 585 911 q 706 1001 678 1001 q 743 988 722 1001 q 786 953 764 975 q 751 894 772 942 q 705 776 729 847 q 657 619 681 704 q 613 446 633 535 q 581 277 593 357 q 569 138 569 197 q 581 55 569 83 q 619 26 593 26 q 701 76 654 26 q 803 232 747 125 l 819 214 q 712 31 778 103 q 574 -42 646 -42 q 488 12 514 -42 q 461 154 461 65 q 467 243 461 194 q 483 350 472 292 q 372 366 422 360 q 279 378 322 372 q 152 130 214 257 q 38 -121 90 3 m 494 406 q 540 584 514 493 q 597 757 567 675 q 654 901 626 839 q 557 808 611 874 q 442 649 503 742 q 318 446 382 557 q 409 426 364 438 q 494 406 454 415 m 872 1046 q 835 1056 851 1046 q 818 1089 818 1067 q 849 1136 818 1117 q 911 1156 881 1156 q 943 1147 931 1156 q 956 1114 956 1138 q 929 1068 956 1090 q 872 1046 903 1046 m 672 1075 q 635 1085 651 1075 q 618 1118 618 1094 q 649 1164 618 1144 q 710 1183 679 1183 q 742 1175 731 1183 q 754 1143 754 1167 q 728 1097 754 1119 q 672 1075 703 1075 z "},"":{"ha":840,"x_min":-15,"x_max":819,"o":"m 38 -121 q -6 -80 3 -101 q -15 -44 -15 -58 q 13 60 -15 -6 q 88 210 40 125 q 193 385 135 294 q 108 390 144 389 q 32 392 71 392 l -7 392 q 49 452 10 435 q 143 469 89 469 q 192 467 167 469 q 243 460 217 464 q 386 662 314 565 q 522 835 458 758 q 629 953 585 911 q 706 1001 678 1001 q 743 988 722 1001 q 786 953 764 975 q 751 894 772 942 q 705 776 729 847 q 657 619 681 704 q 613 446 633 535 q 581 277 593 357 q 569 138 569 197 q 581 55 569 83 q 619 26 593 26 q 701 76 654 26 q 803 232 747 125 l 819 214 q 712 31 778 103 q 574 -42 646 -42 q 488 12 514 -42 q 461 154 461 65 q 467 243 461 194 q 483 350 472 292 q 372 366 422 360 q 279 378 322 372 q 152 130 214 257 q 38 -121 90 3 m 494 406 q 540 584 514 493 q 597 757 567 675 q 654 901 626 839 q 557 808 611 874 q 442 649 503 742 q 318 446 382 557 q 409 426 364 438 q 494 406 454 415 m 254 -264 q 213 -251 229 -264 q 196 -214 196 -237 q 226 -165 196 -183 q 289 -146 257 -146 q 326 -158 314 -146 q 339 -193 339 -171 q 313 -242 339 -221 q 254 -264 286 -264 z "},"":{"ha":840,"x_min":-15,"x_max":819,"o":"m 38 -121 q -6 -80 3 -101 q -15 -44 -15 -58 q 13 60 -15 -6 q 88 210 40 125 q 193 385 135 294 q 108 390 144 389 q 32 392 71 392 l -7 392 q 49 452 10 435 q 143 469 89 469 q 192 467 167 469 q 243 460 217 464 q 386 662 314 565 q 522 835 458 758 q 629 953 585 911 q 706 1001 678 1001 q 743 988 722 1001 q 786 953 764 975 q 751 894 772 942 q 705 776 729 847 q 657 619 681 704 q 613 446 633 535 q 581 277 593 357 q 569 138 569 197 q 581 55 569 83 q 619 26 593 26 q 701 76 654 26 q 803 232 747 125 l 819 214 q 712 31 778 103 q 574 -42 646 -42 q 488 12 514 -42 q 461 154 461 65 q 467 243 461 194 q 483 350 472 292 q 372 366 422 360 q 279 378 322 372 q 152 130 214 257 q 38 -121 90 3 m 494 406 q 540 584 514 493 q 597 757 567 675 q 654 901 626 839 q 557 808 611 874 q 442 649 503 742 q 318 446 382 557 q 409 426 364 438 q 494 406 454 415 m 765 1039 q 697 1117 733 1079 q 607 1197 660 1154 q 619 1234 610 1224 q 642 1244 629 1244 q 688 1224 663 1244 q 737 1175 714 1204 q 774 1119 760 1146 q 789 1079 789 1092 q 783 1058 789 1072 q 765 1039 778 1044 z "},"":{"ha":840,"x_min":-15,"x_max":894,"o":"m 38 -121 q -6 -80 3 -101 q -15 -44 -15 -58 q 13 60 -15 -6 q 88 210 40 125 q 193 385 135 294 q 108 390 144 389 q 32 392 71 392 l -7 392 q 49 452 10 435 q 143 469 89 469 q 192 467 167 469 q 243 460 217 464 q 386 662 314 565 q 522 835 458 758 q 629 953 585 911 q 706 1001 678 1001 q 743 988 722 1001 q 786 953 764 975 q 751 894 772 942 q 705 776 729 847 q 657 619 681 704 q 613 446 633 535 q 581 277 593 357 q 569 138 569 197 q 581 55 569 83 q 619 26 593 26 q 701 76 654 26 q 803 232 747 125 l 819 214 q 712 31 778 103 q 574 -42 646 -42 q 488 12 514 -42 q 461 154 461 65 q 467 243 461 194 q 483 350 472 292 q 372 366 422 360 q 279 378 322 372 q 152 130 214 257 q 38 -121 90 3 m 494 406 q 540 584 514 493 q 597 757 567 675 q 654 901 626 839 q 557 808 611 874 q 442 649 503 742 q 318 446 382 557 q 409 426 364 438 q 494 406 454 415 m 797 1044 q 769 1049 781 1044 q 750 1060 757 1054 q 815 1078 786 1064 q 844 1126 844 1093 q 813 1170 844 1157 q 715 1183 781 1183 q 734 1231 715 1211 q 786 1250 753 1250 q 864 1219 833 1250 q 894 1143 894 1188 q 867 1072 894 1100 q 797 1044 840 1044 z "},"":{"ha":840,"x_min":-15,"x_max":939,"o":"m 38 -121 q -6 -80 3 -101 q -15 -44 -15 -58 q 13 60 -15 -6 q 88 210 40 125 q 193 385 135 294 q 108 390 144 389 q 32 392 71 392 l -7 392 q 49 452 10 435 q 143 469 89 469 q 192 467 167 469 q 243 460 217 464 q 386 662 314 565 q 522 835 458 758 q 629 953 585 911 q 706 1001 678 1001 q 743 988 722 1001 q 786 953 764 975 q 751 894 772 942 q 705 776 729 847 q 657 619 681 704 q 613 446 633 535 q 581 277 593 357 q 569 138 569 197 q 581 55 569 83 q 619 26 593 26 q 701 76 654 26 q 803 232 747 125 l 819 214 q 712 31 778 103 q 574 -42 646 -42 q 488 12 514 -42 q 461 154 461 65 q 467 243 461 194 q 483 350 472 292 q 372 366 422 360 q 279 378 322 372 q 152 130 214 257 q 38 -121 90 3 m 494 406 q 540 584 514 493 q 597 757 567 675 q 654 901 626 839 q 557 808 611 874 q 442 649 503 742 q 318 446 382 557 q 409 426 364 438 q 494 406 454 415 m 904 1014 q 872 1097 900 1058 q 782 1135 844 1135 q 703 1110 733 1135 q 658 1057 674 1085 q 647 1078 650 1065 q 643 1100 643 1090 q 687 1179 643 1147 q 792 1211 731 1211 q 877 1190 844 1211 q 925 1140 910 1169 q 940 1086 940 1111 q 931 1043 940 1061 q 904 1014 921 1025 z "},"":{"ha":840,"x_min":-15,"x_max":965,"o":"m 38 -121 q -6 -80 3 -101 q -15 -44 -15 -58 q 13 60 -15 -6 q 88 210 40 125 q 193 385 135 294 q 108 390 144 389 q 32 392 71 392 l -7 392 q 49 452 10 435 q 143 469 89 469 q 192 467 167 469 q 243 460 217 464 q 386 662 314 565 q 522 835 458 758 q 629 953 585 911 q 706 1001 678 1001 q 743 988 722 1001 q 786 953 764 975 q 751 894 772 942 q 705 776 729 847 q 657 619 681 704 q 613 446 633 535 q 581 277 593 357 q 569 138 569 197 q 581 55 569 83 q 619 26 593 26 q 701 76 654 26 q 803 232 747 125 l 819 214 q 712 31 778 103 q 574 -42 646 -42 q 488 12 514 -42 q 461 154 461 65 q 467 243 461 194 q 483 350 472 292 q 372 366 422 360 q 279 378 322 372 q 152 130 214 257 q 38 -121 90 3 m 494 406 q 540 584 514 493 q 597 757 567 675 q 654 901 626 839 q 557 808 611 874 q 442 649 503 742 q 318 446 382 557 q 409 426 364 438 q 494 406 454 415 m 911 1051 q 834 1059 881 1051 q 737 1077 788 1067 q 641 1097 686 1088 q 564 1110 596 1107 q 629 1147 578 1147 q 739 1137 681 1147 q 857 1112 797 1126 q 965 1081 917 1097 q 911 1051 947 1051 z "},"":{"ha":840,"x_min":-15,"x_max":819,"o":"m 38 -121 q -6 -80 3 -101 q -15 -44 -15 -58 q 13 60 -15 -6 q 88 210 40 125 q 193 385 135 294 q 108 390 144 389 q 32 392 71 392 l -7 392 q 49 452 10 435 q 143 469 89 469 q 192 467 167 469 q 243 460 217 464 q 386 662 314 565 q 522 835 458 758 q 629 953 585 911 q 706 1001 678 1001 q 743 988 722 1001 q 786 953 764 975 q 751 894 772 942 q 705 776 729 847 q 657 619 681 704 q 613 446 633 535 q 581 277 593 357 q 569 138 569 197 q 581 55 569 83 q 619 26 593 26 q 701 76 654 26 q 803 232 747 125 l 819 214 q 712 31 778 103 q 574 -42 646 -42 q 488 12 514 -42 q 461 154 461 65 q 467 243 461 194 q 483 350 472 292 q 372 366 422 360 q 279 378 322 372 q 152 130 214 257 q 38 -121 90 3 m 494 406 q 540 584 514 493 q 597 757 567 675 q 654 901 626 839 q 557 808 611 874 q 442 649 503 742 q 318 446 382 557 q 409 426 364 438 q 494 406 454 415 m 661 -215 q 590 -188 617 -215 q 563 -118 563 -161 q 593 -44 563 -72 q 665 -10 624 -15 q 631 -44 644 -25 q 618 -90 618 -64 q 634 -133 618 -114 q 683 -151 650 -151 q 722 -145 704 -151 q 757 -125 739 -139 q 729 -192 756 -168 q 661 -215 703 -215 z "},"":{"ha":840,"x_min":-15,"x_max":940,"o":"m 38 -121 q -6 -80 3 -101 q -15 -44 -15 -58 q 13 60 -15 -6 q 88 210 40 125 q 193 385 135 294 q 108 390 144 389 q 32 392 71 392 l -7 392 q 49 452 10 435 q 143 469 89 469 q 192 467 167 469 q 243 460 217 464 q 386 662 314 565 q 522 835 458 758 q 629 953 585 911 q 706 1001 678 1001 q 743 988 722 1001 q 786 953 764 975 q 751 894 772 942 q 705 776 729 847 q 657 619 681 704 q 613 446 633 535 q 581 277 593 357 q 569 138 569 197 q 581 55 569 83 q 619 26 593 26 q 701 76 654 26 q 803 232 747 125 l 819 214 q 712 31 778 103 q 574 -42 646 -42 q 488 12 514 -42 q 461 154 461 65 q 467 243 461 194 q 483 350 472 292 q 372 366 422 360 q 279 378 322 372 q 152 130 214 257 q 38 -121 90 3 m 494 406 q 540 584 514 493 q 597 757 567 675 q 654 901 626 839 q 557 808 611 874 q 442 649 503 742 q 318 446 382 557 q 409 426 364 438 q 494 406 454 415 m 765 1047 q 686 1069 710 1047 q 663 1124 663 1092 q 685 1192 663 1157 q 746 1253 707 1228 q 832 1278 785 1278 q 915 1256 890 1278 q 940 1201 940 1233 q 917 1133 940 1168 q 853 1072 893 1097 q 765 1047 813 1047 m 776 1082 q 827 1100 803 1082 q 867 1144 851 1118 q 883 1193 883 1171 q 869 1224 883 1210 q 826 1239 856 1239 q 775 1222 799 1239 q 737 1181 751 1206 q 722 1133 722 1156 q 735 1099 722 1117 q 776 1082 749 1082 z "},"":{"ha":840,"x_min":-15,"x_max":1050,"o":"m 38 -121 q -6 -80 3 -101 q -15 -44 -15 -58 q 13 60 -15 -6 q 88 210 40 125 q 193 385 135 294 q 108 390 144 389 q 32 392 71 392 l -7 392 q 49 452 10 435 q 143 469 89 469 q 192 467 167 469 q 243 460 217 464 q 386 662 314 565 q 522 835 458 758 q 629 953 585 911 q 706 1001 678 1001 q 743 988 722 1001 q 786 953 764 975 q 751 894 772 942 q 705 776 729 847 q 657 619 681 704 q 613 446 633 535 q 581 277 593 357 q 569 138 569 197 q 581 55 569 83 q 619 26 593 26 q 701 76 654 26 q 803 232 747 125 l 819 214 q 712 31 778 103 q 574 -42 646 -42 q 488 12 514 -42 q 461 154 461 65 q 467 243 461 194 q 483 350 472 292 q 372 366 422 360 q 279 378 322 372 q 152 130 214 257 q 38 -121 90 3 m 494 406 q 540 584 514 493 q 597 757 567 675 q 654 901 626 839 q 557 808 611 874 q 442 649 503 742 q 318 446 382 557 q 409 426 364 438 q 494 406 454 415 m 765 1047 q 686 1069 710 1047 q 663 1124 663 1092 q 685 1192 663 1157 q 746 1253 707 1228 q 832 1278 785 1278 q 915 1256 890 1278 q 940 1201 940 1233 q 917 1133 940 1168 q 853 1072 893 1097 q 765 1047 813 1047 m 776 1082 q 827 1100 803 1082 q 867 1144 851 1118 q 883 1193 883 1171 q 869 1224 883 1210 q 826 1239 856 1239 q 775 1222 799 1239 q 737 1181 751 1206 q 722 1133 722 1156 q 735 1099 722 1117 q 776 1082 749 1082 m 896 1317 q 878 1336 883 1322 q 872 1356 872 1350 q 887 1394 872 1368 q 924 1451 901 1421 q 970 1501 946 1481 q 1017 1521 994 1521 q 1039 1512 1029 1521 q 1050 1476 1049 1503 q 964 1394 1001 1432 q 896 1317 926 1357 z "},"":{"ha":840,"x_min":-15,"x_max":999,"o":"m 38 -121 q -6 -80 3 -101 q -15 -44 -15 -58 q 13 60 -15 -6 q 88 210 40 125 q 193 385 135 294 q 108 390 144 389 q 32 392 71 392 l -7 392 q 49 452 10 435 q 143 469 89 469 q 192 467 167 469 q 243 460 217 464 q 386 662 314 565 q 522 835 458 758 q 629 953 585 911 q 706 1001 678 1001 q 743 988 722 1001 q 786 953 764 975 q 751 894 772 942 q 705 776 729 847 q 657 619 681 704 q 613 446 633 535 q 581 277 593 357 q 569 138 569 197 q 581 55 569 83 q 619 26 593 26 q 701 76 654 26 q 803 232 747 125 l 819 214 q 712 31 778 103 q 574 -42 646 -42 q 488 12 514 -42 q 461 154 461 65 q 467 243 461 194 q 483 350 472 292 q 372 366 422 360 q 279 378 322 372 q 152 130 214 257 q 38 -121 90 3 m 494 406 q 540 584 514 493 q 597 757 567 675 q 654 901 626 839 q 557 808 611 874 q 442 649 503 742 q 318 446 382 557 q 409 426 364 438 q 494 406 454 415 m 883 1054 q 805 1070 846 1054 q 723 1103 764 1086 q 642 1119 682 1119 q 601 1115 621 1119 q 561 1099 581 1110 q 616 1156 585 1139 q 683 1172 647 1172 q 764 1156 722 1172 q 849 1122 806 1139 q 939 1106 893 1106 q 999 1118 968 1106 q 946 1069 974 1085 q 883 1054 918 1054 z "},"":{"ha":1057,"x_min":-17,"x_max":1146,"o":"m 36 -121 q -7 -80 3 -101 q -17 -44 -17 -58 q 12 60 -17 -6 q 88 210 40 125 q 193 385 135 294 q 108 390 143 389 q 46 392 72 392 l -8 392 q 48 452 8 435 q 143 469 88 469 q 192 467 167 469 q 243 460 217 464 q 387 664 315 567 q 522 837 458 761 q 634 957 586 913 q 706 1001 682 1001 q 826 998 763 1001 q 952 990 890 994 q 1065 979 1014 985 q 1146 969 1115 974 q 1101 934 1138 946 q 1013 917 1065 922 q 903 913 961 913 q 828 913 864 913 q 758 915 792 914 q 705 778 736 869 q 644 581 674 688 q 815 566 742 578 q 938 547 889 554 q 894 513 931 525 q 805 496 857 500 q 694 492 753 492 q 654 492 671 492 q 622 493 638 492 q 584 297 599 393 q 569 133 569 201 q 571 104 569 118 q 574 81 572 90 q 674 69 618 74 q 784 59 729 64 q 885 49 839 54 q 958 38 932 44 q 914 3 950 15 q 826 -13 878 -8 q 715 -18 774 -18 q 601 -17 657 -18 q 504 -12 546 -17 q 470 55 481 10 q 460 154 460 100 q 466 247 460 197 q 482 350 472 297 q 372 366 421 360 q 279 378 322 372 q 151 130 214 257 q 36 -121 89 3 m 493 406 q 540 584 514 493 q 597 757 567 675 q 654 901 626 839 q 556 808 611 874 q 441 649 501 742 q 318 446 381 557 q 410 426 364 438 q 493 406 456 414 z "},"":{"ha":1057,"x_min":-17,"x_max":1146,"o":"m 36 -121 q -7 -80 3 -101 q -17 -44 -17 -58 q 12 60 -17 -6 q 88 210 40 125 q 193 385 135 294 q 108 390 143 389 q 46 392 72 392 l -8 392 q 48 452 8 435 q 143 469 88 469 q 192 467 167 469 q 243 460 217 464 q 387 664 315 567 q 522 837 458 761 q 634 957 586 913 q 706 1001 682 1001 q 826 998 763 1001 q 952 990 890 994 q 1065 979 1014 985 q 1146 969 1115 974 q 1101 934 1138 946 q 1013 917 1065 922 q 903 913 961 913 q 828 913 864 913 q 758 915 792 914 q 705 778 736 869 q 644 581 674 688 q 815 566 742 578 q 938 547 889 554 q 894 513 931 525 q 805 496 857 500 q 694 492 753 492 q 654 492 671 492 q 622 493 638 492 q 584 297 599 393 q 569 133 569 201 q 571 104 569 118 q 574 81 572 90 q 674 69 618 74 q 784 59 729 64 q 885 49 839 54 q 958 38 932 44 q 914 3 950 15 q 826 -13 878 -8 q 715 -18 774 -18 q 601 -17 657 -18 q 504 -12 546 -17 q 470 55 481 10 q 460 154 460 100 q 466 247 460 197 q 482 350 472 297 q 372 366 421 360 q 279 378 322 372 q 151 130 214 257 q 36 -121 89 3 m 493 406 q 540 584 514 493 q 597 757 567 675 q 654 901 626 839 q 556 808 611 874 q 441 649 501 742 q 318 446 381 557 q 410 426 364 438 q 493 406 456 414 m 825 1039 q 807 1058 813 1044 q 801 1078 801 1072 q 816 1117 801 1090 q 853 1173 831 1143 q 899 1223 875 1203 q 946 1243 924 1243 q 968 1234 958 1243 q 979 1199 978 1225 q 893 1117 931 1154 q 825 1039 856 1079 z "},"":{"ha":758,"x_min":35,"x_max":850,"o":"m 318 -121 q 155 -72 218 -121 q 63 56 92 -22 q 35 219 35 135 q 68 440 35 329 q 160 651 101 551 q 292 830 218 751 q 449 953 367 908 q 613 999 532 999 q 708 971 671 999 q 746 876 746 943 q 732 785 746 836 q 694 688 718 735 q 640 610 669 640 q 582 579 611 579 q 556 587 569 579 q 533 615 543 594 q 580 674 554 639 q 630 747 606 708 q 669 824 654 786 q 683 890 683 863 q 668 934 683 918 q 617 950 653 950 q 492 903 557 950 q 367 776 428 856 q 259 597 307 696 q 183 396 211 499 q 154 200 154 293 q 174 71 154 132 q 238 -28 193 10 q 351 -67 282 -67 q 499 -25 425 -67 q 634 85 572 17 q 732 231 696 153 l 757 214 q 644 47 710 122 q 496 -75 578 -29 q 318 -121 414 -121 m 694 1038 q 676 1057 682 1043 q 671 1076 671 1071 q 685 1115 671 1089 q 722 1172 700 1142 q 769 1222 744 1201 q 815 1242 793 1242 q 838 1233 828 1242 q 849 1197 847 1224 q 763 1115 800 1153 q 694 1038 725 1078 z "},"":{"ha":758,"x_min":35,"x_max":843,"o":"m 318 -121 q 155 -72 218 -121 q 63 56 92 -22 q 35 219 35 135 q 68 440 35 329 q 160 651 101 551 q 292 830 218 751 q 449 953 367 908 q 613 999 532 999 q 708 971 671 999 q 746 876 746 943 q 732 785 746 836 q 694 688 718 735 q 640 610 669 640 q 582 579 611 579 q 556 587 569 579 q 533 615 543 594 q 580 674 554 639 q 630 747 606 708 q 669 824 654 786 q 683 890 683 863 q 668 934 683 918 q 617 950 653 950 q 492 903 557 950 q 367 776 428 856 q 259 597 307 696 q 183 396 211 499 q 154 200 154 293 q 174 71 154 132 q 238 -28 193 10 q 351 -67 282 -67 q 499 -25 425 -67 q 634 85 572 17 q 732 231 696 153 l 757 214 q 644 47 710 122 q 496 -75 578 -29 q 318 -121 414 -121 m 683 1046 q 643 1062 665 1046 q 600 1103 621 1078 q 566 1155 579 1128 q 553 1204 553 1182 q 559 1231 553 1218 q 579 1250 565 1243 q 625 1180 600 1210 q 683 1119 650 1150 q 761 1154 726 1135 q 826 1200 796 1174 q 840 1185 836 1193 q 843 1168 843 1176 q 824 1126 843 1147 q 778 1087 806 1106 q 724 1057 750 1068 q 683 1046 697 1046 z "},"":{"ha":758,"x_min":35,"x_max":757,"o":"m 318 -121 q 155 -72 218 -121 q 63 56 92 -22 q 35 219 35 135 q 68 440 35 329 q 160 651 101 551 q 292 830 218 751 q 449 953 367 908 q 613 999 532 999 q 708 971 671 999 q 746 876 746 943 q 732 785 746 836 q 694 688 718 735 q 640 610 669 640 q 582 579 611 579 q 556 587 569 579 q 533 615 543 594 q 580 674 554 639 q 630 747 606 708 q 669 824 654 786 q 683 890 683 863 q 668 934 683 918 q 617 950 653 950 q 492 903 557 950 q 367 776 428 856 q 259 597 307 696 q 183 396 211 499 q 154 200 154 293 q 174 71 154 132 q 238 -28 193 10 q 351 -67 282 -67 q 499 -25 425 -67 q 634 85 572 17 q 732 231 696 153 l 757 214 q 644 47 710 122 q 496 -75 578 -29 q 318 -121 414 -121 m 513 -303 q 448 -287 471 -303 q 425 -251 425 -271 q 434 -226 425 -239 q 460 -200 443 -212 q 484 -249 468 -235 q 518 -262 500 -262 q 569 -242 543 -262 q 614 -194 596 -222 q 632 -144 632 -167 q 626 -124 632 -133 q 608 -114 621 -114 q 568 -127 592 -114 q 524 -154 544 -140 q 493 -168 503 -168 q 477 -158 483 -168 q 471 -140 471 -149 q 483 -120 471 -137 q 513 -79 494 -103 q 549 -33 531 -56 q 579 0 567 -11 l 599 0 l 528 -110 q 563 -92 542 -101 q 615 -82 585 -82 q 665 -97 647 -82 q 682 -144 682 -112 q 658 -219 682 -182 q 595 -279 633 -256 q 513 -303 557 -303 z "},"":{"ha":758,"x_min":35,"x_max":849,"o":"m 318 -121 q 155 -72 218 -121 q 63 56 92 -22 q 35 219 35 135 q 68 440 35 329 q 160 651 101 551 q 292 830 218 751 q 449 953 367 908 q 613 999 532 999 q 708 971 671 999 q 746 876 746 943 q 732 785 746 836 q 694 688 718 735 q 640 610 669 640 q 582 579 611 579 q 556 587 569 579 q 533 615 543 594 q 580 674 554 639 q 630 747 606 708 q 669 824 654 786 q 683 890 683 863 q 668 934 683 918 q 617 950 653 950 q 492 903 557 950 q 367 776 428 856 q 259 597 307 696 q 183 396 211 499 q 154 200 154 293 q 174 71 154 132 q 238 -28 193 10 q 351 -67 282 -67 q 499 -25 425 -67 q 634 85 572 17 q 732 231 696 153 l 757 214 q 644 47 710 122 q 496 -75 578 -29 q 318 -121 414 -121 m 822 1032 q 776 1099 801 1071 q 719 1156 751 1126 q 645 1124 679 1142 q 578 1079 611 1106 q 565 1094 568 1085 q 563 1110 563 1103 q 581 1151 563 1131 q 627 1190 600 1172 q 681 1219 654 1208 q 721 1231 707 1231 q 760 1215 738 1231 q 802 1176 782 1200 q 835 1126 822 1153 q 849 1079 849 1100 q 842 1053 849 1065 q 822 1032 836 1040 z "},"":{"ha":758,"x_min":35,"x_max":779,"o":"m 318 -121 q 155 -72 218 -121 q 63 56 92 -22 q 35 219 35 135 q 68 440 35 329 q 160 651 101 551 q 292 830 218 751 q 449 953 367 908 q 613 999 532 999 q 708 971 671 999 q 746 876 746 943 q 732 785 746 836 q 694 688 718 735 q 640 610 669 640 q 582 579 611 579 q 556 587 569 579 q 533 615 543 594 q 580 674 554 639 q 630 747 606 708 q 669 824 654 786 q 683 890 683 863 q 668 934 683 918 q 617 950 653 950 q 492 903 557 950 q 367 776 428 856 q 259 597 307 696 q 183 396 211 499 q 154 200 154 293 q 174 71 154 132 q 238 -28 193 10 q 351 -67 282 -67 q 499 -25 425 -67 q 634 85 572 17 q 732 231 696 153 l 757 214 q 644 47 710 122 q 496 -75 578 -29 q 318 -121 414 -121 m 694 1067 q 653 1080 669 1067 q 636 1117 636 1093 q 667 1166 636 1147 q 729 1185 697 1185 q 767 1172 754 1185 q 779 1138 779 1160 q 753 1088 779 1110 q 694 1067 726 1067 z "},"":{"ha":1800,"x_min":85,"x_max":1844,"o":"m 239 -121 q 154 -108 194 -121 q 85 -56 114 -96 q 113 72 94 0 q 156 226 132 144 q 204 388 179 307 q 253 541 229 469 q 295 667 276 613 q 324 747 314 721 q 338 780 328 758 q 362 824 347 801 q 395 863 376 847 q 435 879 414 879 q 479 863 456 879 q 392 644 436 764 q 308 396 349 524 q 235 147 268 268 q 181 -74 201 26 q 213 -78 197 -76 q 243 -79 228 -79 q 415 -37 332 -79 q 568 76 497 4 q 692 240 639 149 q 774 433 744 332 q 803 632 803 533 q 766 816 803 744 q 665 922 729 888 q 515 956 600 956 q 353 921 425 956 q 239 826 281 886 q 197 692 197 767 q 199 662 197 676 q 206 636 201 647 q 135 660 156 636 q 114 717 114 683 q 148 815 114 765 q 244 907 182 865 q 386 974 306 949 q 558 1000 467 1000 q 764 949 686 1000 q 877 810 842 897 q 913 617 913 724 q 875 386 913 496 q 771 184 838 276 q 619 24 704 92 q 435 -83 533 -44 q 239 -121 338 -121 m 1542 -121 q 1430 -101 1490 -121 q 1308 -52 1369 -81 q 1188 1 1246 -24 q 1095 -54 1140 -33 q 1008 -75 1050 -75 q 936 -57 965 -75 q 891 -12 907 -39 q 875 39 875 14 q 899 92 875 69 q 985 114 924 114 q 1075 103 1026 114 q 1176 78 1124 93 q 1312 243 1243 146 q 1444 443 1381 340 q 1357 438 1396 442 q 1261 426 1318 433 l 1215 419 q 1247 484 1218 461 q 1324 515 1276 507 q 1426 524 1371 524 q 1460 523 1444 524 q 1490 521 1475 522 q 1585 699 1543 615 q 1650 843 1628 783 q 1599 858 1625 849 q 1540 881 1572 868 q 1388 933 1460 911 q 1263 954 1317 954 q 1183 937 1218 954 q 1127 875 1147 919 q 1107 753 1107 831 q 1108 740 1107 749 q 1110 723 1108 732 q 1114 707 1113 714 q 1050 742 1069 715 q 1031 810 1031 768 q 1103 952 1031 904 q 1304 1000 1175 1000 q 1442 987 1378 1000 q 1566 956 1507 974 q 1681 924 1625 938 q 1792 911 1736 911 q 1819 913 1806 911 q 1844 915 1833 914 q 1803 881 1821 894 q 1769 860 1785 868 q 1693 699 1739 789 q 1592 513 1647 608 q 1672 504 1636 508 q 1742 500 1707 500 q 1704 464 1724 475 q 1650 450 1685 453 q 1551 446 1615 447 q 1406 233 1483 335 q 1251 57 1329 131 q 1431 6 1342 29 q 1589 -18 1521 -18 q 1646 -12 1621 -18 q 1696 7 1671 -6 q 1633 -92 1671 -64 q 1542 -121 1596 -121 m 1000 -35 q 1058 -17 1026 -35 q 1124 29 1089 0 q 1038 60 1078 47 q 967 72 997 72 q 925 63 936 72 q 914 39 914 53 q 938 -9 914 17 q 1000 -35 961 -35 m 1525 1047 q 1485 1063 1507 1047 q 1442 1104 1463 1079 q 1408 1156 1421 1129 q 1394 1206 1394 1183 q 1401 1232 1394 1219 q 1421 1251 1407 1244 q 1467 1181 1442 1211 q 1525 1121 1492 1151 q 1603 1156 1568 1136 q 1668 1201 1638 1175 q 1681 1186 1678 1194 q 1685 1169 1685 1178 q 1666 1128 1685 1149 q 1619 1088 1647 1107 q 1565 1058 1592 1069 q 1525 1047 1539 1047 z "},"":{"ha":924,"x_min":43,"x_max":914,"o":"m 240 -121 q 155 -108 196 -121 q 85 -56 114 -96 q 138 160 104 40 q 206 392 171 279 q 128 388 167 392 q 43 376 90 383 q 107 429 58 414 q 224 449 156 444 q 283 631 256 550 q 325 747 311 713 q 339 780 329 758 q 363 824 349 801 q 395 863 376 847 q 436 879 414 879 q 479 863 457 879 q 401 668 440 774 q 326 451 363 563 q 464 447 399 451 q 563 439 529 442 q 481 402 522 411 q 408 393 439 393 l 308 393 q 235 147 268 268 q 181 -74 203 26 q 212 -76 199 -75 q 239 -78 225 -78 q 410 -37 328 -78 q 565 73 493 3 q 690 234 636 143 q 774 426 744 325 q 804 629 804 528 q 724 877 804 799 q 515 956 643 956 q 353 921 425 956 q 240 826 281 886 q 199 692 199 767 q 201 662 199 676 q 207 636 203 647 q 135 660 157 636 q 114 717 114 683 q 149 815 114 765 q 244 907 183 865 q 386 974 306 949 q 558 1000 467 1000 q 765 948 688 1000 q 878 809 843 896 q 914 614 914 722 q 876 385 914 494 q 772 183 839 275 q 620 22 706 90 q 437 -83 535 -46 q 240 -121 339 -121 z "},"":{"ha":922,"x_min":85,"x_max":913,"o":"m 239 -121 q 154 -108 194 -121 q 85 -56 114 -96 q 113 72 94 0 q 156 226 132 144 q 204 388 179 307 q 253 541 229 469 q 295 667 276 613 q 324 747 314 721 q 338 780 328 758 q 362 824 347 801 q 395 863 376 847 q 435 879 414 879 q 479 863 456 879 q 392 644 436 764 q 308 396 349 524 q 235 147 268 268 q 181 -74 201 26 q 213 -78 197 -76 q 243 -79 228 -79 q 415 -37 332 -79 q 568 76 497 4 q 692 240 639 149 q 774 433 744 332 q 803 632 803 533 q 766 816 803 744 q 665 922 729 888 q 515 956 600 956 q 353 921 425 956 q 239 826 281 886 q 197 692 197 767 q 199 662 197 676 q 206 636 201 647 q 135 660 156 636 q 114 717 114 683 q 148 815 114 765 q 244 907 182 865 q 386 974 306 949 q 558 1000 467 1000 q 764 949 686 1000 q 877 810 842 897 q 913 617 913 724 q 875 386 913 496 q 771 184 838 276 q 619 24 704 92 q 435 -83 533 -44 q 239 -121 338 -121 m 692 1047 q 651 1063 674 1047 q 608 1104 629 1079 q 574 1156 588 1129 q 561 1206 561 1183 q 567 1232 561 1219 q 588 1251 574 1244 q 633 1181 608 1211 q 692 1121 658 1151 q 769 1156 735 1136 q 835 1201 804 1175 q 848 1186 844 1194 q 851 1169 851 1178 q 833 1128 851 1149 q 786 1088 814 1107 q 732 1058 758 1069 q 692 1047 706 1047 z "},"":{"ha":924,"x_min":43,"x_max":914,"o":"m 240 -121 q 155 -108 196 -121 q 85 -56 114 -96 q 138 160 104 40 q 206 392 171 279 q 128 388 167 392 q 43 376 90 383 q 107 429 58 414 q 224 449 156 444 q 283 631 256 550 q 325 747 311 713 q 339 780 329 758 q 363 824 349 801 q 395 863 376 847 q 436 879 414 879 q 479 863 457 879 q 401 668 440 774 q 326 451 363 563 q 464 447 399 451 q 563 439 529 442 q 481 402 522 411 q 408 393 439 393 l 308 393 q 235 147 268 268 q 181 -74 203 26 q 212 -76 199 -75 q 239 -78 225 -78 q 410 -37 328 -78 q 565 73 493 3 q 690 234 636 143 q 774 426 744 325 q 804 629 804 528 q 724 877 804 799 q 515 956 643 956 q 353 921 425 956 q 240 826 281 886 q 199 692 199 767 q 201 662 199 676 q 207 636 203 647 q 135 660 157 636 q 114 717 114 683 q 149 815 114 765 q 244 907 183 865 q 386 974 306 949 q 558 1000 467 1000 q 765 948 688 1000 q 878 809 843 896 q 914 614 914 722 q 876 385 914 494 q 772 183 839 275 q 620 22 706 90 q 437 -83 535 -46 q 240 -121 339 -121 z "},"":{"ha":1342,"x_min":85,"x_max":1390,"o":"m 239 -121 q 154 -108 194 -121 q 85 -56 114 -96 q 113 72 94 0 q 156 226 132 144 q 204 388 179 307 q 253 541 229 469 q 295 667 276 613 q 324 747 314 721 q 338 780 328 758 q 362 824 347 801 q 395 863 376 847 q 435 879 414 879 q 479 863 456 879 q 392 644 436 764 q 308 396 349 524 q 235 147 268 268 q 181 -74 201 26 q 213 -78 197 -76 q 243 -79 228 -79 q 415 -37 332 -79 q 568 76 497 4 q 692 240 639 149 q 774 433 744 332 q 803 632 803 533 q 766 816 803 744 q 665 922 729 888 q 515 956 600 956 q 353 921 425 956 q 239 826 281 886 q 197 692 197 767 q 199 662 197 676 q 206 636 201 647 q 135 660 156 636 q 114 717 114 683 q 148 815 114 765 q 244 907 182 865 q 386 974 306 949 q 558 1000 467 1000 q 764 949 686 1000 q 877 810 842 897 q 913 617 913 724 q 875 386 913 496 q 771 184 838 276 q 619 24 704 92 q 435 -83 533 -44 q 239 -121 338 -121 m 893 -389 q 823 -372 849 -389 q 797 -315 797 -356 q 827 -231 797 -269 q 907 -159 857 -193 q 1018 -90 957 -125 q 1140 -14 1079 -54 q 1117 76 1139 35 q 1038 161 1094 117 q 1123 209 1088 175 q 1176 285 1158 243 q 1194 361 1194 326 q 1181 412 1194 392 q 1139 432 1168 432 q 1058 397 1094 432 q 991 306 1022 363 q 928 181 960 249 l 908 197 q 972 347 939 281 q 1051 451 1006 413 q 1158 490 1096 490 q 1246 459 1210 490 q 1282 372 1282 428 q 1259 283 1282 325 q 1199 207 1236 240 q 1119 153 1163 174 q 1178 95 1154 126 q 1215 32 1201 64 q 1308 119 1267 71 q 1369 226 1349 167 l 1385 208 q 1323 94 1365 146 q 1225 1 1281 43 q 1229 -20 1228 -8 q 1231 -44 1231 -32 q 1203 -167 1231 -106 q 1127 -279 1175 -229 q 1019 -359 1079 -329 q 893 -389 960 -389 m 881 -344 q 946 -325 906 -344 q 1027 -268 986 -306 q 1099 -177 1068 -231 q 1138 -54 1131 -124 q 1031 -118 1083 -87 q 935 -178 978 -149 q 865 -238 892 -208 q 839 -301 839 -268 q 851 -334 839 -324 q 881 -344 864 -344 m 1231 590 q 1190 606 1213 590 q 1147 647 1168 622 q 1113 699 1126 672 q 1100 749 1100 726 q 1106 775 1100 763 q 1126 794 1113 788 q 1172 724 1147 754 q 1231 664 1197 694 q 1308 699 1274 679 q 1374 744 1343 718 q 1387 729 1383 738 q 1390 713 1390 721 q 1372 671 1390 692 q 1325 631 1353 650 q 1271 601 1297 613 q 1231 590 1244 590 z "},"":{"ha":708,"x_min":-15,"x_max":757,"o":"m 264 -121 q 115 -86 178 -121 q 19 7 53 -51 q -15 135 -15 65 q 12 258 -15 197 q 88 369 39 319 q 201 453 136 419 q 342 494 267 486 q 264 596 289 539 q 239 710 239 653 q 276 850 239 783 q 378 958 313 917 q 529 999 444 999 q 652 959 610 999 q 694 846 694 919 q 676 744 694 793 q 631 665 657 696 q 581 635 604 635 q 549 649 564 635 q 524 683 533 664 q 608 773 574 725 q 642 874 642 821 q 616 940 642 917 q 543 963 590 963 q 435 924 479 963 q 369 824 392 886 q 347 690 347 763 q 365 578 347 638 q 435 475 382 519 q 269 405 340 460 q 160 276 199 350 q 121 131 121 203 q 138 40 121 86 q 195 -37 156 -6 q 300 -68 235 -68 q 448 -26 375 -68 q 582 84 521 15 q 681 231 643 153 l 706 214 q 589 44 656 119 q 440 -76 522 -32 q 264 -121 358 -121 m 603 1039 q 585 1058 590 1044 q 579 1078 579 1072 q 594 1117 579 1090 q 631 1173 608 1143 q 677 1223 653 1203 q 724 1243 701 1243 q 746 1234 736 1243 q 757 1199 756 1225 q 671 1117 708 1154 q 603 1039 633 1079 z "},"":{"ha":708,"x_min":-15,"x_max":792,"o":"m 264 -121 q 115 -86 178 -121 q 19 7 53 -51 q -15 135 -15 65 q 12 258 -15 197 q 88 369 39 319 q 201 453 136 419 q 342 494 267 486 q 264 596 289 539 q 239 710 239 653 q 276 850 239 783 q 378 958 313 917 q 529 999 444 999 q 652 959 610 999 q 694 846 694 919 q 676 744 694 793 q 631 665 657 696 q 581 635 604 635 q 549 649 564 635 q 524 683 533 664 q 608 773 574 725 q 642 874 642 821 q 616 940 642 917 q 543 963 590 963 q 435 924 479 963 q 369 824 392 886 q 347 690 347 763 q 365 578 347 638 q 435 475 382 519 q 269 405 340 460 q 160 276 199 350 q 121 131 121 203 q 138 40 121 86 q 195 -37 156 -6 q 300 -68 235 -68 q 448 -26 375 -68 q 582 84 521 15 q 681 231 643 153 l 706 214 q 589 44 656 119 q 440 -76 522 -32 q 264 -121 358 -121 m 642 1053 q 555 1074 588 1053 q 508 1126 522 1096 q 494 1182 494 1157 q 504 1224 494 1207 q 529 1250 514 1240 q 561 1167 535 1206 q 644 1129 588 1129 q 728 1154 696 1129 q 775 1207 760 1179 q 788 1186 785 1199 q 792 1164 792 1174 q 747 1085 792 1117 q 642 1053 701 1053 z "},"":{"ha":708,"x_min":-15,"x_max":751,"o":"m 264 -121 q 115 -86 178 -121 q 19 7 53 -51 q -15 135 -15 65 q 12 258 -15 197 q 88 369 39 319 q 201 453 136 419 q 342 494 267 486 q 264 596 289 539 q 239 710 239 653 q 276 850 239 783 q 378 958 313 917 q 529 999 444 999 q 652 959 610 999 q 694 846 694 919 q 676 744 694 793 q 631 665 657 696 q 581 635 604 635 q 549 649 564 635 q 524 683 533 664 q 608 773 574 725 q 642 874 642 821 q 616 940 642 917 q 543 963 590 963 q 435 924 479 963 q 369 824 392 886 q 347 690 347 763 q 365 578 347 638 q 435 475 382 519 q 269 405 340 460 q 160 276 199 350 q 121 131 121 203 q 138 40 121 86 q 195 -37 156 -6 q 300 -68 235 -68 q 448 -26 375 -68 q 582 84 521 15 q 681 231 643 153 l 706 214 q 589 44 656 119 q 440 -76 522 -32 q 264 -121 358 -121 m 590 1047 q 550 1063 572 1047 q 507 1104 528 1079 q 473 1156 486 1129 q 460 1206 460 1183 q 466 1232 460 1219 q 486 1251 472 1244 q 532 1181 507 1211 q 590 1121 557 1151 q 668 1156 633 1136 q 733 1201 703 1175 q 747 1186 743 1194 q 750 1169 750 1178 q 731 1128 750 1149 q 685 1088 713 1107 q 631 1058 657 1069 q 590 1047 604 1047 z "},"":{"ha":708,"x_min":-15,"x_max":757,"o":"m 264 -121 q 115 -86 178 -121 q 19 7 53 -51 q -15 135 -15 65 q 12 258 -15 197 q 88 369 39 319 q 201 453 136 419 q 342 494 267 486 q 264 596 289 539 q 239 710 239 653 q 276 850 239 783 q 378 958 313 917 q 529 999 444 999 q 652 959 610 999 q 694 846 694 919 q 676 744 694 793 q 631 665 657 696 q 581 635 604 635 q 549 649 564 635 q 524 683 533 664 q 608 773 574 725 q 642 874 642 821 q 616 940 642 917 q 543 963 590 963 q 435 924 479 963 q 369 824 392 886 q 347 690 347 763 q 365 578 347 638 q 435 475 382 519 q 269 405 340 460 q 160 276 199 350 q 121 131 121 203 q 138 40 121 86 q 195 -37 156 -6 q 300 -68 235 -68 q 448 -26 375 -68 q 582 84 521 15 q 681 231 643 153 l 706 214 q 589 44 656 119 q 440 -76 522 -32 q 264 -121 358 -121 m 729 1033 q 683 1100 708 1072 q 626 1157 658 1128 q 552 1125 586 1143 q 485 1081 518 1107 q 472 1095 475 1086 q 469 1111 469 1104 q 488 1153 469 1132 q 534 1192 507 1174 q 588 1221 561 1210 q 628 1232 614 1232 q 667 1217 644 1232 q 709 1178 689 1201 q 742 1128 729 1154 q 756 1081 756 1101 q 749 1054 756 1067 q 729 1033 743 1042 z "},"":{"ha":708,"x_min":-15,"x_max":914,"o":"m 264 -121 q 115 -86 178 -121 q 19 7 53 -51 q -15 135 -15 65 q 12 258 -15 197 q 88 369 39 319 q 201 453 136 419 q 342 494 267 486 q 264 596 289 539 q 239 710 239 653 q 276 850 239 783 q 378 958 313 917 q 529 999 444 999 q 652 959 610 999 q 694 846 694 919 q 676 744 694 793 q 631 665 657 696 q 581 635 604 635 q 549 649 564 635 q 524 683 533 664 q 608 773 574 725 q 642 874 642 821 q 616 940 642 917 q 543 963 590 963 q 435 924 479 963 q 369 824 392 886 q 347 690 347 763 q 365 578 347 638 q 435 475 382 519 q 269 405 340 460 q 160 276 199 350 q 121 131 121 203 q 138 40 121 86 q 195 -37 156 -6 q 300 -68 235 -68 q 448 -26 375 -68 q 582 84 521 15 q 681 231 643 153 l 706 214 q 589 44 656 119 q 440 -76 522 -32 q 264 -121 358 -121 m 783 1167 q 760 1185 768 1174 q 753 1208 753 1197 q 765 1245 753 1222 q 797 1291 778 1268 q 839 1330 817 1314 q 879 1346 861 1346 q 901 1336 892 1346 q 914 1301 911 1326 q 867 1258 890 1281 q 822 1212 843 1235 q 783 1167 800 1189 m 729 1033 q 683 1100 708 1072 q 626 1157 658 1128 q 552 1125 586 1143 q 485 1081 518 1107 q 472 1095 475 1086 q 469 1111 469 1104 q 488 1153 469 1132 q 534 1192 507 1174 q 588 1221 561 1210 q 628 1232 614 1232 q 667 1217 644 1232 q 709 1178 689 1201 q 742 1128 729 1154 q 756 1081 756 1101 q 749 1054 756 1067 q 729 1033 743 1042 z "},"":{"ha":708,"x_min":-15,"x_max":757,"o":"m 264 -121 q 115 -86 178 -121 q 19 7 53 -51 q -15 135 -15 65 q 12 258 -15 197 q 88 369 39 319 q 201 453 136 419 q 342 494 267 486 q 264 596 289 539 q 239 710 239 653 q 276 850 239 783 q 378 958 313 917 q 529 999 444 999 q 652 959 610 999 q 694 846 694 919 q 676 744 694 793 q 631 665 657 696 q 581 635 604 635 q 549 649 564 635 q 524 683 533 664 q 608 773 574 725 q 642 874 642 821 q 616 940 642 917 q 543 963 590 963 q 435 924 479 963 q 369 824 392 886 q 347 690 347 763 q 365 578 347 638 q 435 475 382 519 q 269 405 340 460 q 160 276 199 350 q 121 131 121 203 q 138 40 121 86 q 195 -37 156 -6 q 300 -68 235 -68 q 448 -26 375 -68 q 582 84 521 15 q 681 231 643 153 l 706 214 q 589 44 656 119 q 440 -76 522 -32 q 264 -121 358 -121 m 729 1033 q 683 1100 708 1072 q 626 1157 658 1128 q 552 1125 586 1143 q 485 1081 518 1107 q 472 1095 475 1086 q 469 1111 469 1104 q 488 1153 469 1132 q 534 1192 507 1174 q 588 1221 561 1210 q 628 1232 614 1232 q 667 1217 644 1232 q 709 1178 689 1201 q 742 1128 729 1154 q 756 1081 756 1101 q 749 1054 756 1067 q 729 1033 743 1042 m 210 -358 q 168 -345 185 -358 q 151 -308 151 -332 q 182 -259 151 -278 q 244 -240 213 -240 q 282 -253 269 -240 q 294 -287 294 -265 q 268 -337 294 -315 q 210 -358 242 -358 z "},"":{"ha":708,"x_min":-15,"x_max":833,"o":"m 264 -121 q 115 -86 178 -121 q 19 7 53 -51 q -15 135 -15 65 q 12 258 -15 197 q 88 369 39 319 q 201 453 136 419 q 342 494 267 486 q 264 596 289 539 q 239 710 239 653 q 276 850 239 783 q 378 958 313 917 q 529 999 444 999 q 652 959 610 999 q 694 846 694 919 q 676 744 694 793 q 631 665 657 696 q 581 635 604 635 q 549 649 564 635 q 524 683 533 664 q 608 773 574 725 q 642 874 642 821 q 616 940 642 917 q 543 963 590 963 q 435 924 479 963 q 369 824 392 886 q 347 690 347 763 q 365 578 347 638 q 435 475 382 519 q 269 405 340 460 q 160 276 199 350 q 121 131 121 203 q 138 40 121 86 q 195 -37 156 -6 q 300 -68 235 -68 q 448 -26 375 -68 q 582 84 521 15 q 681 231 643 153 l 706 214 q 589 44 656 119 q 440 -76 522 -32 q 264 -121 358 -121 m 803 1164 q 770 1213 789 1188 q 731 1263 751 1238 q 689 1313 710 1289 q 703 1343 693 1335 q 726 1351 713 1351 q 763 1334 744 1351 q 797 1292 782 1317 q 822 1243 813 1267 q 832 1204 832 1219 q 803 1164 832 1175 m 729 1033 q 683 1100 708 1072 q 626 1157 658 1128 q 552 1125 586 1143 q 485 1081 518 1107 q 472 1095 475 1086 q 469 1111 469 1104 q 488 1153 469 1132 q 534 1192 507 1174 q 588 1221 561 1210 q 628 1232 614 1232 q 667 1217 644 1232 q 709 1178 689 1201 q 742 1128 729 1154 q 756 1081 756 1101 q 749 1054 756 1067 q 729 1033 743 1042 z "},"":{"ha":708,"x_min":-15,"x_max":900,"o":"m 264 -121 q 115 -86 178 -121 q 19 7 53 -51 q -15 135 -15 65 q 12 258 -15 197 q 88 369 39 319 q 201 453 136 419 q 342 494 267 486 q 264 596 289 539 q 239 710 239 653 q 276 850 239 783 q 378 958 313 917 q 529 999 444 999 q 652 959 610 999 q 694 846 694 919 q 676 744 694 793 q 631 665 657 696 q 581 635 604 635 q 549 649 564 635 q 524 683 533 664 q 608 773 574 725 q 642 874 642 821 q 616 940 642 917 q 543 963 590 963 q 435 924 479 963 q 369 824 392 886 q 347 690 347 763 q 365 578 347 638 q 435 475 382 519 q 269 405 340 460 q 160 276 199 350 q 121 131 121 203 q 138 40 121 86 q 195 -37 156 -6 q 300 -68 235 -68 q 448 -26 375 -68 q 582 84 521 15 q 681 231 643 153 l 706 214 q 589 44 656 119 q 440 -76 522 -32 q 264 -121 358 -121 m 818 1154 q 792 1158 804 1154 q 774 1168 781 1163 q 826 1186 804 1172 q 849 1228 849 1200 q 817 1274 849 1258 q 719 1289 786 1289 q 738 1336 719 1317 q 790 1356 757 1356 q 868 1322 838 1356 q 899 1240 899 1289 q 876 1178 899 1201 q 818 1154 854 1154 m 729 1033 q 683 1100 708 1072 q 626 1157 658 1128 q 552 1125 586 1143 q 485 1081 518 1107 q 472 1095 475 1086 q 469 1111 469 1104 q 488 1153 469 1132 q 534 1192 507 1174 q 588 1221 561 1210 q 628 1232 614 1232 q 667 1217 644 1232 q 709 1178 689 1201 q 742 1128 729 1154 q 756 1081 756 1101 q 749 1054 756 1067 q 729 1033 743 1042 z "},"":{"ha":708,"x_min":-15,"x_max":899,"o":"m 264 -121 q 115 -86 178 -121 q 19 7 53 -51 q -15 135 -15 65 q 12 258 -15 197 q 88 369 39 319 q 201 453 136 419 q 342 494 267 486 q 264 596 289 539 q 239 710 239 653 q 276 850 239 783 q 378 958 313 917 q 529 999 444 999 q 652 959 610 999 q 694 846 694 919 q 676 744 694 793 q 631 665 657 696 q 581 635 604 635 q 549 649 564 635 q 524 683 533 664 q 608 773 574 725 q 642 874 642 821 q 616 940 642 917 q 543 963 590 963 q 435 924 479 963 q 369 824 392 886 q 347 690 347 763 q 365 578 347 638 q 435 475 382 519 q 269 405 340 460 q 160 276 199 350 q 121 131 121 203 q 138 40 121 86 q 195 -37 156 -6 q 300 -68 235 -68 q 448 -26 375 -68 q 582 84 521 15 q 681 231 643 153 l 706 214 q 589 44 656 119 q 440 -76 522 -32 q 264 -121 358 -121 m 642 1053 q 555 1074 588 1053 q 508 1126 522 1096 q 494 1182 494 1157 q 504 1224 494 1207 q 529 1250 514 1240 q 561 1167 535 1206 q 644 1129 588 1129 q 728 1154 696 1129 q 775 1207 760 1179 q 788 1186 785 1199 q 792 1164 792 1174 q 747 1085 792 1117 q 642 1053 701 1053 m 785 1236 q 706 1252 747 1236 q 624 1285 665 1268 q 543 1301 583 1301 q 502 1297 522 1301 q 463 1281 482 1292 q 517 1338 486 1321 q 585 1354 549 1354 q 665 1338 624 1354 q 751 1304 707 1321 q 840 1288 794 1288 q 900 1300 869 1288 q 847 1251 875 1267 q 785 1236 819 1236 z "},"":{"ha":708,"x_min":-15,"x_max":706,"o":"m 264 -121 q 115 -86 178 -121 q 19 7 53 -51 q -15 135 -15 65 q 12 258 -15 197 q 88 369 39 319 q 201 453 136 419 q 342 494 267 486 q 264 596 289 539 q 239 710 239 653 q 276 850 239 783 q 378 958 313 917 q 529 999 444 999 q 652 959 610 999 q 694 846 694 919 q 676 744 694 793 q 631 665 657 696 q 581 635 604 635 q 549 649 564 635 q 524 683 533 664 q 608 773 574 725 q 642 874 642 821 q 616 940 642 917 q 543 963 590 963 q 435 924 479 963 q 369 824 392 886 q 347 690 347 763 q 365 578 347 638 q 435 475 382 519 q 269 405 340 460 q 160 276 199 350 q 121 131 121 203 q 138 40 121 86 q 195 -37 156 -6 q 300 -68 235 -68 q 448 -26 375 -68 q 582 84 521 15 q 681 231 643 153 l 706 214 q 589 44 656 119 q 440 -76 522 -32 q 264 -121 358 -121 m 561 1040 q 498 1124 532 1081 q 424 1213 464 1167 q 444 1231 433 1224 q 468 1238 454 1238 q 506 1218 486 1238 q 542 1170 525 1199 q 569 1116 558 1142 q 579 1075 579 1090 q 561 1040 579 1051 m 656 1046 q 610 1123 636 1082 q 554 1203 585 1164 q 572 1230 563 1222 q 594 1238 582 1238 q 629 1221 613 1238 q 658 1179 646 1204 q 678 1129 671 1154 q 685 1089 685 1104 q 676 1058 685 1067 q 656 1046 667 1049 z "},"":{"ha":708,"x_min":-15,"x_max":788,"o":"m 264 -121 q 115 -86 178 -121 q 19 7 53 -51 q -15 135 -15 65 q 12 258 -15 197 q 88 369 39 319 q 201 453 136 419 q 342 494 267 486 q 264 596 289 539 q 239 710 239 653 q 276 850 239 783 q 378 958 313 917 q 529 999 444 999 q 652 959 610 999 q 694 846 694 919 q 676 744 694 793 q 631 665 657 696 q 581 635 604 635 q 549 649 564 635 q 524 683 533 664 q 608 773 574 725 q 642 874 642 821 q 616 940 642 917 q 543 963 590 963 q 435 924 479 963 q 369 824 392 886 q 347 690 347 763 q 365 578 347 638 q 435 475 382 519 q 269 405 340 460 q 160 276 199 350 q 121 131 121 203 q 138 40 121 86 q 195 -37 156 -6 q 300 -68 235 -68 q 448 -26 375 -68 q 582 84 521 15 q 681 231 643 153 l 706 214 q 589 44 656 119 q 440 -76 522 -32 q 264 -121 358 -121 m 704 1046 q 667 1056 683 1046 q 650 1089 650 1067 q 681 1136 650 1117 q 743 1156 713 1156 q 775 1147 763 1156 q 788 1114 788 1138 q 761 1068 788 1090 q 704 1046 735 1046 m 504 1075 q 467 1085 483 1075 q 450 1118 450 1094 q 481 1164 450 1144 q 542 1183 511 1183 q 574 1175 563 1183 q 586 1143 586 1167 q 560 1097 586 1119 q 504 1075 535 1075 z "},"":{"ha":708,"x_min":-15,"x_max":706,"o":"m 264 -121 q 115 -86 178 -121 q 19 7 53 -51 q -15 135 -15 65 q 12 258 -15 197 q 88 369 39 319 q 201 453 136 419 q 342 494 267 486 q 264 596 289 539 q 239 710 239 653 q 276 850 239 783 q 378 958 313 917 q 529 999 444 999 q 652 959 610 999 q 694 846 694 919 q 676 744 694 793 q 631 665 657 696 q 581 635 604 635 q 549 649 564 635 q 524 683 533 664 q 608 773 574 725 q 642 874 642 821 q 616 940 642 917 q 543 963 590 963 q 435 924 479 963 q 369 824 392 886 q 347 690 347 763 q 365 578 347 638 q 435 475 382 519 q 269 405 340 460 q 160 276 199 350 q 121 131 121 203 q 138 40 121 86 q 195 -37 156 -6 q 300 -68 235 -68 q 448 -26 375 -68 q 582 84 521 15 q 681 231 643 153 l 706 214 q 589 44 656 119 q 440 -76 522 -32 q 264 -121 358 -121 m 601 1068 q 560 1081 576 1068 q 543 1118 543 1094 q 574 1167 543 1149 q 636 1186 604 1186 q 674 1174 661 1186 q 686 1139 686 1161 q 660 1090 686 1111 q 601 1068 633 1068 z "},"":{"ha":708,"x_min":-15,"x_max":706,"o":"m 264 -121 q 115 -86 178 -121 q 19 7 53 -51 q -15 135 -15 65 q 12 258 -15 197 q 88 369 39 319 q 201 453 136 419 q 342 494 267 486 q 264 596 289 539 q 239 710 239 653 q 276 850 239 783 q 378 958 313 917 q 529 999 444 999 q 652 959 610 999 q 694 846 694 919 q 676 744 694 793 q 631 665 657 696 q 581 635 604 635 q 549 649 564 635 q 524 683 533 664 q 608 773 574 725 q 642 874 642 821 q 616 940 642 917 q 543 963 590 963 q 435 924 479 963 q 369 824 392 886 q 347 690 347 763 q 365 578 347 638 q 435 475 382 519 q 269 405 340 460 q 160 276 199 350 q 121 131 121 203 q 138 40 121 86 q 195 -37 156 -6 q 300 -68 235 -68 q 448 -26 375 -68 q 582 84 521 15 q 681 231 643 153 l 706 214 q 589 44 656 119 q 440 -76 522 -32 q 264 -121 358 -121 m 210 -358 q 168 -345 185 -358 q 151 -308 151 -332 q 182 -259 151 -278 q 244 -240 213 -240 q 282 -253 269 -240 q 294 -287 294 -265 q 268 -337 294 -315 q 210 -358 242 -358 z "},"":{"ha":708,"x_min":-15,"x_max":706,"o":"m 264 -121 q 115 -86 178 -121 q 19 7 53 -51 q -15 135 -15 65 q 12 258 -15 197 q 88 369 39 319 q 201 453 136 419 q 342 494 267 486 q 264 596 289 539 q 239 710 239 653 q 276 850 239 783 q 378 958 313 917 q 529 999 444 999 q 652 959 610 999 q 694 846 694 919 q 676 744 694 793 q 631 665 657 696 q 581 635 604 635 q 549 649 564 635 q 524 683 533 664 q 608 773 574 725 q 642 874 642 821 q 616 940 642 917 q 543 963 590 963 q 435 924 479 963 q 369 824 392 886 q 347 690 347 763 q 365 578 347 638 q 435 475 382 519 q 269 405 340 460 q 160 276 199 350 q 121 131 121 203 q 138 40 121 86 q 195 -37 156 -6 q 300 -68 235 -68 q 448 -26 375 -68 q 582 84 521 15 q 681 231 643 153 l 706 214 q 589 44 656 119 q 440 -76 522 -32 q 264 -121 358 -121 m 597 1039 q 528 1117 565 1079 q 439 1197 492 1154 q 451 1234 442 1224 q 474 1244 461 1244 q 520 1224 494 1244 q 569 1175 546 1204 q 606 1119 592 1146 q 621 1079 621 1092 q 615 1058 621 1072 q 597 1039 610 1044 z "},"":{"ha":708,"x_min":-15,"x_max":726,"o":"m 264 -121 q 115 -86 178 -121 q 19 7 53 -51 q -15 135 -15 65 q 12 258 -15 197 q 88 369 39 319 q 201 453 136 419 q 342 494 267 486 q 264 596 289 539 q 239 710 239 653 q 276 850 239 783 q 378 958 313 917 q 529 999 444 999 q 652 959 610 999 q 694 846 694 919 q 676 744 694 793 q 631 665 657 696 q 581 635 604 635 q 549 649 564 635 q 524 683 533 664 q 608 773 574 725 q 642 874 642 821 q 616 940 642 917 q 543 963 590 963 q 435 924 479 963 q 369 824 392 886 q 347 690 347 763 q 365 578 347 638 q 435 475 382 519 q 269 405 340 460 q 160 276 199 350 q 121 131 121 203 q 138 40 121 86 q 195 -37 156 -6 q 300 -68 235 -68 q 448 -26 375 -68 q 582 84 521 15 q 681 231 643 153 l 706 214 q 589 44 656 119 q 440 -76 522 -32 q 264 -121 358 -121 m 629 1044 q 601 1049 613 1044 q 582 1060 589 1054 q 647 1078 618 1064 q 676 1126 676 1093 q 644 1170 676 1157 q 547 1183 613 1183 q 566 1231 547 1211 q 618 1250 585 1250 q 696 1219 665 1250 q 726 1143 726 1188 q 699 1072 726 1100 q 629 1044 672 1044 z "},"":{"ha":708,"x_min":-15,"x_max":771,"o":"m 264 -121 q 115 -86 178 -121 q 19 7 53 -51 q -15 135 -15 65 q 12 258 -15 197 q 88 369 39 319 q 201 453 136 419 q 342 494 267 486 q 264 596 289 539 q 239 710 239 653 q 276 850 239 783 q 378 958 313 917 q 529 999 444 999 q 652 959 610 999 q 694 846 694 919 q 676 744 694 793 q 631 665 657 696 q 581 635 604 635 q 549 649 564 635 q 524 683 533 664 q 608 773 574 725 q 642 874 642 821 q 616 940 642 917 q 543 963 590 963 q 435 924 479 963 q 369 824 392 886 q 347 690 347 763 q 365 578 347 638 q 435 475 382 519 q 269 405 340 460 q 160 276 199 350 q 121 131 121 203 q 138 40 121 86 q 195 -37 156 -6 q 300 -68 235 -68 q 448 -26 375 -68 q 582 84 521 15 q 681 231 643 153 l 706 214 q 589 44 656 119 q 440 -76 522 -32 q 264 -121 358 -121 m 736 1014 q 704 1097 732 1058 q 614 1135 676 1135 q 535 1110 565 1135 q 490 1057 506 1085 q 478 1078 482 1065 q 475 1100 475 1090 q 519 1179 475 1147 q 624 1211 563 1211 q 709 1190 676 1211 q 757 1140 742 1169 q 772 1086 772 1111 q 763 1043 772 1061 q 736 1014 753 1025 z "},"":{"ha":708,"x_min":-15,"x_max":797,"o":"m 264 -121 q 115 -86 178 -121 q 19 7 53 -51 q -15 135 -15 65 q 12 258 -15 197 q 88 369 39 319 q 201 453 136 419 q 342 494 267 486 q 264 596 289 539 q 239 710 239 653 q 276 850 239 783 q 378 958 313 917 q 529 999 444 999 q 652 959 610 999 q 694 846 694 919 q 676 744 694 793 q 631 665 657 696 q 581 635 604 635 q 549 649 564 635 q 524 683 533 664 q 608 773 574 725 q 642 874 642 821 q 616 940 642 917 q 543 963 590 963 q 435 924 479 963 q 369 824 392 886 q 347 690 347 763 q 365 578 347 638 q 435 475 382 519 q 269 405 340 460 q 160 276 199 350 q 121 131 121 203 q 138 40 121 86 q 195 -37 156 -6 q 300 -68 235 -68 q 448 -26 375 -68 q 582 84 521 15 q 681 231 643 153 l 706 214 q 589 44 656 119 q 440 -76 522 -32 q 264 -121 358 -121 m 743 1051 q 666 1059 713 1051 q 569 1077 619 1067 q 473 1097 518 1088 q 396 1110 428 1107 q 461 1147 410 1147 q 571 1137 513 1147 q 689 1112 629 1126 q 797 1081 749 1097 q 743 1051 779 1051 z "},"":{"ha":708,"x_min":-15,"x_max":706,"o":"m 264 -121 q 115 -86 178 -121 q 19 7 53 -51 q -15 135 -15 65 q 12 258 -15 197 q 88 369 39 319 q 201 453 136 419 q 342 494 267 486 q 264 596 289 539 q 239 710 239 653 q 276 850 239 783 q 378 958 313 917 q 529 999 444 999 q 652 959 610 999 q 694 846 694 919 q 676 744 694 793 q 631 665 657 696 q 581 635 604 635 q 549 649 564 635 q 524 683 533 664 q 608 773 574 725 q 642 874 642 821 q 616 940 642 917 q 543 963 590 963 q 435 924 479 963 q 369 824 392 886 q 347 690 347 763 q 365 578 347 638 q 435 475 382 519 q 269 405 340 460 q 160 276 199 350 q 121 131 121 203 q 138 40 121 86 q 195 -37 156 -6 q 300 -68 235 -68 q 448 -26 375 -68 q 582 84 521 15 q 681 231 643 153 l 706 214 q 589 44 656 119 q 440 -76 522 -32 q 264 -121 358 -121 m 496 -244 q 424 -217 451 -244 q 397 -147 397 -190 q 428 -73 397 -101 q 500 -39 458 -44 q 466 -74 479 -54 q 453 -119 453 -93 q 469 -162 453 -143 q 518 -181 485 -181 q 556 -174 539 -181 q 592 -154 574 -168 q 564 -221 590 -197 q 496 -244 538 -244 z "},"":{"ha":708,"x_min":-15,"x_max":831,"o":"m 264 -121 q 115 -86 178 -121 q 19 7 53 -51 q -15 135 -15 65 q 12 258 -15 197 q 88 369 39 319 q 201 453 136 419 q 342 494 267 486 q 264 596 289 539 q 239 710 239 653 q 276 850 239 783 q 378 958 313 917 q 529 999 444 999 q 652 959 610 999 q 694 846 694 919 q 676 744 694 793 q 631 665 657 696 q 581 635 604 635 q 549 649 564 635 q 524 683 533 664 q 608 773 574 725 q 642 874 642 821 q 616 940 642 917 q 543 963 590 963 q 435 924 479 963 q 369 824 392 886 q 347 690 347 763 q 365 578 347 638 q 435 475 382 519 q 269 405 340 460 q 160 276 199 350 q 121 131 121 203 q 138 40 121 86 q 195 -37 156 -6 q 300 -68 235 -68 q 448 -26 375 -68 q 582 84 521 15 q 681 231 643 153 l 706 214 q 589 44 656 119 q 440 -76 522 -32 q 264 -121 358 -121 m 715 1054 q 637 1070 678 1054 q 555 1103 596 1086 q 474 1119 514 1119 q 433 1115 453 1119 q 393 1099 413 1110 q 448 1156 417 1139 q 515 1172 479 1172 q 596 1156 554 1172 q 681 1122 638 1139 q 771 1106 725 1106 q 831 1118 800 1106 q 778 1069 806 1085 q 715 1054 750 1054 z "},"":{"ha":783,"x_min":35,"x_max":893,"o":"m 304 -121 q 168 -80 229 -121 q 71 39 107 -39 q 35 225 35 117 q 68 442 35 332 q 160 651 101 551 q 292 829 218 751 q 448 953 365 907 q 611 999 531 999 q 700 976 667 999 q 748 918 733 954 q 763 839 763 882 q 746 743 763 790 q 701 665 729 696 q 638 635 672 635 q 613 642 625 635 q 589 671 600 650 q 635 720 610 685 q 680 799 661 756 q 699 879 699 843 q 681 930 699 910 q 618 950 663 950 q 492 902 557 950 q 367 774 428 854 q 258 597 307 694 q 182 396 210 499 q 154 201 154 293 q 208 4 154 75 q 340 -67 261 -67 q 443 -28 394 -67 q 529 72 492 10 q 589 206 567 133 q 617 346 611 278 q 538 359 571 356 q 472 363 504 363 q 432 362 453 363 q 385 360 411 361 q 421 422 396 403 q 485 440 446 440 q 567 427 525 440 q 651 399 610 414 q 726 374 693 383 l 715 331 q 674 207 690 258 q 648 117 657 156 q 636 49 639 79 q 633 -8 633 19 q 635 -63 633 -36 q 638 -124 636 -90 q 591 -100 610 -115 q 565 -64 572 -85 q 557 -18 557 -43 q 558 7 557 -6 q 564 33 560 19 q 449 -76 514 -32 q 304 -121 385 -121 m 744 1053 q 658 1074 690 1053 q 611 1126 625 1096 q 597 1182 597 1157 q 607 1224 597 1207 q 632 1250 617 1240 q 664 1167 638 1206 q 747 1129 690 1129 q 831 1154 799 1129 q 878 1207 863 1179 q 891 1186 888 1199 q 894 1164 894 1174 q 849 1085 894 1117 q 744 1053 804 1053 z "},"":{"ha":783,"x_min":35,"x_max":853,"o":"m 304 -121 q 168 -80 229 -121 q 71 39 107 -39 q 35 225 35 117 q 68 442 35 332 q 160 651 101 551 q 292 829 218 751 q 448 953 365 907 q 611 999 531 999 q 700 976 667 999 q 748 918 733 954 q 763 839 763 882 q 746 743 763 790 q 701 665 729 696 q 638 635 672 635 q 613 642 625 635 q 589 671 600 650 q 635 720 610 685 q 680 799 661 756 q 699 879 699 843 q 681 930 699 910 q 618 950 663 950 q 492 902 557 950 q 367 774 428 854 q 258 597 307 694 q 182 396 210 499 q 154 201 154 293 q 208 4 154 75 q 340 -67 261 -67 q 443 -28 394 -67 q 529 72 492 10 q 589 206 567 133 q 617 346 611 278 q 538 359 571 356 q 472 363 504 363 q 432 362 453 363 q 385 360 411 361 q 421 422 396 403 q 485 440 446 440 q 567 427 525 440 q 651 399 610 414 q 726 374 693 383 l 715 331 q 674 207 690 258 q 648 117 657 156 q 636 49 639 79 q 633 -8 633 19 q 635 -63 633 -36 q 638 -124 636 -90 q 591 -100 610 -115 q 565 -64 572 -85 q 557 -18 557 -43 q 558 7 557 -6 q 564 33 560 19 q 449 -76 514 -32 q 304 -121 385 -121 m 693 1047 q 653 1063 675 1047 q 610 1104 631 1079 q 576 1156 589 1129 q 563 1206 563 1183 q 569 1232 563 1219 q 589 1251 575 1244 q 635 1181 610 1211 q 693 1121 660 1151 q 771 1156 736 1136 q 836 1201 806 1175 q 849 1186 846 1194 q 853 1169 853 1178 q 834 1128 853 1149 q 788 1088 815 1107 q 733 1058 760 1069 q 693 1047 707 1047 z "},"":{"ha":783,"x_min":35,"x_max":858,"o":"m 304 -121 q 168 -80 229 -121 q 71 39 107 -39 q 35 225 35 117 q 68 442 35 332 q 160 651 101 551 q 292 829 218 751 q 448 953 365 907 q 611 999 531 999 q 700 976 667 999 q 748 918 733 954 q 763 839 763 882 q 746 743 763 790 q 701 665 729 696 q 638 635 672 635 q 613 642 625 635 q 589 671 600 650 q 635 720 610 685 q 680 799 661 756 q 699 879 699 843 q 681 930 699 910 q 618 950 663 950 q 492 902 557 950 q 367 774 428 854 q 258 597 307 694 q 182 396 210 499 q 154 201 154 293 q 208 4 154 75 q 340 -67 261 -67 q 443 -28 394 -67 q 529 72 492 10 q 589 206 567 133 q 617 346 611 278 q 538 359 571 356 q 472 363 504 363 q 432 362 453 363 q 385 360 411 361 q 421 422 396 403 q 485 440 446 440 q 567 427 525 440 q 651 399 610 414 q 726 374 693 383 l 715 331 q 674 207 690 258 q 648 117 657 156 q 636 49 639 79 q 633 -8 633 19 q 635 -63 633 -36 q 638 -124 636 -90 q 591 -100 610 -115 q 565 -64 572 -85 q 557 -18 557 -43 q 558 7 557 -6 q 564 33 560 19 q 449 -76 514 -32 q 304 -121 385 -121 m 832 1033 q 786 1100 811 1072 q 729 1157 761 1128 q 655 1125 689 1143 q 588 1081 621 1107 q 575 1095 578 1086 q 572 1111 572 1104 q 591 1153 572 1132 q 637 1192 610 1174 q 690 1221 664 1210 q 731 1232 717 1232 q 769 1217 747 1232 q 812 1178 792 1201 q 845 1128 832 1154 q 858 1081 858 1101 q 852 1054 858 1067 q 832 1033 846 1042 z "},"":{"ha":783,"x_min":35,"x_max":763,"o":"m 304 -121 q 168 -80 229 -121 q 71 39 107 -39 q 35 225 35 117 q 68 442 35 332 q 160 651 101 551 q 292 829 218 751 q 448 953 365 907 q 611 999 531 999 q 700 976 667 999 q 748 918 733 954 q 763 839 763 882 q 746 743 763 790 q 701 665 729 696 q 638 635 672 635 q 613 642 625 635 q 589 671 600 650 q 635 720 610 685 q 680 799 661 756 q 699 879 699 843 q 681 930 699 910 q 618 950 663 950 q 492 902 557 950 q 367 774 428 854 q 258 597 307 694 q 182 396 210 499 q 154 201 154 293 q 208 4 154 75 q 340 -67 261 -67 q 443 -28 394 -67 q 529 72 492 10 q 589 206 567 133 q 617 346 611 278 q 538 359 571 356 q 472 363 504 363 q 432 362 453 363 q 385 360 411 361 q 421 422 396 403 q 485 440 446 440 q 567 427 525 440 q 651 399 610 414 q 726 374 693 383 l 715 331 q 674 207 690 258 q 648 117 657 156 q 636 49 639 79 q 633 -8 633 19 q 635 -63 633 -36 q 638 -124 636 -90 q 591 -100 610 -115 q 565 -64 572 -85 q 557 -18 557 -43 q 558 7 557 -6 q 564 33 560 19 q 449 -76 514 -32 q 304 -121 385 -121 m 249 -383 q 228 -360 235 -375 q 221 -329 221 -346 q 233 -267 221 -301 q 265 -207 246 -232 q 307 -182 285 -182 q 333 -194 322 -182 q 344 -224 344 -207 q 289 -301 307 -262 q 249 -383 271 -339 z "},"":{"ha":783,"x_min":35,"x_max":789,"o":"m 304 -121 q 168 -80 229 -121 q 71 39 107 -39 q 35 225 35 117 q 68 442 35 332 q 160 651 101 551 q 292 829 218 751 q 448 953 365 907 q 611 999 531 999 q 700 976 667 999 q 748 918 733 954 q 763 839 763 882 q 746 743 763 790 q 701 665 729 696 q 638 635 672 635 q 613 642 625 635 q 589 671 600 650 q 635 720 610 685 q 680 799 661 756 q 699 879 699 843 q 681 930 699 910 q 618 950 663 950 q 492 902 557 950 q 367 774 428 854 q 258 597 307 694 q 182 396 210 499 q 154 201 154 293 q 208 4 154 75 q 340 -67 261 -67 q 443 -28 394 -67 q 529 72 492 10 q 589 206 567 133 q 617 346 611 278 q 538 359 571 356 q 472 363 504 363 q 432 362 453 363 q 385 360 411 361 q 421 422 396 403 q 485 440 446 440 q 567 427 525 440 q 651 399 610 414 q 726 374 693 383 l 715 331 q 674 207 690 258 q 648 117 657 156 q 636 49 639 79 q 633 -8 633 19 q 635 -63 633 -36 q 638 -124 636 -90 q 591 -100 610 -115 q 565 -64 572 -85 q 557 -18 557 -43 q 558 7 557 -6 q 564 33 560 19 q 449 -76 514 -32 q 304 -121 385 -121 m 704 1068 q 663 1081 679 1068 q 646 1118 646 1094 q 676 1167 646 1149 q 739 1186 707 1186 q 776 1174 764 1186 q 789 1139 789 1161 q 763 1090 789 1111 q 704 1068 736 1068 z "},"":{"ha":879,"x_min":85,"x_max":917,"o":"m 85 -121 q 109 6 94 -60 q 146 149 124 71 q 200 328 168 228 q 276 559 232 429 q 378 858 319 689 q 389 893 382 871 q 396 935 396 915 q 376 954 396 954 q 312 928 344 954 q 258 863 279 903 q 238 781 238 824 q 238 759 238 771 q 240 739 239 747 q 175 757 196 739 q 154 803 154 775 q 176 881 154 844 q 232 943 197 917 q 308 985 267 969 q 386 1000 349 1000 q 458 978 439 1000 q 476 931 476 957 q 473 900 476 915 q 465 871 469 885 q 386 616 421 728 q 325 419 351 504 q 278 267 299 333 q 242 149 258 200 q 213 55 226 99 q 188 -31 200 11 q 140 -100 172 -79 q 85 -121 108 -121 m 657 -121 q 574 -90 597 -115 q 551 -6 551 -64 q 562 90 551 32 q 590 219 572 149 q 619 326 601 264 q 658 459 636 388 q 701 603 679 531 q 745 740 724 675 q 785 853 767 804 q 814 926 803 901 q 829 955 819 938 q 856 986 839 972 q 899 1000 874 1000 q 860 891 881 956 q 818 749 840 826 q 774 590 796 672 q 733 429 751 508 q 700 282 714 350 q 664 80 675 167 q 653 -62 653 -7 q 653 -95 653 -82 q 657 -121 654 -108 m 139 393 q 169 450 140 429 q 243 480 199 471 q 336 492 288 489 q 422 494 385 494 q 665 484 554 494 q 858 474 775 474 q 809 437 842 449 q 726 420 776 425 q 608 415 676 415 q 450 414 539 415 q 347 412 400 414 q 240 405 293 410 q 139 393 188 400 m 175 576 q 228 633 178 611 q 361 666 278 656 q 546 676 444 676 q 741 674 650 676 q 917 663 832 671 q 865 622 910 635 q 732 605 821 608 q 500 601 643 601 q 303 596 378 601 q 175 576 229 590 z "},"":{"ha":878,"x_min":85,"x_max":899,"o":"m 85 -121 q 103 -21 93 -72 q 131 93 114 31 q 173 238 149 156 q 235 432 197 321 q 189 428 213 431 q 143 424 165 425 q 176 483 144 461 q 260 514 208 504 q 276 565 268 540 q 294 617 285 589 q 316 679 304 646 q 343 757 328 713 q 378 858 358 801 q 389 893 382 871 q 396 935 396 915 q 392 950 396 946 q 376 954 389 954 q 315 928 346 954 q 260 861 285 901 q 222 778 236 821 q 208 700 208 735 q 211 676 208 689 q 218 649 214 663 q 147 672 168 649 q 126 732 126 696 q 154 826 126 779 q 226 913 182 874 q 319 976 271 953 q 408 1000 368 1000 q 463 978 449 1000 q 476 931 476 957 q 473 900 476 915 q 465 871 469 885 l 360 524 q 397 526 378 525 q 436 526 417 526 q 562 523 503 526 q 675 514 621 519 q 731 695 706 613 q 778 837 757 778 q 814 926 800 896 q 829 955 819 938 q 856 986 839 972 q 899 1000 874 1000 q 854 870 879 950 q 803 696 829 790 q 753 508 776 601 q 806 505 778 507 q 861 503 835 503 q 797 460 828 468 q 739 453 767 453 q 713 346 725 397 q 693 249 701 294 q 662 63 671 140 q 653 -62 653 -15 q 653 -95 653 -82 q 657 -121 654 -108 q 574 -90 597 -115 q 551 -6 551 -64 q 559 78 551 29 q 582 189 567 128 q 613 301 593 233 q 657 451 632 369 q 515 450 572 451 q 417 447 458 449 q 333 442 375 446 q 298 327 317 386 q 260 208 279 268 q 224 89 242 149 q 188 -31 206 29 q 140 -100 172 -79 q 85 -121 108 -121 m 788 1033 q 742 1100 767 1072 q 685 1157 717 1128 q 610 1125 644 1143 q 543 1081 576 1107 q 531 1095 533 1086 q 528 1111 528 1104 q 547 1153 528 1132 q 592 1192 565 1174 q 646 1221 619 1210 q 686 1232 672 1232 q 725 1217 703 1232 q 767 1178 747 1201 q 801 1128 788 1154 q 814 1081 814 1101 q 808 1054 814 1067 q 788 1033 801 1042 z "},"":{"ha":1242,"x_min":-43,"x_max":1385,"o":"m -43 -122 q -6 -44 -37 -68 q 77 -12 26 -19 q 188 -4 128 -4 q 237 126 213 49 q 283 292 261 203 q 327 472 306 381 q 367 649 349 564 q 403 802 386 733 q 435 913 421 871 q 312 908 364 911 q 214 899 260 904 q 117 883 168 893 q 197 969 129 942 q 408 997 265 997 q 553 992 479 997 q 690 980 628 986 q 785 968 751 974 q 709 922 747 931 q 642 914 671 914 q 561 914 599 914 q 492 913 524 914 q 473 814 485 878 q 447 671 461 750 q 416 508 432 592 q 385 351 400 425 q 357 226 369 278 q 309 82 336 143 q 244 -7 282 21 q 398 -21 318 -11 q 550 -32 478 -31 q 460 -87 506 -76 q 383 -99 414 -99 q 259 -99 315 -99 q 153 -101 203 -100 q 55 -108 103 -103 q -43 -122 7 -112 m 778 -119 q 708 -107 744 -119 q 646 -55 671 -94 q 621 64 621 -15 q 634 172 621 118 q 672 263 647 226 q 729 299 696 299 q 774 286 747 299 q 735 166 749 222 q 722 64 722 110 q 745 -31 722 3 q 810 -64 768 -64 q 873 -34 844 -64 q 932 78 901 -4 q 977 225 953 139 q 1026 408 1001 311 q 1072 603 1050 506 q 1110 783 1093 700 q 1138 921 1128 865 q 1023 917 1071 919 q 935 908 975 914 q 851 892 896 901 q 915 971 860 944 q 1086 997 971 997 q 1201 992 1143 997 q 1310 980 1260 986 q 1386 968 1360 974 q 1332 930 1368 938 q 1272 922 1296 922 q 1223 922 1247 922 q 1181 921 1199 921 q 1199 891 1193 908 q 1206 858 1206 874 q 1196 779 1206 840 q 1168 631 1186 718 q 1126 445 1150 543 q 1072 253 1101 347 q 1010 86 1043 160 q 936 -41 974 3 q 859 -102 899 -85 q 778 -119 819 -119 z "},"":{"ha":658,"x_min":-43,"x_max":785,"o":"m -43 -122 q -6 -44 -37 -68 q 77 -12 26 -19 q 188 -4 128 -4 q 237 126 213 49 q 283 292 261 203 q 327 472 306 381 q 367 649 349 564 q 403 802 386 733 q 435 913 421 871 q 312 908 364 911 q 214 899 260 904 q 117 883 168 893 q 197 969 129 942 q 408 997 265 997 q 553 992 479 997 q 690 980 628 986 q 785 968 751 974 q 709 922 747 931 q 642 914 671 914 q 561 914 599 914 q 492 913 524 914 q 473 814 485 878 q 447 671 461 750 q 416 508 432 592 q 385 351 400 425 q 357 226 369 278 q 309 82 336 143 q 244 -7 282 21 q 398 -21 318 -11 q 550 -32 478 -31 q 460 -87 506 -76 q 383 -99 414 -99 q 259 -99 315 -99 q 153 -101 203 -100 q 55 -108 103 -103 q -43 -122 7 -112 m 497 1039 q 479 1058 485 1044 q 474 1078 474 1072 q 488 1117 474 1090 q 525 1173 503 1143 q 572 1223 547 1203 q 618 1243 596 1243 q 640 1234 631 1243 q 651 1199 650 1225 q 565 1117 603 1154 q 497 1039 528 1079 z "},"":{"ha":658,"x_min":-43,"x_max":785,"o":"m -43 -122 q -6 -44 -37 -68 q 77 -12 26 -19 q 188 -4 128 -4 q 237 126 213 49 q 283 292 261 203 q 327 472 306 381 q 367 649 349 564 q 403 802 386 733 q 435 913 421 871 q 312 908 364 911 q 214 899 260 904 q 117 883 168 893 q 197 969 129 942 q 408 997 265 997 q 553 992 479 997 q 690 980 628 986 q 785 968 751 974 q 709 922 747 931 q 642 914 671 914 q 561 914 599 914 q 492 913 524 914 q 473 814 485 878 q 447 671 461 750 q 416 508 432 592 q 385 351 400 425 q 357 226 369 278 q 309 82 336 143 q 244 -7 282 21 q 398 -21 318 -11 q 550 -32 478 -31 q 460 -87 506 -76 q 383 -99 414 -99 q 259 -99 315 -99 q 153 -101 203 -100 q 55 -108 103 -103 q -43 -122 7 -112 m 538 1053 q 451 1074 483 1053 q 404 1126 418 1096 q 390 1182 390 1157 q 400 1224 390 1207 q 425 1250 410 1240 q 457 1167 431 1206 q 540 1129 483 1129 q 624 1154 592 1129 q 671 1207 656 1179 q 684 1186 681 1199 q 688 1164 688 1174 q 642 1085 688 1117 q 538 1053 597 1053 z "},"":{"ha":658,"x_min":-43,"x_max":785,"o":"m -43 -122 q -6 -44 -37 -68 q 77 -12 26 -19 q 188 -4 128 -4 q 237 126 213 49 q 283 292 261 203 q 327 472 306 381 q 367 649 349 564 q 403 802 386 733 q 435 913 421 871 q 312 908 364 911 q 214 899 260 904 q 117 883 168 893 q 197 969 129 942 q 408 997 265 997 q 553 992 479 997 q 690 980 628 986 q 785 968 751 974 q 709 922 747 931 q 642 914 671 914 q 561 914 599 914 q 492 913 524 914 q 473 814 485 878 q 447 671 461 750 q 416 508 432 592 q 385 351 400 425 q 357 226 369 278 q 309 82 336 143 q 244 -7 282 21 q 398 -21 318 -11 q 550 -32 478 -31 q 460 -87 506 -76 q 383 -99 414 -99 q 259 -99 315 -99 q 153 -101 203 -100 q 55 -108 103 -103 q -43 -122 7 -112 m 625 1033 q 579 1100 604 1072 q 522 1157 554 1128 q 448 1125 482 1143 q 381 1081 414 1107 q 368 1095 371 1086 q 365 1111 365 1104 q 384 1153 365 1132 q 430 1192 403 1174 q 483 1221 457 1210 q 524 1232 510 1232 q 563 1217 540 1232 q 605 1178 585 1201 q 638 1128 625 1154 q 651 1081 651 1101 q 645 1054 651 1067 q 625 1033 639 1042 z "},"":{"ha":658,"x_min":-43,"x_max":785,"o":"m -43 -122 q -6 -44 -37 -68 q 77 -12 26 -19 q 188 -4 128 -4 q 237 126 213 49 q 283 292 261 203 q 327 472 306 381 q 367 649 349 564 q 403 802 386 733 q 435 913 421 871 q 312 908 364 911 q 214 899 260 904 q 117 883 168 893 q 197 969 129 942 q 408 997 265 997 q 553 992 479 997 q 690 980 628 986 q 785 968 751 974 q 709 922 747 931 q 642 914 671 914 q 561 914 599 914 q 492 913 524 914 q 473 814 485 878 q 447 671 461 750 q 416 508 432 592 q 385 351 400 425 q 357 226 369 278 q 309 82 336 143 q 244 -7 282 21 q 398 -21 318 -11 q 550 -32 478 -31 q 460 -87 506 -76 q 383 -99 414 -99 q 259 -99 315 -99 q 153 -101 203 -100 q 55 -108 103 -103 q -43 -122 7 -112 m 457 1040 q 394 1124 428 1081 q 319 1213 360 1167 q 340 1231 329 1224 q 364 1238 350 1238 q 401 1218 382 1238 q 438 1170 421 1199 q 465 1116 454 1142 q 475 1075 475 1090 q 457 1040 475 1051 m 551 1046 q 506 1123 532 1082 q 450 1203 481 1164 q 468 1230 458 1222 q 490 1238 478 1238 q 525 1221 508 1238 q 554 1179 542 1204 q 574 1129 567 1154 q 581 1089 581 1104 q 572 1058 581 1067 q 551 1046 563 1049 z "},"":{"ha":658,"x_min":-43,"x_max":785,"o":"m -43 -122 q -6 -44 -37 -68 q 77 -12 26 -19 q 188 -4 128 -4 q 237 126 213 49 q 283 292 261 203 q 327 472 306 381 q 367 649 349 564 q 403 802 386 733 q 435 913 421 871 q 312 908 364 911 q 214 899 260 904 q 117 883 168 893 q 197 969 129 942 q 408 997 265 997 q 553 992 479 997 q 690 980 628 986 q 785 968 751 974 q 709 922 747 931 q 642 914 671 914 q 561 914 599 914 q 492 913 524 914 q 473 814 485 878 q 447 671 461 750 q 416 508 432 592 q 385 351 400 425 q 357 226 369 278 q 309 82 336 143 q 244 -7 282 21 q 398 -21 318 -11 q 550 -32 478 -31 q 460 -87 506 -76 q 383 -99 414 -99 q 259 -99 315 -99 q 153 -101 203 -100 q 55 -108 103 -103 q -43 -122 7 -112 m 600 1046 q 563 1056 579 1046 q 546 1089 546 1067 q 577 1136 546 1117 q 639 1156 608 1156 q 671 1147 658 1156 q 683 1114 683 1138 q 657 1068 683 1090 q 600 1046 631 1046 m 400 1075 q 363 1085 379 1075 q 346 1118 346 1094 q 376 1164 346 1144 q 438 1183 407 1183 q 470 1175 458 1183 q 482 1143 482 1167 q 456 1097 482 1119 q 400 1075 431 1075 z "},"":{"ha":658,"x_min":-43,"x_max":785,"o":"m -43 -122 q -6 -44 -37 -68 q 77 -12 26 -19 q 188 -4 128 -4 q 237 126 213 49 q 283 292 261 203 q 327 472 306 381 q 367 649 349 564 q 403 802 386 733 q 435 913 421 871 q 312 908 364 911 q 214 899 260 904 q 117 883 168 893 q 197 969 129 942 q 408 997 265 997 q 553 992 479 997 q 690 980 628 986 q 785 968 751 974 q 709 922 747 931 q 642 914 671 914 q 561 914 599 914 q 492 913 524 914 q 473 814 485 878 q 447 671 461 750 q 416 508 432 592 q 385 351 400 425 q 357 226 369 278 q 309 82 336 143 q 244 -7 282 21 q 398 -21 318 -11 q 550 -32 478 -31 q 460 -87 506 -76 q 383 -99 414 -99 q 259 -99 315 -99 q 153 -101 203 -100 q 55 -108 103 -103 q -43 -122 7 -112 m 497 1068 q 456 1081 472 1068 q 439 1118 439 1094 q 469 1167 439 1149 q 532 1186 500 1186 q 569 1174 557 1186 q 582 1139 582 1161 q 556 1090 582 1111 q 497 1068 529 1068 z "},"":{"ha":658,"x_min":-43,"x_max":785,"o":"m -43 -122 q -6 -44 -37 -68 q 77 -12 26 -19 q 188 -4 128 -4 q 237 126 213 49 q 283 292 261 203 q 327 472 306 381 q 367 649 349 564 q 403 802 386 733 q 435 913 421 871 q 312 908 364 911 q 214 899 260 904 q 117 883 168 893 q 197 969 129 942 q 408 997 265 997 q 553 992 479 997 q 690 980 628 986 q 785 968 751 974 q 709 922 747 931 q 642 914 671 914 q 561 914 599 914 q 492 913 524 914 q 473 814 485 878 q 447 671 461 750 q 416 508 432 592 q 385 351 400 425 q 357 226 369 278 q 309 82 336 143 q 244 -7 282 21 q 398 -21 318 -11 q 550 -32 478 -31 q 460 -87 506 -76 q 383 -99 414 -99 q 259 -99 315 -99 q 153 -101 203 -100 q 55 -108 103 -103 q -43 -122 7 -112 m 140 -319 q 99 -306 115 -319 q 82 -269 82 -293 q 113 -220 82 -239 q 175 -201 143 -201 q 213 -214 200 -201 q 225 -249 225 -226 q 199 -298 225 -276 q 140 -319 172 -319 z "},"":{"ha":658,"x_min":-43,"x_max":785,"o":"m -43 -122 q -6 -44 -37 -68 q 77 -12 26 -19 q 188 -4 128 -4 q 237 126 213 49 q 283 292 261 203 q 327 472 306 381 q 367 649 349 564 q 403 802 386 733 q 435 913 421 871 q 312 908 364 911 q 214 899 260 904 q 117 883 168 893 q 197 969 129 942 q 408 997 265 997 q 553 992 479 997 q 690 980 628 986 q 785 968 751 974 q 709 922 747 931 q 642 914 671 914 q 561 914 599 914 q 492 913 524 914 q 473 814 485 878 q 447 671 461 750 q 416 508 432 592 q 385 351 400 425 q 357 226 369 278 q 309 82 336 143 q 244 -7 282 21 q 398 -21 318 -11 q 550 -32 478 -31 q 460 -87 506 -76 q 383 -99 414 -99 q 259 -99 315 -99 q 153 -101 203 -100 q 55 -108 103 -103 q -43 -122 7 -112 m 493 1039 q 424 1117 461 1079 q 335 1197 388 1154 q 347 1234 338 1224 q 369 1244 357 1244 q 416 1224 390 1244 q 465 1175 442 1204 q 502 1119 488 1146 q 517 1079 517 1092 q 511 1058 517 1072 q 493 1039 506 1044 z "},"":{"ha":658,"x_min":-43,"x_max":785,"o":"m -43 -122 q -6 -44 -37 -68 q 77 -12 26 -19 q 188 -4 128 -4 q 237 126 213 49 q 283 292 261 203 q 327 472 306 381 q 367 649 349 564 q 403 802 386 733 q 435 913 421 871 q 312 908 364 911 q 214 899 260 904 q 117 883 168 893 q 197 969 129 942 q 408 997 265 997 q 553 992 479 997 q 690 980 628 986 q 785 968 751 974 q 709 922 747 931 q 642 914 671 914 q 561 914 599 914 q 492 913 524 914 q 473 814 485 878 q 447 671 461 750 q 416 508 432 592 q 385 351 400 425 q 357 226 369 278 q 309 82 336 143 q 244 -7 282 21 q 398 -21 318 -11 q 550 -32 478 -31 q 460 -87 506 -76 q 383 -99 414 -99 q 259 -99 315 -99 q 153 -101 203 -100 q 55 -108 103 -103 q -43 -122 7 -112 m 525 1044 q 497 1049 508 1044 q 478 1060 485 1054 q 543 1078 514 1064 q 572 1126 572 1093 q 540 1170 572 1157 q 443 1183 508 1183 q 462 1231 443 1211 q 514 1250 481 1250 q 592 1219 561 1250 q 622 1143 622 1188 q 595 1072 622 1100 q 525 1044 568 1044 z "},"":{"ha":658,"x_min":-43,"x_max":785,"o":"m -43 -122 q -6 -44 -37 -68 q 77 -12 26 -19 q 188 -4 128 -4 q 237 126 213 49 q 283 292 261 203 q 327 472 306 381 q 367 649 349 564 q 403 802 386 733 q 435 913 421 871 q 312 908 364 911 q 214 899 260 904 q 117 883 168 893 q 197 969 129 942 q 408 997 265 997 q 553 992 479 997 q 690 980 628 986 q 785 968 751 974 q 709 922 747 931 q 642 914 671 914 q 561 914 599 914 q 492 913 524 914 q 473 814 485 878 q 447 671 461 750 q 416 508 432 592 q 385 351 400 425 q 357 226 369 278 q 309 82 336 143 q 244 -7 282 21 q 398 -21 318 -11 q 550 -32 478 -31 q 460 -87 506 -76 q 383 -99 414 -99 q 259 -99 315 -99 q 153 -101 203 -100 q 55 -108 103 -103 q -43 -122 7 -112 m 631 1014 q 599 1097 626 1058 q 508 1135 571 1135 q 430 1110 460 1135 q 385 1057 400 1085 q 373 1078 376 1065 q 369 1100 369 1090 q 413 1179 369 1147 q 518 1211 457 1211 q 603 1190 571 1211 q 651 1140 636 1169 q 667 1086 667 1111 q 657 1043 667 1061 q 631 1014 647 1025 z "},"":{"ha":658,"x_min":-43,"x_max":785,"o":"m -43 -122 q -6 -44 -37 -68 q 77 -12 26 -19 q 188 -4 128 -4 q 237 126 213 49 q 283 292 261 203 q 327 472 306 381 q 367 649 349 564 q 403 802 386 733 q 435 913 421 871 q 312 908 364 911 q 214 899 260 904 q 117 883 168 893 q 197 969 129 942 q 408 997 265 997 q 553 992 479 997 q 690 980 628 986 q 785 968 751 974 q 709 922 747 931 q 642 914 671 914 q 561 914 599 914 q 492 913 524 914 q 473 814 485 878 q 447 671 461 750 q 416 508 432 592 q 385 351 400 425 q 357 226 369 278 q 309 82 336 143 q 244 -7 282 21 q 398 -21 318 -11 q 550 -32 478 -31 q 460 -87 506 -76 q 383 -99 414 -99 q 259 -99 315 -99 q 153 -101 203 -100 q 55 -108 103 -103 q -43 -122 7 -112 m 638 1051 q 560 1059 607 1051 q 463 1077 514 1067 q 367 1097 413 1088 q 290 1110 322 1107 q 356 1147 304 1147 q 465 1137 407 1147 q 583 1112 524 1126 q 692 1081 643 1097 q 638 1051 674 1051 z "},"":{"ha":658,"x_min":-43,"x_max":785,"o":"m -43 -122 q -6 -44 -37 -68 q 77 -12 26 -19 q 188 -4 128 -4 q 237 126 213 49 q 283 292 261 203 q 327 472 306 381 q 367 649 349 564 q 403 802 386 733 q 435 913 421 871 q 312 908 364 911 q 214 899 260 904 q 117 883 168 893 q 197 969 129 942 q 408 997 265 997 q 553 992 479 997 q 690 980 628 986 q 785 968 751 974 q 709 922 747 931 q 642 914 671 914 q 561 914 599 914 q 492 913 524 914 q 473 814 485 878 q 447 671 461 750 q 416 508 432 592 q 385 351 400 425 q 357 226 369 278 q 309 82 336 143 q 244 -7 282 21 q 398 -21 318 -11 q 550 -32 478 -31 q 460 -87 506 -76 q 383 -99 414 -99 q 259 -99 315 -99 q 153 -101 203 -100 q 55 -108 103 -103 q -43 -122 7 -112 m 238 -282 q 166 -255 193 -282 q 139 -185 139 -228 q 169 -110 139 -139 q 242 -76 200 -82 q 208 -111 221 -92 q 194 -157 194 -131 q 210 -199 194 -181 q 260 -218 226 -218 q 298 -212 281 -218 q 333 -192 315 -206 q 306 -258 332 -235 q 238 -282 279 -282 z "},"":{"ha":658,"x_min":-43,"x_max":785,"o":"m -43 -122 q -6 -44 -37 -68 q 77 -12 26 -19 q 188 -4 128 -4 q 237 126 213 49 q 283 292 261 203 q 327 472 306 381 q 367 649 349 564 q 403 802 386 733 q 435 913 421 871 q 312 908 364 911 q 214 899 260 904 q 117 883 168 893 q 197 969 129 942 q 408 997 265 997 q 553 992 479 997 q 690 980 628 986 q 785 968 751 974 q 709 922 747 931 q 642 914 671 914 q 561 914 599 914 q 492 913 524 914 q 473 814 485 878 q 447 671 461 750 q 416 508 432 592 q 385 351 400 425 q 357 226 369 278 q 309 82 336 143 q 244 -7 282 21 q 398 -21 318 -11 q 550 -32 478 -31 q 460 -87 506 -76 q 383 -99 414 -99 q 259 -99 315 -99 q 153 -101 203 -100 q 55 -108 103 -103 q -43 -122 7 -112 m 611 1054 q 533 1070 574 1054 q 451 1103 492 1086 q 369 1119 410 1119 q 328 1115 349 1119 q 289 1099 308 1110 q 344 1156 313 1139 q 411 1172 375 1172 q 492 1156 450 1172 q 577 1122 533 1139 q 667 1106 621 1106 q 726 1118 696 1106 q 674 1069 701 1085 q 611 1054 646 1054 z "},"":{"ha":585,"x_min":-37,"x_max":728,"o":"m 119 -119 q 49 -107 86 -119 q -12 -55 13 -94 q -37 64 -37 -15 q -24 172 -37 118 q 13 263 -11 226 q 71 299 38 299 q 115 286 89 299 q 77 166 90 222 q 64 64 64 110 q 87 -31 64 3 q 151 -64 110 -64 q 215 -34 186 -64 q 274 78 243 -4 q 319 225 294 139 q 367 408 343 311 q 413 603 392 506 q 452 783 435 700 q 479 921 469 865 q 365 917 413 919 q 277 908 317 914 q 193 892 238 901 q 257 971 201 944 q 428 997 313 997 q 543 992 485 997 q 651 980 601 986 q 728 968 701 974 q 674 930 710 938 q 614 922 638 922 q 565 922 589 922 q 522 921 540 921 q 541 891 535 908 q 547 858 547 874 q 538 779 547 840 q 510 631 528 718 q 467 445 492 543 q 414 253 443 347 q 351 86 385 160 q 278 -41 315 3 q 201 -102 240 -85 q 119 -119 161 -119 m 658 1033 q 613 1100 638 1072 q 556 1157 588 1128 q 481 1125 515 1143 q 414 1081 447 1107 q 401 1095 404 1086 q 399 1111 399 1104 q 417 1153 399 1132 q 463 1192 436 1174 q 517 1221 490 1210 q 557 1232 543 1232 q 596 1217 574 1232 q 638 1178 618 1201 q 672 1128 658 1154 q 685 1081 685 1101 q 678 1054 685 1067 q 658 1033 672 1042 z "},"":{"ha":842,"x_min":47,"x_max":858,"o":"m 710 -121 q 637 -85 678 -121 q 550 8 596 -50 q 460 135 504 67 q 377 273 415 204 q 313 397 339 342 l 181 -31 q 148 -76 171 -62 q 99 -93 125 -90 q 47 -96 72 -96 q 85 -6 67 -56 q 129 115 104 44 q 189 285 154 185 q 272 526 224 386 q 386 858 319 667 q 397 888 390 869 q 404 924 404 907 q 397 946 404 938 q 372 954 390 954 q 308 928 339 954 q 253 861 278 901 q 216 778 229 821 q 203 701 203 735 q 211 649 203 672 q 140 672 161 649 q 119 731 119 696 q 147 826 119 778 q 219 913 175 874 q 313 976 264 953 q 401 1000 361 1000 q 456 978 443 1000 q 469 929 469 956 q 467 899 469 914 q 460 871 464 883 l 347 507 q 393 550 365 529 q 458 601 421 571 q 598 722 526 656 q 733 861 669 789 q 842 1001 797 933 q 855 969 851 990 q 858 936 858 947 q 823 842 858 893 q 731 735 788 790 q 606 628 674 681 q 471 528 538 575 q 351 446 404 481 q 433 313 393 376 q 522 190 474 250 q 633 66 569 129 q 788 -71 697 3 q 755 -106 776 -90 q 710 -121 733 -121 m 307 -357 q 286 -334 293 -349 q 279 -303 279 -319 q 292 -240 279 -275 q 324 -181 304 -206 q 365 -156 343 -156 q 392 -168 381 -156 q 403 -197 403 -181 q 347 -274 365 -236 q 307 -357 329 -312 z "},"":{"ha":1394,"x_min":-99,"x_max":1538,"o":"m 569 -121 q 458 -100 519 -121 q 331 -49 396 -79 q 203 7 267 -19 q 130 -52 168 -31 q 47 -74 92 -74 q -31 -53 1 -74 q -81 -3 -64 -32 q -99 50 -99 26 q -75 95 -99 76 q 7 114 -51 114 q 88 106 44 114 q 179 85 132 97 q 240 219 213 143 q 296 382 268 296 q 350 553 324 468 q 248 616 285 575 q 211 703 211 657 q 222 753 211 728 q 256 797 233 779 q 307 815 278 815 q 290 772 294 799 q 286 726 286 744 q 308 642 286 676 q 363 589 329 607 q 420 744 390 671 q 486 876 450 818 q 566 967 522 933 q 664 1000 610 1000 q 726 988 693 1000 q 782 944 758 975 q 806 856 806 913 q 785 753 806 808 q 724 649 765 699 q 619 569 683 600 q 467 535 556 538 q 460 535 465 535 q 444 535 456 535 q 388 366 418 451 q 322 203 357 281 q 249 65 288 126 q 374 28 308 47 q 503 -5 440 8 q 617 -18 565 -18 q 672 -12 647 -18 q 722 7 697 -6 q 660 -92 699 -62 q 569 -121 622 -121 m 39 -29 q 97 -13 71 -29 q 144 32 122 3 q 61 60 101 49 q -10 71 21 71 q -47 63 -36 71 q -57 43 -57 56 q -30 -5 -57 19 q 39 -29 -3 -29 m 456 568 q 567 605 518 569 q 651 692 617 640 q 704 797 686 743 q 722 892 722 851 q 708 944 722 931 q 674 958 693 958 q 595 904 632 958 q 524 762 558 850 q 456 568 490 674 m 929 -119 q 859 -107 896 -119 q 797 -55 822 -94 q 772 64 772 -15 q 785 172 772 118 q 823 263 799 226 q 881 299 847 299 q 925 286 899 299 q 887 166 900 222 q 874 64 874 110 q 897 -31 874 3 q 961 -64 919 -64 q 1024 -34 996 -64 q 1083 78 1053 -4 q 1128 225 1104 139 q 1177 408 1153 311 q 1223 603 1201 506 q 1262 783 1244 700 q 1289 921 1279 865 q 1174 917 1222 919 q 1087 908 1126 914 q 1003 892 1047 901 q 1067 971 1011 944 q 1238 997 1122 997 q 1353 992 1294 997 q 1461 980 1411 986 q 1538 968 1511 974 q 1483 930 1519 938 q 1424 922 1447 922 q 1374 922 1399 922 q 1332 921 1350 921 q 1351 891 1344 908 q 1357 858 1357 874 q 1347 779 1357 840 q 1319 631 1338 718 q 1277 445 1301 543 q 1224 253 1253 347 q 1161 86 1194 160 q 1088 -41 1125 3 q 1010 -102 1050 -85 q 929 -119 971 -119 z "},"":{"ha":810,"x_min":-99,"x_max":874,"o":"m 569 -121 q 458 -100 519 -121 q 331 -49 396 -79 q 203 7 267 -19 q 130 -52 168 -31 q 47 -74 92 -74 q -31 -53 1 -74 q -81 -3 -64 -32 q -99 50 -99 26 q -75 95 -99 76 q 7 114 -51 114 q 88 106 44 114 q 179 85 132 97 q 240 219 213 143 q 296 382 268 296 q 350 553 324 468 q 248 616 285 575 q 211 703 211 657 q 222 753 211 728 q 256 797 233 779 q 307 815 278 815 q 290 772 294 799 q 286 726 286 744 q 308 642 286 676 q 363 589 329 607 q 420 744 390 671 q 486 876 450 818 q 566 967 522 933 q 664 1000 610 1000 q 726 988 693 1000 q 782 944 758 975 q 806 856 806 913 q 785 753 806 808 q 724 649 765 699 q 619 569 683 600 q 467 535 556 538 q 460 535 465 535 q 444 535 456 535 q 388 366 418 451 q 322 203 357 281 q 249 65 288 126 q 374 28 308 47 q 503 -5 440 8 q 617 -18 565 -18 q 672 -12 647 -18 q 722 7 697 -6 q 660 -92 699 -62 q 569 -121 622 -121 m 39 -29 q 97 -13 71 -29 q 144 32 122 3 q 61 60 101 49 q -10 71 21 71 q -47 63 -36 71 q -57 43 -57 56 q -30 -5 -57 19 q 39 -29 -3 -29 m 456 568 q 567 605 518 569 q 651 692 617 640 q 704 797 686 743 q 722 892 722 851 q 708 944 722 931 q 674 958 693 958 q 595 904 632 958 q 524 762 558 850 q 456 568 490 674 m 718 1039 q 700 1058 706 1044 q 694 1078 694 1072 q 709 1117 694 1090 q 746 1173 724 1143 q 792 1223 768 1203 q 839 1243 817 1243 q 861 1234 851 1243 q 872 1199 871 1225 q 786 1117 824 1154 q 718 1039 749 1079 z "},"":{"ha":810,"x_min":-99,"x_max":997,"o":"m 569 -121 q 458 -100 519 -121 q 331 -49 396 -79 q 203 7 267 -19 q 130 -52 168 -31 q 47 -74 92 -74 q -31 -53 1 -74 q -81 -3 -64 -32 q -99 50 -99 26 q -75 95 -99 76 q 7 114 -51 114 q 88 106 44 114 q 179 85 132 97 q 240 219 213 143 q 296 382 268 296 q 350 553 324 468 q 248 616 285 575 q 211 703 211 657 q 222 753 211 728 q 256 797 233 779 q 307 815 278 815 q 290 772 294 799 q 286 726 286 744 q 308 642 286 676 q 363 589 329 607 q 420 744 390 671 q 486 876 450 818 q 566 967 522 933 q 664 1000 610 1000 q 726 988 693 1000 q 782 944 758 975 q 806 856 806 913 q 785 753 806 808 q 724 649 765 699 q 619 569 683 600 q 467 535 556 538 q 460 535 465 535 q 444 535 456 535 q 388 366 418 451 q 322 203 357 281 q 249 65 288 126 q 374 28 308 47 q 503 -5 440 8 q 617 -18 565 -18 q 672 -12 647 -18 q 722 7 697 -6 q 660 -92 699 -62 q 569 -121 622 -121 m 39 -29 q 97 -13 71 -29 q 144 32 122 3 q 61 60 101 49 q -10 71 21 71 q -47 63 -36 71 q -57 43 -57 56 q -30 -5 -57 19 q 39 -29 -3 -29 m 456 568 q 567 605 518 569 q 651 692 617 640 q 704 797 686 743 q 722 892 722 851 q 708 944 722 931 q 674 958 693 958 q 595 904 632 958 q 524 762 558 850 q 456 568 490 674 m 886 772 q 861 783 874 772 q 849 813 849 793 q 869 872 849 839 q 919 930 890 906 q 974 954 949 954 q 997 947 988 954 q 948 866 971 911 q 910 781 925 821 q 886 772 900 772 z "},"":{"ha":810,"x_min":-99,"x_max":806,"o":"m 569 -121 q 458 -100 519 -121 q 331 -49 396 -79 q 203 7 267 -19 q 130 -52 168 -31 q 47 -74 92 -74 q -31 -53 1 -74 q -81 -3 -64 -32 q -99 50 -99 26 q -75 95 -99 76 q 7 114 -51 114 q 88 106 44 114 q 179 85 132 97 q 240 219 213 143 q 296 382 268 296 q 350 553 324 468 q 248 616 285 575 q 211 703 211 657 q 222 753 211 728 q 256 797 233 779 q 307 815 278 815 q 290 772 294 799 q 286 726 286 744 q 308 642 286 676 q 363 589 329 607 q 420 744 390 671 q 486 876 450 818 q 566 967 522 933 q 664 1000 610 1000 q 726 988 693 1000 q 782 944 758 975 q 806 856 806 913 q 785 753 806 808 q 724 649 765 699 q 619 569 683 600 q 467 535 556 538 q 460 535 465 535 q 444 535 456 535 q 388 366 418 451 q 322 203 357 281 q 249 65 288 126 q 374 28 308 47 q 503 -5 440 8 q 617 -18 565 -18 q 672 -12 647 -18 q 722 7 697 -6 q 660 -92 699 -62 q 569 -121 622 -121 m 39 -29 q 97 -13 71 -29 q 144 32 122 3 q 61 60 101 49 q -10 71 21 71 q -47 63 -36 71 q -57 43 -57 56 q -30 -5 -57 19 q 39 -29 -3 -29 m 456 568 q 567 605 518 569 q 651 692 617 640 q 704 797 686 743 q 722 892 722 851 q 708 944 722 931 q 674 958 693 958 q 595 904 632 958 q 524 762 558 850 q 456 568 490 674 m 197 -331 q 176 -308 183 -322 q 169 -276 169 -293 q 182 -214 169 -249 q 214 -154 194 -179 q 256 -129 233 -129 q 282 -142 271 -129 q 293 -171 293 -154 q 238 -248 256 -210 q 197 -331 219 -286 z "},"":{"ha":810,"x_min":-99,"x_max":806,"o":"m 569 -121 q 458 -100 519 -121 q 331 -49 396 -79 q 203 7 267 -19 q 130 -52 168 -31 q 47 -74 92 -74 q -31 -53 1 -74 q -81 -3 -64 -32 q -99 50 -99 26 q -75 95 -99 76 q 7 114 -51 114 q 88 106 44 114 q 179 85 132 97 q 240 219 213 143 q 296 382 268 296 q 350 553 324 468 q 248 616 285 575 q 211 703 211 657 q 222 753 211 728 q 256 797 233 779 q 307 815 278 815 q 290 772 294 799 q 286 726 286 744 q 308 642 286 676 q 363 589 329 607 q 420 744 390 671 q 486 876 450 818 q 566 967 522 933 q 664 1000 610 1000 q 726 988 693 1000 q 782 944 758 975 q 806 856 806 913 q 785 753 806 808 q 724 649 765 699 q 619 569 683 600 q 467 535 556 538 q 460 535 465 535 q 444 535 456 535 q 388 366 418 451 q 322 203 357 281 q 249 65 288 126 q 374 28 308 47 q 503 -5 440 8 q 617 -18 565 -18 q 672 -12 647 -18 q 722 7 697 -6 q 660 -92 699 -62 q 569 -121 622 -121 m 39 -29 q 97 -13 71 -29 q 144 32 122 3 q 61 60 101 49 q -10 71 21 71 q -47 63 -36 71 q -57 43 -57 56 q -30 -5 -57 19 q 39 -29 -3 -29 m 456 568 q 567 605 518 569 q 651 692 617 640 q 704 797 686 743 q 722 892 722 851 q 708 944 722 931 q 674 958 693 958 q 595 904 632 958 q 524 762 558 850 q 456 568 490 674 m 640 326 q 604 338 617 326 q 592 368 592 350 q 605 398 592 383 q 638 421 618 413 q 675 429 657 429 q 702 422 690 429 q 714 393 714 415 q 703 365 714 381 q 676 338 693 350 q 640 326 660 326 z "},"":{"ha":1117,"x_min":-99,"x_max":1165,"o":"m 569 -121 q 458 -100 519 -121 q 331 -49 396 -79 q 203 7 267 -19 q 130 -52 168 -31 q 47 -74 92 -74 q -31 -53 1 -74 q -81 -3 -64 -32 q -99 50 -99 26 q -75 95 -99 76 q 7 114 -51 114 q 88 106 44 114 q 179 85 132 97 q 240 219 213 143 q 296 382 268 296 q 350 553 324 468 q 248 616 285 575 q 211 703 211 657 q 222 753 211 728 q 256 797 233 779 q 307 815 278 815 q 290 772 294 799 q 286 726 286 744 q 308 642 286 676 q 363 589 329 607 q 420 744 390 671 q 486 876 450 818 q 566 967 522 933 q 664 1000 610 1000 q 726 988 693 1000 q 782 944 758 975 q 806 856 806 913 q 785 753 806 808 q 724 649 765 699 q 619 569 683 600 q 467 535 556 538 q 460 535 465 535 q 444 535 456 535 q 388 366 418 451 q 322 203 357 281 q 249 65 288 126 q 374 28 308 47 q 503 -5 440 8 q 617 -18 565 -18 q 672 -12 647 -18 q 722 7 697 -6 q 660 -92 699 -62 q 569 -121 622 -121 m 39 -29 q 97 -13 71 -29 q 144 32 122 3 q 61 60 101 49 q -10 71 21 71 q -47 63 -36 71 q -57 43 -57 56 q -30 -5 -57 19 q 39 -29 -3 -29 m 456 568 q 567 605 518 569 q 651 692 617 640 q 704 797 686 743 q 722 892 722 851 q 708 944 722 931 q 674 958 693 958 q 595 904 632 958 q 524 762 558 850 q 456 568 490 674 m 618 -389 q 561 -368 582 -389 q 540 -314 540 -347 q 590 -203 540 -262 q 717 -99 640 -143 q 760 -76 738 -86 q 808 -53 782 -65 q 857 90 835 10 q 896 268 879 171 q 863 213 879 238 q 836 169 847 188 l 821 196 q 863 290 844 240 q 900 383 882 339 q 936 456 918 428 q 978 483 954 483 q 1004 471 994 483 q 1014 439 1014 458 q 1006 381 1014 424 q 985 276 999 338 q 951 142 971 214 q 907 -4 931 69 q 987 44 947 18 q 1066 111 1026 69 q 1144 222 1106 153 l 1165 210 q 1080 78 1128 126 q 983 2 1032 29 q 890 -51 933 -25 q 818 -214 860 -136 q 726 -340 776 -292 q 618 -389 676 -389 m 604 -335 q 682 -278 632 -335 q 785 -107 732 -221 q 633 -210 683 -157 q 583 -306 583 -262 q 590 -328 583 -322 q 604 -335 596 -335 m 999 601 q 957 613 975 601 q 939 649 939 625 q 956 687 939 669 q 997 715 972 704 q 1044 725 1021 725 q 1080 715 1065 725 q 1094 683 1094 704 q 1065 626 1094 651 q 999 601 1036 601 z "},"":{"ha":811,"x_min":-99,"x_max":722,"o":"m 569 -121 q 458 -100 519 -121 q 331 -49 396 -79 q 203 7 267 -19 q 130 -52 168 -31 q 47 -74 92 -74 q -31 -53 1 -74 q -81 -3 -64 -32 q -99 50 -99 26 q -75 95 -99 76 q 7 114 -51 114 q 88 106 44 114 q 179 85 132 97 q 235 208 208 135 q 290 369 263 282 q 347 546 318 457 q 418 738 382 654 q 493 880 454 821 q 576 969 532 939 q 669 1000 619 1000 q 557 820 614 938 q 447 543 500 703 q 390 376 417 450 q 340 246 363 303 q 294 145 317 189 q 249 65 272 101 q 374 28 308 47 q 503 -5 440 8 q 617 -18 565 -18 q 672 -12 647 -18 q 722 7 697 -6 q 660 -92 699 -62 q 569 -121 622 -121 m 39 -29 q 97 -13 71 -29 q 144 32 122 3 q 61 60 101 49 q -10 71 21 71 q -47 63 -36 71 q -57 43 -57 56 q -30 -5 -57 19 q 39 -29 -3 -29 m 164 464 q 231 533 174 507 q 385 571 289 560 q 606 582 482 582 q 665 581 633 582 q 711 578 696 579 q 693 540 711 551 q 630 522 675 528 q 500 510 585 517 q 377 499 428 504 q 278 485 326 493 q 164 464 231 478 z "},"":{"ha":1483,"x_min":68,"x_max":1628,"o":"m 68 -121 q 112 29 86 -53 q 173 224 138 111 q 255 492 208 336 q 363 858 301 647 q 369 881 365 864 q 372 914 372 899 q 368 935 372 928 q 353 942 364 942 q 292 917 321 942 q 241 854 263 892 q 208 776 219 817 q 196 703 196 735 q 204 649 196 672 q 133 672 154 649 q 113 731 113 696 q 140 826 113 778 q 212 913 168 874 q 304 976 256 953 q 393 1000 353 1000 q 466 965 438 1000 q 512 867 494 929 q 542 728 529 806 q 564 567 554 650 q 584 415 575 483 q 601 293 593 347 q 615 196 608 239 q 626 119 621 153 q 657 265 639 185 q 697 430 675 344 q 740 597 718 515 q 783 747 763 678 q 819 864 803 815 q 846 931 836 913 q 880 975 854 950 q 942 1000 906 1000 q 888 845 918 938 q 828 645 858 753 q 768 426 797 538 q 716 209 739 314 q 680 19 693 104 q 667 -121 667 -67 q 592 -96 621 -121 q 550 -6 563 -71 q 533 87 543 26 q 510 224 522 147 q 483 385 497 301 q 457 549 469 469 q 435 695 444 629 q 418 803 425 761 q 306 403 353 567 q 227 137 260 240 q 169 -22 194 33 q 119 -99 143 -78 q 68 -121 96 -121 m 1019 -119 q 949 -107 986 -119 q 888 -55 913 -94 q 863 64 863 -15 q 876 172 863 118 q 913 263 889 226 q 971 299 938 299 q 1015 286 989 299 q 977 166 990 222 q 964 64 964 110 q 987 -31 964 3 q 1051 -64 1010 -64 q 1115 -34 1086 -64 q 1174 78 1143 -4 q 1219 225 1194 139 q 1267 408 1243 311 q 1313 603 1292 506 q 1352 783 1335 700 q 1379 921 1369 865 q 1265 917 1313 919 q 1177 908 1217 914 q 1093 892 1138 901 q 1157 971 1101 944 q 1328 997 1213 997 q 1443 992 1385 997 q 1551 980 1501 986 q 1628 968 1601 974 q 1574 930 1610 938 q 1514 922 1538 922 q 1465 922 1489 922 q 1422 921 1440 921 q 1441 891 1435 908 q 1447 858 1447 874 q 1438 779 1447 840 q 1410 631 1428 718 q 1367 445 1392 543 q 1314 253 1343 347 q 1251 86 1285 160 q 1178 -41 1215 3 q 1101 -102 1140 -85 q 1019 -119 1061 -119 z "},"":{"ha":904,"x_min":68,"x_max":942,"o":"m 68 -121 q 112 29 86 -53 q 173 224 138 111 q 255 492 208 336 q 363 858 301 647 q 369 881 365 864 q 372 914 372 899 q 368 935 372 928 q 353 942 364 942 q 292 917 321 942 q 241 854 263 892 q 208 776 219 817 q 196 703 196 735 q 204 649 196 672 q 133 672 154 649 q 113 731 113 696 q 140 826 113 778 q 212 913 168 874 q 304 976 256 953 q 393 1000 353 1000 q 466 965 438 1000 q 512 867 494 929 q 542 728 529 806 q 564 567 554 650 q 584 415 575 483 q 601 293 593 347 q 615 196 608 239 q 626 119 621 153 q 657 265 639 185 q 697 430 675 344 q 740 597 718 515 q 783 747 763 678 q 819 864 803 815 q 846 931 836 913 q 880 975 854 950 q 942 1000 906 1000 q 888 845 918 938 q 828 645 858 753 q 768 426 797 538 q 716 209 739 314 q 680 19 693 104 q 667 -121 667 -67 q 592 -96 621 -121 q 550 -6 563 -71 q 533 87 543 26 q 510 224 522 147 q 483 385 497 301 q 457 549 469 469 q 435 695 444 629 q 418 803 425 761 q 306 403 353 567 q 227 137 260 240 q 169 -22 194 33 q 119 -99 143 -78 q 68 -121 96 -121 m 681 1039 q 663 1058 668 1044 q 657 1078 657 1072 q 672 1117 657 1090 q 708 1173 686 1143 q 755 1223 731 1203 q 801 1243 779 1243 q 824 1234 814 1243 q 835 1199 833 1225 q 749 1117 786 1154 q 681 1039 711 1079 z "},"":{"ha":904,"x_min":68,"x_max":942,"o":"m 68 -121 q 112 29 86 -53 q 173 224 138 111 q 255 492 208 336 q 363 858 301 647 q 369 881 365 864 q 372 914 372 899 q 368 935 372 928 q 353 942 364 942 q 292 917 321 942 q 241 854 263 892 q 208 776 219 817 q 196 703 196 735 q 204 649 196 672 q 133 672 154 649 q 113 731 113 696 q 140 826 113 778 q 212 913 168 874 q 304 976 256 953 q 393 1000 353 1000 q 466 965 438 1000 q 512 867 494 929 q 542 728 529 806 q 564 567 554 650 q 584 415 575 483 q 601 293 593 347 q 615 196 608 239 q 626 119 621 153 q 657 265 639 185 q 697 430 675 344 q 740 597 718 515 q 783 747 763 678 q 819 864 803 815 q 846 931 836 913 q 880 975 854 950 q 942 1000 906 1000 q 888 845 918 938 q 828 645 858 753 q 768 426 797 538 q 716 209 739 314 q 680 19 693 104 q 667 -121 667 -67 q 592 -96 621 -121 q 550 -6 563 -71 q 533 87 543 26 q 510 224 522 147 q 483 385 497 301 q 457 549 469 469 q 435 695 444 629 q 418 803 425 761 q 306 403 353 567 q 227 137 260 240 q 169 -22 194 33 q 119 -99 143 -78 q 68 -121 96 -121 m 668 1047 q 628 1063 650 1047 q 585 1104 606 1079 q 551 1156 564 1129 q 538 1206 538 1183 q 544 1232 538 1219 q 564 1251 550 1244 q 610 1181 585 1211 q 668 1121 635 1151 q 746 1156 711 1136 q 811 1201 781 1175 q 824 1186 821 1194 q 828 1169 828 1178 q 809 1128 828 1149 q 763 1088 790 1107 q 708 1058 735 1069 q 668 1047 682 1047 z "},"":{"ha":904,"x_min":68,"x_max":942,"o":"m 68 -121 q 112 29 86 -53 q 173 224 138 111 q 255 492 208 336 q 363 858 301 647 q 369 881 365 864 q 372 914 372 899 q 368 935 372 928 q 353 942 364 942 q 292 917 321 942 q 241 854 263 892 q 208 776 219 817 q 196 703 196 735 q 204 649 196 672 q 133 672 154 649 q 113 731 113 696 q 140 826 113 778 q 212 913 168 874 q 304 976 256 953 q 393 1000 353 1000 q 466 965 438 1000 q 512 867 494 929 q 542 728 529 806 q 564 567 554 650 q 584 415 575 483 q 601 293 593 347 q 615 196 608 239 q 626 119 621 153 q 657 265 639 185 q 697 430 675 344 q 740 597 718 515 q 783 747 763 678 q 819 864 803 815 q 846 931 836 913 q 880 975 854 950 q 942 1000 906 1000 q 888 845 918 938 q 828 645 858 753 q 768 426 797 538 q 716 209 739 314 q 680 19 693 104 q 667 -121 667 -67 q 592 -96 621 -121 q 550 -6 563 -71 q 533 87 543 26 q 510 224 522 147 q 483 385 497 301 q 457 549 469 469 q 435 695 444 629 q 418 803 425 761 q 306 403 353 567 q 227 137 260 240 q 169 -22 194 33 q 119 -99 143 -78 q 68 -121 96 -121 m 304 -324 q 283 -301 290 -315 q 276 -269 276 -286 q 289 -207 276 -242 q 321 -147 301 -172 q 363 -122 340 -122 q 389 -135 378 -122 q 400 -164 400 -147 q 344 -241 363 -203 q 304 -324 326 -279 z "},"":{"ha":935,"x_min":115,"x_max":910,"o":"m 340 -332 q 277 -324 301 -332 q 253 -306 253 -315 q 279 -292 253 -292 q 451 -237 378 -292 q 579 -81 524 -183 q 678 165 635 22 q 719 308 697 229 q 759 472 740 388 q 790 633 778 556 q 801 767 801 710 q 774 876 801 832 q 685 921 747 921 q 581 885 628 921 q 499 791 535 849 q 438 669 463 733 q 399 550 413 606 q 302 181 346 346 q 224 -137 258 17 q 155 -120 188 -137 q 122 -67 122 -103 q 136 19 122 -42 q 172 158 150 79 q 221 324 194 238 q 272 493 247 411 q 314 639 296 575 q 342 737 328 685 q 365 839 356 789 q 374 926 374 889 q 351 954 374 954 q 297 928 324 954 q 247 861 269 901 q 212 778 225 821 q 199 700 199 735 q 201 676 199 689 q 208 649 203 663 q 137 672 158 649 q 115 732 115 696 q 142 826 115 779 q 211 913 169 874 q 301 976 253 953 q 393 1000 350 1000 q 450 978 435 1000 q 465 931 465 957 q 457 856 465 901 q 432 756 449 811 q 556 922 485 860 q 724 983 628 983 q 863 928 815 983 q 910 788 910 874 q 898 649 910 729 q 867 480 886 568 q 825 308 847 392 q 783 158 803 224 q 713 -31 753 57 q 621 -187 674 -119 q 499 -293 568 -254 q 340 -332 429 -332 z "},"":{"ha":1192,"x_min":68,"x_max":1240,"o":"m 68 -121 q 112 29 86 -53 q 173 224 138 111 q 255 492 208 336 q 363 858 301 647 q 369 881 365 864 q 372 914 372 899 q 368 935 372 928 q 353 942 364 942 q 292 917 321 942 q 241 854 263 892 q 208 776 219 817 q 196 703 196 735 q 204 649 196 672 q 133 672 154 649 q 113 731 113 696 q 140 826 113 778 q 212 913 168 874 q 304 976 256 953 q 393 1000 353 1000 q 466 965 438 1000 q 512 867 494 929 q 542 728 529 806 q 564 567 554 650 q 584 415 575 483 q 601 293 593 347 q 615 196 608 239 q 626 119 621 153 q 657 265 639 185 q 697 430 675 344 q 740 597 718 515 q 783 747 763 678 q 819 864 803 815 q 846 931 836 913 q 880 975 854 950 q 942 1000 906 1000 q 888 845 918 938 q 828 645 858 753 q 768 426 797 538 q 716 209 739 314 q 680 19 693 104 q 667 -121 667 -67 q 592 -96 621 -121 q 550 -6 563 -71 q 533 87 543 26 q 510 224 522 147 q 483 385 497 301 q 457 549 469 469 q 435 695 444 629 q 418 803 425 761 q 306 403 353 567 q 227 137 260 240 q 169 -22 194 33 q 119 -99 143 -78 q 68 -121 96 -121 m 693 -389 q 636 -368 657 -389 q 615 -314 615 -347 q 665 -203 615 -262 q 792 -99 715 -143 q 835 -76 813 -86 q 883 -53 857 -65 q 932 90 910 10 q 971 268 954 171 q 938 213 954 238 q 911 169 922 188 l 896 196 q 938 290 919 240 q 975 383 957 339 q 1011 456 993 428 q 1053 483 1029 483 q 1079 471 1069 483 q 1089 439 1089 458 q 1081 381 1089 424 q 1060 276 1074 338 q 1026 142 1046 214 q 982 -4 1006 69 q 1062 44 1022 18 q 1141 111 1101 69 q 1219 222 1181 153 l 1240 210 q 1155 78 1203 126 q 1058 2 1107 29 q 965 -51 1008 -25 q 893 -214 935 -136 q 801 -340 851 -292 q 693 -389 751 -389 m 679 -335 q 757 -278 707 -335 q 860 -107 807 -221 q 708 -210 758 -157 q 658 -306 658 -262 q 665 -328 658 -322 q 679 -335 671 -335 m 1074 601 q 1032 613 1050 601 q 1014 649 1014 625 q 1031 687 1014 669 q 1072 715 1047 704 q 1119 725 1096 725 q 1155 715 1140 725 q 1169 683 1169 704 q 1140 626 1169 651 q 1074 601 1111 601 z "},"":{"ha":904,"x_min":68,"x_max":942,"o":"m 68 -121 q 112 29 86 -53 q 173 224 138 111 q 255 492 208 336 q 363 858 301 647 q 369 881 365 864 q 372 914 372 899 q 368 935 372 928 q 353 942 364 942 q 292 917 321 942 q 241 854 263 892 q 208 776 219 817 q 196 703 196 735 q 204 649 196 672 q 133 672 154 649 q 113 731 113 696 q 140 826 113 778 q 212 913 168 874 q 304 976 256 953 q 393 1000 353 1000 q 466 965 438 1000 q 512 867 494 929 q 542 728 529 806 q 564 567 554 650 q 584 415 575 483 q 601 293 593 347 q 615 196 608 239 q 626 119 621 153 q 657 265 639 185 q 697 430 675 344 q 740 597 718 515 q 783 747 763 678 q 819 864 803 815 q 846 931 836 913 q 880 975 854 950 q 942 1000 906 1000 q 888 845 918 938 q 828 645 858 753 q 768 426 797 538 q 716 209 739 314 q 680 19 693 104 q 667 -121 667 -67 q 592 -96 621 -121 q 550 -6 563 -71 q 533 87 543 26 q 510 224 522 147 q 483 385 497 301 q 457 549 469 469 q 435 695 444 629 q 418 803 425 761 q 306 403 353 567 q 227 137 260 240 q 169 -22 194 33 q 119 -99 143 -78 q 68 -121 96 -121 m 793 1054 q 715 1070 756 1054 q 633 1103 674 1086 q 551 1119 592 1119 q 510 1115 531 1119 q 471 1099 490 1110 q 526 1156 494 1139 q 593 1172 557 1172 q 674 1156 632 1172 q 759 1122 715 1139 q 849 1106 803 1106 q 908 1118 878 1106 q 856 1069 883 1085 q 793 1054 828 1054 z "},"":{"ha":881,"x_min":35,"x_max":885,"o":"m 310 -121 q 167 -78 229 -121 q 70 42 106 -36 q 35 225 35 119 q 68 442 35 332 q 160 651 101 551 q 293 828 218 750 q 452 953 368 907 q 621 999 536 999 q 666 994 643 999 q 707 975 689 989 q 692 975 697 975 q 683 975 688 975 q 538 928 611 975 q 397 802 464 882 q 278 623 331 722 q 194 417 225 524 q 164 210 164 310 q 183 73 164 136 q 244 -28 201 10 q 353 -67 286 -67 q 498 -19 431 -67 q 620 108 565 28 q 715 287 675 188 q 775 491 754 386 q 796 693 796 596 q 790 777 796 732 q 772 855 785 822 q 733 888 758 888 q 681 856 710 888 q 625 778 651 825 q 578 681 599 732 q 549 592 557 631 q 492 619 510 600 q 475 664 475 639 q 501 747 475 701 q 567 834 526 792 q 652 903 608 876 q 733 931 696 931 q 794 903 771 931 q 832 833 818 876 q 851 741 846 790 q 856 650 856 692 q 822 380 856 501 q 729 165 788 258 q 599 8 671 72 q 453 -88 528 -56 q 310 -121 378 -121 m 731 1039 q 713 1058 718 1044 q 707 1078 707 1072 q 722 1117 707 1090 q 758 1173 736 1143 q 805 1223 781 1203 q 851 1243 829 1243 q 874 1234 864 1243 q 885 1199 883 1225 q 799 1117 836 1154 q 731 1039 761 1079 z "},"":{"ha":881,"x_min":35,"x_max":919,"o":"m 310 -121 q 167 -78 229 -121 q 70 42 106 -36 q 35 225 35 119 q 68 442 35 332 q 160 651 101 551 q 293 828 218 750 q 452 953 368 907 q 621 999 536 999 q 666 994 643 999 q 707 975 689 989 q 692 975 697 975 q 683 975 688 975 q 538 928 611 975 q 397 802 464 882 q 278 623 331 722 q 194 417 225 524 q 164 210 164 310 q 183 73 164 136 q 244 -28 201 10 q 353 -67 286 -67 q 498 -19 431 -67 q 620 108 565 28 q 715 287 675 188 q 775 491 754 386 q 796 693 796 596 q 790 777 796 732 q 772 855 785 822 q 733 888 758 888 q 681 856 710 888 q 625 778 651 825 q 578 681 599 732 q 549 592 557 631 q 492 619 510 600 q 475 664 475 639 q 501 747 475 701 q 567 834 526 792 q 652 903 608 876 q 733 931 696 931 q 794 903 771 931 q 832 833 818 876 q 851 741 846 790 q 856 650 856 692 q 822 380 856 501 q 729 165 788 258 q 599 8 671 72 q 453 -88 528 -56 q 310 -121 378 -121 m 771 1053 q 684 1074 717 1053 q 638 1126 651 1096 q 624 1182 624 1157 q 633 1224 624 1207 q 658 1250 643 1240 q 690 1167 664 1206 q 774 1129 717 1129 q 857 1154 825 1129 q 904 1207 889 1179 q 917 1186 914 1199 q 921 1164 921 1174 q 876 1085 921 1117 q 771 1053 831 1053 z "},"":{"ha":881,"x_min":35,"x_max":885,"o":"m 310 -121 q 167 -78 229 -121 q 70 42 106 -36 q 35 225 35 119 q 68 442 35 332 q 160 651 101 551 q 293 828 218 750 q 452 953 368 907 q 621 999 536 999 q 666 994 643 999 q 707 975 689 989 q 692 975 697 975 q 683 975 688 975 q 538 928 611 975 q 397 802 464 882 q 278 623 331 722 q 194 417 225 524 q 164 210 164 310 q 183 73 164 136 q 244 -28 201 10 q 353 -67 286 -67 q 498 -19 431 -67 q 620 108 565 28 q 715 287 675 188 q 775 491 754 386 q 796 693 796 596 q 790 777 796 732 q 772 855 785 822 q 733 888 758 888 q 681 856 710 888 q 625 778 651 825 q 578 681 599 732 q 549 592 557 631 q 492 619 510 600 q 475 664 475 639 q 501 747 475 701 q 567 834 526 792 q 652 903 608 876 q 733 931 696 931 q 794 903 771 931 q 832 833 818 876 q 851 741 846 790 q 856 650 856 692 q 822 380 856 501 q 729 165 788 258 q 599 8 671 72 q 453 -88 528 -56 q 310 -121 378 -121 m 858 1033 q 813 1100 838 1072 q 756 1157 788 1128 q 681 1125 715 1143 q 614 1081 647 1107 q 601 1095 604 1086 q 599 1111 599 1104 q 617 1153 599 1132 q 663 1192 636 1174 q 717 1221 690 1210 q 757 1232 743 1232 q 796 1217 774 1232 q 838 1178 818 1201 q 872 1128 858 1154 q 885 1081 885 1101 q 878 1054 885 1067 q 858 1033 872 1042 z "},"":{"ha":881,"x_min":35,"x_max":1042,"o":"m 310 -121 q 167 -78 229 -121 q 70 42 106 -36 q 35 225 35 119 q 68 442 35 332 q 160 651 101 551 q 293 828 218 750 q 452 953 368 907 q 621 999 536 999 q 666 994 643 999 q 707 975 689 989 q 692 975 697 975 q 683 975 688 975 q 538 928 611 975 q 397 802 464 882 q 278 623 331 722 q 194 417 225 524 q 164 210 164 310 q 183 73 164 136 q 244 -28 201 10 q 353 -67 286 -67 q 498 -19 431 -67 q 620 108 565 28 q 715 287 675 188 q 775 491 754 386 q 796 693 796 596 q 790 777 796 732 q 772 855 785 822 q 733 888 758 888 q 681 856 710 888 q 625 778 651 825 q 578 681 599 732 q 549 592 557 631 q 492 619 510 600 q 475 664 475 639 q 501 747 475 701 q 567 834 526 792 q 652 903 608 876 q 733 931 696 931 q 794 903 771 931 q 832 833 818 876 q 851 741 846 790 q 856 650 856 692 q 822 380 856 501 q 729 165 788 258 q 599 8 671 72 q 453 -88 528 -56 q 310 -121 378 -121 m 913 1167 q 890 1185 897 1174 q 882 1208 882 1197 q 894 1245 882 1222 q 926 1291 907 1268 q 968 1330 946 1314 q 1008 1346 990 1346 q 1031 1336 1021 1346 q 1043 1301 1040 1326 q 996 1258 1019 1281 q 951 1212 972 1235 q 913 1167 929 1189 m 858 1033 q 813 1100 838 1072 q 756 1157 788 1128 q 681 1125 715 1143 q 614 1081 647 1107 q 601 1095 604 1086 q 599 1111 599 1104 q 617 1153 599 1132 q 663 1192 636 1174 q 717 1221 690 1210 q 757 1232 743 1232 q 796 1217 774 1232 q 838 1178 818 1201 q 872 1128 858 1154 q 885 1081 885 1101 q 878 1054 885 1067 q 858 1033 872 1042 z "},"":{"ha":881,"x_min":35,"x_max":885,"o":"m 310 -121 q 167 -78 229 -121 q 70 42 106 -36 q 35 225 35 119 q 68 442 35 332 q 160 651 101 551 q 293 828 218 750 q 452 953 368 907 q 621 999 536 999 q 666 994 643 999 q 707 975 689 989 q 692 975 697 975 q 683 975 688 975 q 538 928 611 975 q 397 802 464 882 q 278 623 331 722 q 194 417 225 524 q 164 210 164 310 q 183 73 164 136 q 244 -28 201 10 q 353 -67 286 -67 q 498 -19 431 -67 q 620 108 565 28 q 715 287 675 188 q 775 491 754 386 q 796 693 796 596 q 790 777 796 732 q 772 855 785 822 q 733 888 758 888 q 681 856 710 888 q 625 778 651 825 q 578 681 599 732 q 549 592 557 631 q 492 619 510 600 q 475 664 475 639 q 501 747 475 701 q 567 834 526 792 q 652 903 608 876 q 733 931 696 931 q 794 903 771 931 q 832 833 818 876 q 851 741 846 790 q 856 650 856 692 q 822 380 856 501 q 729 165 788 258 q 599 8 671 72 q 453 -88 528 -56 q 310 -121 378 -121 m 858 1033 q 813 1100 838 1072 q 756 1157 788 1128 q 681 1125 715 1143 q 614 1081 647 1107 q 601 1095 604 1086 q 599 1111 599 1104 q 617 1153 599 1132 q 663 1192 636 1174 q 717 1221 690 1210 q 757 1232 743 1232 q 796 1217 774 1232 q 838 1178 818 1201 q 872 1128 858 1154 q 885 1081 885 1101 q 878 1054 885 1067 q 858 1033 872 1042 m 244 -357 q 203 -344 219 -357 q 186 -307 186 -331 q 217 -258 186 -276 q 279 -239 247 -239 q 317 -251 304 -239 q 329 -286 329 -264 q 303 -335 329 -314 q 244 -357 276 -357 z "},"":{"ha":881,"x_min":35,"x_max":961,"o":"m 310 -121 q 167 -78 229 -121 q 70 42 106 -36 q 35 225 35 119 q 68 442 35 332 q 160 651 101 551 q 293 828 218 750 q 452 953 368 907 q 621 999 536 999 q 666 994 643 999 q 707 975 689 989 q 692 975 697 975 q 683 975 688 975 q 538 928 611 975 q 397 802 464 882 q 278 623 331 722 q 194 417 225 524 q 164 210 164 310 q 183 73 164 136 q 244 -28 201 10 q 353 -67 286 -67 q 498 -19 431 -67 q 620 108 565 28 q 715 287 675 188 q 775 491 754 386 q 796 693 796 596 q 790 777 796 732 q 772 855 785 822 q 733 888 758 888 q 681 856 710 888 q 625 778 651 825 q 578 681 599 732 q 549 592 557 631 q 492 619 510 600 q 475 664 475 639 q 501 747 475 701 q 567 834 526 792 q 652 903 608 876 q 733 931 696 931 q 794 903 771 931 q 832 833 818 876 q 851 741 846 790 q 856 650 856 692 q 822 380 856 501 q 729 165 788 258 q 599 8 671 72 q 453 -88 528 -56 q 310 -121 378 -121 m 932 1164 q 899 1213 918 1188 q 860 1263 881 1238 q 818 1313 839 1289 q 832 1343 822 1335 q 856 1351 842 1351 q 892 1334 874 1351 q 926 1292 911 1317 q 951 1243 942 1267 q 961 1204 961 1219 q 932 1164 961 1175 m 858 1033 q 813 1100 838 1072 q 756 1157 788 1128 q 681 1125 715 1143 q 614 1081 647 1107 q 601 1095 604 1086 q 599 1111 599 1104 q 617 1153 599 1132 q 663 1192 636 1174 q 717 1221 690 1210 q 757 1232 743 1232 q 796 1217 774 1232 q 838 1178 818 1201 q 872 1128 858 1154 q 885 1081 885 1101 q 878 1054 885 1067 q 858 1033 872 1042 z "},"":{"ha":881,"x_min":35,"x_max":1028,"o":"m 310 -121 q 167 -78 229 -121 q 70 42 106 -36 q 35 225 35 119 q 68 442 35 332 q 160 651 101 551 q 293 828 218 750 q 452 953 368 907 q 621 999 536 999 q 666 994 643 999 q 707 975 689 989 q 692 975 697 975 q 683 975 688 975 q 538 928 611 975 q 397 802 464 882 q 278 623 331 722 q 194 417 225 524 q 164 210 164 310 q 183 73 164 136 q 244 -28 201 10 q 353 -67 286 -67 q 498 -19 431 -67 q 620 108 565 28 q 715 287 675 188 q 775 491 754 386 q 796 693 796 596 q 790 777 796 732 q 772 855 785 822 q 733 888 758 888 q 681 856 710 888 q 625 778 651 825 q 578 681 599 732 q 549 592 557 631 q 492 619 510 600 q 475 664 475 639 q 501 747 475 701 q 567 834 526 792 q 652 903 608 876 q 733 931 696 931 q 794 903 771 931 q 832 833 818 876 q 851 741 846 790 q 856 650 856 692 q 822 380 856 501 q 729 165 788 258 q 599 8 671 72 q 453 -88 528 -56 q 310 -121 378 -121 m 947 1154 q 922 1158 933 1154 q 903 1168 910 1163 q 956 1186 933 1172 q 978 1228 978 1200 q 947 1274 978 1258 q 849 1289 915 1289 q 867 1336 849 1317 q 919 1356 886 1356 q 997 1322 967 1356 q 1028 1240 1028 1289 q 1006 1178 1028 1201 q 947 1154 983 1154 m 858 1033 q 813 1100 838 1072 q 756 1157 788 1128 q 681 1125 715 1143 q 614 1081 647 1107 q 601 1095 604 1086 q 599 1111 599 1104 q 617 1153 599 1132 q 663 1192 636 1174 q 717 1221 690 1210 q 757 1232 743 1232 q 796 1217 774 1232 q 838 1178 818 1201 q 872 1128 858 1154 q 885 1081 885 1101 q 878 1054 885 1067 q 858 1033 872 1042 z "},"":{"ha":881,"x_min":35,"x_max":1028,"o":"m 310 -121 q 167 -78 229 -121 q 70 42 106 -36 q 35 225 35 119 q 68 442 35 332 q 160 651 101 551 q 293 828 218 750 q 452 953 368 907 q 621 999 536 999 q 666 994 643 999 q 707 975 689 989 q 692 975 697 975 q 683 975 688 975 q 538 928 611 975 q 397 802 464 882 q 278 623 331 722 q 194 417 225 524 q 164 210 164 310 q 183 73 164 136 q 244 -28 201 10 q 353 -67 286 -67 q 498 -19 431 -67 q 620 108 565 28 q 715 287 675 188 q 775 491 754 386 q 796 693 796 596 q 790 777 796 732 q 772 855 785 822 q 733 888 758 888 q 681 856 710 888 q 625 778 651 825 q 578 681 599 732 q 549 592 557 631 q 492 619 510 600 q 475 664 475 639 q 501 747 475 701 q 567 834 526 792 q 652 903 608 876 q 733 931 696 931 q 794 903 771 931 q 832 833 818 876 q 851 741 846 790 q 856 650 856 692 q 822 380 856 501 q 729 165 788 258 q 599 8 671 72 q 453 -88 528 -56 q 310 -121 378 -121 m 771 1053 q 684 1074 717 1053 q 638 1126 651 1096 q 624 1182 624 1157 q 633 1224 624 1207 q 658 1250 643 1240 q 690 1167 664 1206 q 774 1129 717 1129 q 857 1154 825 1129 q 904 1207 889 1179 q 917 1186 914 1199 q 921 1164 921 1174 q 876 1085 921 1117 q 771 1053 831 1053 m 913 1236 q 834 1252 875 1236 q 752 1285 793 1268 q 671 1301 711 1301 q 630 1297 650 1301 q 590 1281 610 1292 q 645 1338 614 1321 q 713 1354 676 1354 q 793 1338 751 1354 q 878 1304 835 1321 q 968 1288 922 1288 q 1028 1300 997 1288 q 975 1251 1003 1267 q 913 1236 947 1236 z "},"":{"ha":881,"x_min":35,"x_max":856,"o":"m 310 -121 q 167 -78 229 -121 q 70 42 106 -36 q 35 225 35 119 q 68 442 35 332 q 160 651 101 551 q 293 828 218 750 q 452 953 368 907 q 621 999 536 999 q 666 994 643 999 q 707 975 689 989 q 692 975 697 975 q 683 975 688 975 q 538 928 611 975 q 397 802 464 882 q 278 623 331 722 q 194 417 225 524 q 164 210 164 310 q 183 73 164 136 q 244 -28 201 10 q 353 -67 286 -67 q 498 -19 431 -67 q 620 108 565 28 q 715 287 675 188 q 775 491 754 386 q 796 693 796 596 q 790 777 796 732 q 772 855 785 822 q 733 888 758 888 q 681 856 710 888 q 625 778 651 825 q 578 681 599 732 q 549 592 557 631 q 492 619 510 600 q 475 664 475 639 q 501 747 475 701 q 567 834 526 792 q 652 903 608 876 q 733 931 696 931 q 794 903 771 931 q 832 833 818 876 q 851 741 846 790 q 856 650 856 692 q 822 380 856 501 q 729 165 788 258 q 599 8 671 72 q 453 -88 528 -56 q 310 -121 378 -121 m 690 1040 q 627 1124 661 1081 q 553 1213 593 1167 q 573 1231 563 1224 q 597 1238 583 1238 q 635 1218 615 1238 q 671 1170 654 1199 q 698 1116 688 1142 q 708 1075 708 1090 q 690 1040 708 1051 m 785 1046 q 740 1123 765 1082 q 683 1203 714 1164 q 701 1230 692 1222 q 724 1238 711 1238 q 758 1221 742 1238 q 788 1179 775 1204 q 807 1129 800 1154 q 814 1089 814 1104 q 805 1058 814 1067 q 785 1046 796 1049 z "},"":{"ha":881,"x_min":35,"x_max":917,"o":"m 310 -121 q 167 -78 229 -121 q 70 42 106 -36 q 35 225 35 119 q 68 442 35 332 q 160 651 101 551 q 293 828 218 750 q 452 953 368 907 q 621 999 536 999 q 666 994 643 999 q 707 975 689 989 q 692 975 697 975 q 683 975 688 975 q 538 928 611 975 q 397 802 464 882 q 278 623 331 722 q 194 417 225 524 q 164 210 164 310 q 183 73 164 136 q 244 -28 201 10 q 353 -67 286 -67 q 498 -19 431 -67 q 620 108 565 28 q 715 287 675 188 q 775 491 754 386 q 796 693 796 596 q 790 777 796 732 q 772 855 785 822 q 733 888 758 888 q 681 856 710 888 q 625 778 651 825 q 578 681 599 732 q 549 592 557 631 q 492 619 510 600 q 475 664 475 639 q 501 747 475 701 q 567 834 526 792 q 652 903 608 876 q 733 931 696 931 q 794 903 771 931 q 832 833 818 876 q 851 741 846 790 q 856 650 856 692 q 822 380 856 501 q 729 165 788 258 q 599 8 671 72 q 453 -88 528 -56 q 310 -121 378 -121 m 833 1046 q 796 1056 813 1046 q 779 1089 779 1067 q 810 1136 779 1117 q 872 1156 842 1156 q 904 1147 892 1156 q 917 1114 917 1138 q 890 1068 917 1090 q 833 1046 864 1046 m 633 1075 q 596 1085 613 1075 q 579 1118 579 1094 q 610 1164 579 1144 q 671 1183 640 1183 q 703 1175 692 1183 q 715 1143 715 1167 q 690 1097 715 1119 q 633 1075 664 1075 z "},"":{"ha":881,"x_min":35,"x_max":1029,"o":"m 310 -121 q 167 -78 229 -121 q 70 42 106 -36 q 35 225 35 119 q 68 442 35 332 q 160 651 101 551 q 293 828 218 750 q 452 953 368 907 q 621 999 536 999 q 666 994 643 999 q 707 975 689 989 q 692 975 697 975 q 683 975 688 975 q 538 928 611 975 q 397 802 464 882 q 278 623 331 722 q 194 417 225 524 q 164 210 164 310 q 183 73 164 136 q 244 -28 201 10 q 353 -67 286 -67 q 498 -19 431 -67 q 620 108 565 28 q 715 287 675 188 q 775 491 754 386 q 796 693 796 596 q 790 777 796 732 q 772 855 785 822 q 733 888 758 888 q 681 856 710 888 q 625 778 651 825 q 578 681 599 732 q 549 592 557 631 q 492 619 510 600 q 475 664 475 639 q 501 747 475 701 q 567 834 526 792 q 652 903 608 876 q 733 931 696 931 q 794 903 771 931 q 832 833 818 876 q 851 741 846 790 q 856 650 856 692 q 822 380 856 501 q 729 165 788 258 q 599 8 671 72 q 453 -88 528 -56 q 310 -121 378 -121 m 833 1046 q 796 1056 813 1046 q 779 1089 779 1067 q 810 1136 779 1117 q 872 1156 842 1156 q 904 1147 892 1156 q 917 1114 917 1138 q 890 1068 917 1090 q 833 1046 864 1046 m 633 1075 q 596 1085 613 1075 q 579 1118 579 1094 q 610 1164 579 1144 q 671 1183 640 1183 q 703 1175 692 1183 q 715 1143 715 1167 q 690 1097 715 1119 q 633 1075 664 1075 m 975 1240 q 898 1248 944 1240 q 801 1266 851 1256 q 705 1286 750 1276 q 628 1299 660 1296 q 693 1336 642 1336 q 803 1326 744 1336 q 921 1301 861 1315 q 1029 1269 981 1286 q 975 1240 1011 1240 z "},"":{"ha":881,"x_min":35,"x_max":1014,"o":"m 310 -121 q 167 -78 229 -121 q 70 42 106 -36 q 35 225 35 119 q 68 442 35 332 q 160 651 101 551 q 293 828 218 750 q 452 953 368 907 q 621 999 536 999 q 666 994 643 999 q 707 975 689 989 q 692 975 697 975 q 683 975 688 975 q 538 928 611 975 q 397 802 464 882 q 278 623 331 722 q 194 417 225 524 q 164 210 164 310 q 183 73 164 136 q 244 -28 201 10 q 353 -67 286 -67 q 498 -19 431 -67 q 620 108 565 28 q 715 287 675 188 q 775 491 754 386 q 796 693 796 596 q 790 777 796 732 q 772 855 785 822 q 733 888 758 888 q 681 856 710 888 q 625 778 651 825 q 578 681 599 732 q 549 592 557 631 q 492 619 510 600 q 475 664 475 639 q 501 747 475 701 q 567 834 526 792 q 652 903 608 876 q 733 931 696 931 q 794 903 771 931 q 832 833 818 876 q 851 741 846 790 q 856 650 856 692 q 822 380 856 501 q 729 165 788 258 q 599 8 671 72 q 453 -88 528 -56 q 310 -121 378 -121 m 731 1068 q 689 1081 706 1068 q 672 1118 672 1094 q 703 1167 672 1149 q 765 1186 733 1186 q 803 1174 790 1186 q 815 1139 815 1161 q 789 1090 815 1111 q 731 1068 763 1068 m 960 1232 q 883 1240 929 1232 q 785 1258 836 1247 q 690 1278 735 1268 q 613 1290 644 1288 q 678 1328 626 1328 q 788 1317 729 1328 q 906 1292 846 1307 q 1014 1261 965 1278 q 960 1232 996 1232 z "},"":{"ha":881,"x_min":35,"x_max":856,"o":"m 310 -121 q 167 -78 229 -121 q 70 42 106 -36 q 35 225 35 119 q 68 442 35 332 q 160 651 101 551 q 293 828 218 750 q 452 953 368 907 q 621 999 536 999 q 666 994 643 999 q 707 975 689 989 q 692 975 697 975 q 683 975 688 975 q 538 928 611 975 q 397 802 464 882 q 278 623 331 722 q 194 417 225 524 q 164 210 164 310 q 183 73 164 136 q 244 -28 201 10 q 353 -67 286 -67 q 498 -19 431 -67 q 620 108 565 28 q 715 287 675 188 q 775 491 754 386 q 796 693 796 596 q 790 777 796 732 q 772 855 785 822 q 733 888 758 888 q 681 856 710 888 q 625 778 651 825 q 578 681 599 732 q 549 592 557 631 q 492 619 510 600 q 475 664 475 639 q 501 747 475 701 q 567 834 526 792 q 652 903 608 876 q 733 931 696 931 q 794 903 771 931 q 832 833 818 876 q 851 741 846 790 q 856 650 856 692 q 822 380 856 501 q 729 165 788 258 q 599 8 671 72 q 453 -88 528 -56 q 310 -121 378 -121 m 244 -357 q 203 -344 219 -357 q 186 -307 186 -331 q 217 -258 186 -276 q 279 -239 247 -239 q 317 -251 304 -239 q 329 -286 329 -264 q 303 -335 329 -314 q 244 -357 276 -357 z "}}}
